<svg xmlns="http://www.w3.org/2000/svg" xmlns:xlink="http://www.w3.org/1999/xlink" width="120" height="480"><svg width="120" height="120" viewBox="-5 -5 120 120"><path d="M82.828 67.2c-5.21 0-9.806 2.483-12.809 6.285L42.17 59.242c.364-1.36.626-2.765.626-4.244 0-1.61-.311-3.125-.746-4.6L69.777 36.22c2.986 3.973 7.701 6.57 13.055 6.57 9.07 0 16.406-7.336 16.406-16.397C99.238 17.34 91.9 10 82.832 10c-9.048 0-16.393 7.34-16.393 16.393 0 1.483.262 2.892.63 4.256L39.224 44.892c-3.007-3.805-7.611-6.296-12.83-6.296-9.06 0-16.393 7.345-16.393 16.402 0 9.057 7.332 16.397 16.393 16.397 5.362 0 10.073-2.605 13.072-6.582L67.18 78.99c-.434 1.47-.75 2.998-.75 4.612C66.43 92.66 73.776 100 82.825 100c9.07 0 16.406-7.34 16.406-16.398.004-9.065-7.332-16.401-16.402-16.401z"/></svg><svg width="120" height="120" viewBox="-5 -5 120 120" y="120"><path d="M70.265 50.332l-22.05-12.065a4.015 4.015 0 0 0-4.009.069 4.014 4.014 0 0 0-1.985 3.484v23.922c0 1.438.737 2.738 1.972 3.476a4.04 4.04 0 0 0 2.077.579c.656 0 1.314-.162 1.92-.488l22.05-11.857a4.05 4.05 0 0 0 .025-7.12zm-22.195 12.4V44.855l16.48 9.017-16.48 8.862z"/><path d="M104.071 34.842l-.005-.046c-.084-.803-.925-7.949-4.4-11.583-4.013-4.275-8.566-4.794-10.754-5.043-.182-.021-.348-.04-.496-.06l-.175-.018C75.046 17.132 55.12 17.002 54.92 17h-.035c-.2.002-20.126.132-33.44 1.092l-.175.018c-.142.02-.298.037-.468.057-2.164.25-6.667.77-10.693 5.199C6.8 26.96 5.844 33.954 5.745 34.74l-.011.102C5.704 35.176 5 43.134 5 51.123v7.468c0 7.99.704 15.947.734 16.282l.005.05c.085.791.926 7.806 4.383 11.441 3.776 4.132 8.55 4.679 11.117 4.973.406.046.755.086.993.128l.231.032c7.618.725 31.504 1.082 32.517 1.096h.061c.2 0 20.125-.132 33.32-1.091l.174-.018c.167-.022.354-.042.56-.063 2.152-.229 6.63-.703 10.601-5.072 3.309-3.597 4.266-10.59 4.364-11.374l.011-.102c.03-.335.735-8.293.735-16.282v-7.468c0-7.99-.705-15.946-.735-16.281zm-5.115 23.75c0 7.394-.645 15.009-.706 15.708-.249 1.926-1.257 6.35-2.87 8.102-2.485 2.734-5.038 3.005-6.902 3.203a32 32 0 0 0-.623.07c-12.762.922-31.936 1.064-32.82 1.07-.99-.015-24.526-.375-31.912-1.061a25.673 25.673 0 0 0-1.219-.158c-2.186-.25-5.178-.593-7.48-3.124l-.054-.058c-1.583-1.65-2.563-5.787-2.812-8.021-.047-.529-.71-8.234-.71-15.732v-7.468c0-7.386.645-14.993.707-15.707.297-2.268 1.325-6.424 2.87-8.104 2.561-2.817 5.262-3.13 7.048-3.336.17-.02.33-.038.477-.057 12.948-.927 32.26-1.065 32.953-1.07.692.004 19.998.143 32.83 1.07.158.02.33.04.515.061 1.837.21 4.614.526 7.163 3.245l.024.025c1.583 1.65 2.563 5.86 2.812 8.138.045.5.71 8.22.71 15.735v7.468z"/></svg><svg width="120" height="120" viewBox="-5 -5 120 120" y="240"><path d="M85.625 15h-61.25C19.205 15 15 19.206 15 24.375v61.25C15 90.795 19.206 95 24.375 95h61.25C90.795 95 95 90.794 95 85.625v-61.25C95 19.205 90.794 15 85.625 15zm3.125 70.625a3.129 3.129 0 0 1-3.125 3.125H67.812V63.281h9.655l1.595-9.687h-11.25v-6.719c0-2.652 2.036-4.688 4.688-4.688h6.406V32.5H72.5c-7.957 0-14.372 6.445-14.372 14.402v6.692H48.75v9.687h9.378V88.75H24.375a3.129 3.129 0 0 1-3.125-3.125v-61.25a3.129 3.129 0 0 1 3.125-3.125h61.25a3.129 3.129 0 0 1 3.125 3.125v61.25z"/></svg><svg width="120" height="120" viewBox="-5 -5 120 120" y="360"><path d="M72.603 15H36.955C24.849 15 15 24.85 15 36.955v35.648C15 84.71 24.849 94.56 36.955 94.56h35.648c12.107 0 21.956-9.85 21.956-21.956V36.955C94.559 24.85 84.709 15 72.603 15zM87.5 72.603c0 8.214-6.683 14.897-14.897 14.897H36.955c-8.214 0-14.896-6.683-14.896-14.897V36.955c0-8.213 6.682-14.896 14.896-14.896h35.648c8.214 0 14.897 6.683 14.897 14.896v35.648z"/><path d="M54.78 34.28c-11.305 0-20.5 9.196-20.5 20.5s9.195 20.5 20.5 20.5c11.303 0 20.5-9.196 20.5-20.5s-9.197-20.5-20.5-20.5zm0 33.94c-7.412 0-13.442-6.029-13.442-13.44 0-7.412 6.03-13.442 13.441-13.442 7.412 0 13.442 6.03 13.442 13.442 0 7.411-6.03 13.44-13.442 13.44zm21.36-39.925c-1.36 0-2.697.55-3.657 1.515a5.201 5.201 0 0 0-1.52 3.661 5.22 5.22 0 0 0 1.52 3.661 5.216 5.216 0 0 0 3.656 1.516 5.227 5.227 0 0 0 3.661-1.516 5.215 5.215 0 0 0 1.516-3.66c0-1.366-.55-2.702-1.516-3.662a5.199 5.199 0 0 0-3.66-1.515z"/></svg></svg>