<svg xmlns="http://www.w3.org/2000/svg" xmlns:xlink="http://www.w3.org/1999/xlink" width="120" height="960"><svg width="120" height="120" viewBox="-5 -5 120 120"><path d="M8 15h95v10H8zm0 35h95v10H8zm0 35h95v10H8z" fill-rule="evenodd"/></svg><svg width="120" height="120" viewBox="-5 -5 120 120" y="120"><path d="M23.008 71.01a3.346 3.346 0 0 1 0-4.786c1.298-1.295 3.458-1.295 4.754 0l24.35 24.272V10.4c0-1.867 1.49-3.399 3.362-3.399 1.873 0 3.41 1.532 3.41 3.4v80.096L83.19 66.224c1.344-1.295 3.507-1.295 4.802 0a3.346 3.346 0 0 1 0 4.787l-30.115 30.018c-1.298 1.295-3.459 1.295-4.754 0L23.008 71.011z" fill="#f89e2f"/></svg><svg width="120" height="120" viewBox="-5 -5 120 120" y="240"><path d="M104.783 82.481c-.283-.852-2.082-2.107-5.397-3.763a165.76 165.76 0 0 0-3.833-2.13 353.97 353.97 0 0 1-4.51-2.488 150.65 150.65 0 0 1-3.8-2.2 97.04 97.04 0 0 0-1.775-1.244c-.996-.686-1.835-1.195-2.523-1.527-.686-.33-1.361-.496-2.024-.496-.947 0-2.13.675-3.55 2.023a34.58 34.58 0 0 0-3.905 4.405 42.818 42.818 0 0 1-3.763 4.403c-1.326 1.35-2.416 2.024-3.267 2.024-.427 0-.96-.12-1.599-.354a16.564 16.564 0 0 1-1.457-.603c-.33-.167-.897-.497-1.703-.996a43.852 43.852 0 0 0-1.35-.817c-6.486-3.6-12.05-7.719-16.69-12.357-4.639-4.642-8.759-10.204-12.357-16.691-.047-.095-.32-.545-.817-1.35-.497-.805-.829-1.372-.995-1.704a15.391 15.391 0 0 1-.603-1.456c-.236-.64-.355-1.171-.355-1.598 0-.852.675-1.941 2.025-3.267a42.774 42.774 0 0 1 4.403-3.763 34.565 34.565 0 0 0 4.403-3.906c1.349-1.42 2.024-2.603 2.024-3.55 0-.663-.166-1.338-.497-2.024-.331-.688-.84-1.527-1.527-2.522a93.226 93.226 0 0 0-1.244-1.776 154.12 154.12 0 0 1-2.2-3.799 358.557 358.557 0 0 1-2.487-4.51 175.71 175.71 0 0 0-2.13-3.835c-1.657-3.313-2.911-5.113-3.764-5.396-.331-.142-.829-.214-1.49-.214-1.28 0-2.949.236-5.008.71-2.06.474-3.681.97-4.865 1.492-2.368.994-4.877 3.882-7.529 8.663-2.414 4.45-3.622 8.854-3.622 13.21 0 1.277.083 2.52.249 3.728.166 1.207.462 2.569.888 4.084.426 1.515.77 2.64 1.03 3.373.26.734.745 2.047 1.455 3.942.71 1.894 1.136 3.053 1.278 3.48 1.657 4.64 3.622 8.782 5.895 12.428 3.738 6.06 8.84 12.324 15.303 18.787 6.463 6.462 12.725 11.564 18.786 15.305 3.645 2.272 7.79 4.237 12.429 5.895.426.141 1.585.567 3.479 1.279 1.894.71 3.208 1.195 3.941 1.455.734.261 1.86.605 3.373 1.031 1.517.427 2.877.723 4.085.89 1.207.163 2.45.248 3.728.248 4.355 0 8.76-1.208 13.21-3.623 4.781-2.65 7.669-5.16 8.663-7.53.523-1.182 1.018-2.803 1.491-4.864.475-2.059.711-3.727.711-5.006.002-.665-.07-1.161-.213-1.496z" fill="#141414"/></svg><svg width="120" height="120" viewBox="-5 -5 120 120" y="360"><g fill="none" fill-rule="evenodd"><circle stroke="#F89E2F" stroke-width="3.672" cx="55" cy="55" r="53.164"/><path d="M45.233 68.49V41.51a1.836 1.836 0 0 1 2.75-1.592l23.461 13.49a1.836 1.836 0 0 1 0 3.184l-23.46 13.49a1.836 1.836 0 0 1-2.751-1.592z" fill="#535353"/></g></svg><svg width="120" height="120" viewBox="-5 -5 120 120" y="480"><path d="M82.828 67.2c-5.21 0-9.806 2.483-12.809 6.285L42.17 59.242c.364-1.36.626-2.765.626-4.244 0-1.61-.311-3.125-.746-4.6L69.777 36.22c2.986 3.973 7.701 6.57 13.055 6.57 9.07 0 16.406-7.336 16.406-16.397C99.238 17.34 91.9 10 82.832 10c-9.048 0-16.393 7.34-16.393 16.393 0 1.483.262 2.892.63 4.256L39.224 44.892c-3.007-3.805-7.611-6.296-12.83-6.296-9.06 0-16.393 7.345-16.393 16.402 0 9.057 7.332 16.397 16.393 16.397 5.362 0 10.073-2.605 13.072-6.582L67.18 78.99c-.434 1.47-.75 2.998-.75 4.612C66.43 92.66 73.776 100 82.825 100c9.07 0 16.406-7.34 16.406-16.398.004-9.065-7.332-16.401-16.402-16.401z"/></svg><svg width="120" height="120" viewBox="-5 -5 120 120" y="600"><path d="M85.625 15h-61.25C19.205 15 15 19.206 15 24.375v61.25C15 90.795 19.206 95 24.375 95h61.25C90.795 95 95 90.794 95 85.625v-61.25C95 19.205 90.794 15 85.625 15zm3.125 70.625a3.129 3.129 0 0 1-3.125 3.125H67.812V63.281h9.655l1.595-9.687h-11.25v-6.719c0-2.652 2.036-4.688 4.688-4.688h6.406V32.5H72.5c-7.957 0-14.372 6.445-14.372 14.402v6.692H48.75v9.687h9.378V88.75H24.375a3.129 3.129 0 0 1-3.125-3.125v-61.25a3.129 3.129 0 0 1 3.125-3.125h61.25a3.129 3.129 0 0 1 3.125 3.125v61.25z" fill="#8a8a8a"/></svg><svg width="120" height="120" viewBox="-5 -5 120 120" y="720"><g fill="#8a8a8a"><path d="M72.603 15H36.955C24.849 15 15 24.85 15 36.955v35.648C15 84.71 24.849 94.56 36.955 94.56h35.648c12.107 0 21.956-9.85 21.956-21.956V36.955C94.559 24.85 84.709 15 72.603 15zM87.5 72.603c0 8.214-6.683 14.897-14.897 14.897H36.955c-8.214 0-14.896-6.683-14.896-14.897V36.955c0-8.213 6.682-14.896 14.896-14.896h35.648c8.214 0 14.897 6.683 14.897 14.896v35.648z"/><path d="M54.78 34.28c-11.305 0-20.5 9.196-20.5 20.5s9.195 20.5 20.5 20.5c11.303 0 20.5-9.196 20.5-20.5s-9.197-20.5-20.5-20.5zm0 33.94c-7.412 0-13.442-6.029-13.442-13.44 0-7.412 6.03-13.442 13.441-13.442 7.412 0 13.442 6.03 13.442 13.442 0 7.411-6.03 13.44-13.442 13.44zm21.36-39.925c-1.36 0-2.697.55-3.657 1.515a5.201 5.201 0 0 0-1.52 3.661 5.22 5.22 0 0 0 1.52 3.661 5.216 5.216 0 0 0 3.656 1.516 5.227 5.227 0 0 0 3.661-1.516 5.215 5.215 0 0 0 1.516-3.66c0-1.366-.55-2.702-1.516-3.662a5.199 5.199 0 0 0-3.66-1.515z"/></g></svg><svg width="120" height="120" viewBox="-5 -5 120 120" y="840"><g fill="#8a8a8a"><path d="M70.265 50.332l-22.05-12.065a4.015 4.015 0 0 0-4.009.069 4.014 4.014 0 0 0-1.985 3.484v23.922c0 1.438.737 2.738 1.972 3.476a4.04 4.04 0 0 0 2.077.579c.656 0 1.314-.162 1.92-.488l22.05-11.857a4.05 4.05 0 0 0 .025-7.12zm-22.195 12.4V44.855l16.48 9.017-16.48 8.862z"/><path d="M104.071 34.842l-.005-.046c-.084-.803-.925-7.949-4.4-11.583-4.013-4.275-8.566-4.794-10.754-5.043-.182-.021-.348-.04-.496-.06l-.175-.018C75.046 17.132 55.12 17.002 54.92 17h-.035c-.2.002-20.126.132-33.44 1.092l-.175.018c-.142.02-.298.037-.468.057-2.164.25-6.667.77-10.693 5.199C6.8 26.96 5.844 33.954 5.745 34.74l-.011.102C5.704 35.176 5 43.134 5 51.123v7.468c0 7.99.704 15.947.734 16.282l.005.05c.085.791.926 7.806 4.383 11.441 3.776 4.132 8.55 4.679 11.117 4.973.406.046.755.086.993.128l.231.032c7.618.725 31.504 1.082 32.517 1.096h.061c.2 0 20.125-.132 33.32-1.091l.174-.018c.167-.022.354-.042.56-.063 2.152-.229 6.63-.703 10.601-5.072 3.309-3.597 4.266-10.59 4.364-11.374l.011-.102c.03-.335.735-8.293.735-16.282v-7.468c0-7.99-.705-15.946-.735-16.281zm-5.115 23.75c0 7.394-.645 15.009-.706 15.708-.249 1.926-1.257 6.35-2.87 8.102-2.485 2.734-5.038 3.005-6.902 3.203a32 32 0 0 0-.623.07c-12.762.922-31.936 1.064-32.82 1.07-.99-.015-24.526-.375-31.912-1.061a25.673 25.673 0 0 0-1.219-.158c-2.186-.25-5.178-.593-7.48-3.124l-.054-.058c-1.583-1.65-2.563-5.787-2.812-8.021-.047-.529-.71-8.234-.71-15.732v-7.468c0-7.386.645-14.993.707-15.707.297-2.268 1.325-6.424 2.87-8.104 2.561-2.817 5.262-3.13 7.048-3.336.17-.02.33-.038.477-.057 12.948-.927 32.26-1.065 32.953-1.07.692.004 19.998.143 32.83 1.07.158.02.33.04.515.061 1.837.21 4.614.526 7.163 3.245l.024.025c1.583 1.65 2.563 5.86 2.812 8.138.045.5.71 8.22.71 15.735v7.468z"/></g></svg></svg>