<?xml version="1.0" standalone="no"?>
<!DOCTYPE svg PUBLIC "-//W3C//DTD SVG 20010904//EN"
 "http://www.w3.org/TR/2001/REC-SVG-20010904/DTD/svg10.dtd">
<svg version="1.0" xmlns="http://www.w3.org/2000/svg"
 width="626.000000pt" height="626.000000pt" viewBox="0 0 626.000000 626.000000"
 preserveAspectRatio="xMidYMid meet">
<metadata>
Created by potrace 1.11, written by Peter Selinger 2001-2013
</metadata>
<g transform="translate(0.000000,626.000000) scale(0.100000,-0.100000)"
fill="#000000" stroke="none">
<path d="M3084 6232 c-67 -53 -12 -164 70 -141 53 15 76 70 50 120 -22 43 -81
53 -120 21z m90 -31 c31 -35 -8 -84 -57 -73 -21 4 -39 45 -31 66 11 29 65 33
88 7z"/>
<path d="M1914 5986 c-18 -8 -35 -19 -39 -26 -24 -38 -1 -114 38 -126 32 -10
84 5 99 29 19 30 15 85 -8 107 -28 26 -55 31 -90 16z m60 -42 c29 -28 18 -67
-22 -76 -44 -12 -74 58 -34 81 24 15 38 13 56 -5z"/>
<path d="M4293 5985 c-58 -25 -66 -102 -14 -142 39 -30 105 -6 122 44 22 67
-42 126 -108 98z m75 -68 c6 -48 -69 -72 -83 -26 -4 10 -4 28 0 38 12 40 78
30 83 -12z"/>
<path d="M2941 5772 c-12 -22 3 -42 30 -42 21 0 29 19 17 43 -11 22 -35 22
-47 -1z"/>
<path d="M3098 5780 c-48 -9 -84 -33 -104 -71 -17 -34 -11 -36 -78 24 -11 9
-25 17 -30 18 -6 0 -20 2 -30 4 -32 6 -110 -26 -137 -56 l-26 -29 -32 24 c-26
20 -43 24 -84 22 -79 -4 -127 -40 -127 -93 0 -28 -3 -28 -40 -1 -54 40 -165
17 -195 -41 -8 -17 -15 -33 -15 -36 2 -44 2 -43 -49 -18 -37 18 -58 23 -81 18
-39 -9 -84 -46 -100 -85 -11 -25 -16 -29 -39 -23 -14 3 -28 7 -29 9 -7 5 -82
-25 -107 -43 -15 -11 -27 -32 -31 -55 -7 -40 -14 -44 -45 -28 -43 24 -168 -63
-170 -118 -1 -15 0 -33 1 -41 1 -9 -4 -12 -15 -7 -9 3 -22 6 -28 6 -7 0 -4 7
6 15 24 18 18 49 -11 53 -25 4 -41 -23 -23 -41 16 -16 14 -23 -10 -24 -55 -4
-120 -81 -113 -130 2 -13 -2 -24 -9 -24 -6 -1 -22 -3 -33 -4 -52 -5 -104 -73
-104 -134 0 -17 -6 -32 -12 -33 -7 0 -17 -2 -23 -3 -5 -2 -17 -3 -25 -4 -24
-2 -85 -63 -97 -96 -5 -16 -7 -39 -2 -50 12 -31 11 -35 -11 -35 -63 0 -112
-62 -112 -140 1 -28 -2 -50 -6 -51 -4 0 -17 -2 -30 -3 -44 -5 -97 -100 -88
-158 5 -29 3 -38 -8 -38 -46 0 -89 -81 -76 -145 4 -23 1 -34 -17 -48 -33 -27
-50 -66 -47 -112 1 -30 -4 -47 -23 -69 -18 -22 -24 -39 -22 -70 3 -58 1 -66
-15 -66 -22 0 -39 -55 -32 -107 3 -28 1 -52 -6 -60 -11 -13 -16 -63 -21 -213
-1 -36 -8 -76 -16 -89 -8 -15 -11 -38 -6 -66 4 -28 2 -51 -6 -63 -10 -17 -10
-28 3 -60 9 -24 12 -45 7 -53 -12 -19 -11 -63 1 -75 6 -6 6 -22 -2 -46 -9 -30
-8 -41 5 -61 13 -21 14 -30 4 -56 -9 -26 -9 -37 5 -64 9 -17 19 -48 22 -67 3
-19 10 -60 16 -90 6 -30 13 -74 15 -98 3 -23 9 -51 15 -62 5 -10 10 -36 10
-58 0 -46 19 -66 54 -60 34 7 73 -44 59 -76 -12 -25 1 -78 22 -96 8 -7 15 -29
15 -49 0 -45 24 -81 54 -81 24 0 61 32 49 43 -3 4 -2 7 3 7 15 0 54 -68 54
-95 0 -15 12 -35 29 -50 21 -19 27 -32 23 -50 -11 -60 60 -105 102 -65 20 18
27 20 44 9 16 -10 18 -18 11 -36 -10 -27 4 -70 28 -88 8 -6 17 -22 18 -36 1
-13 3 -29 4 -36 0 -6 14 -16 30 -21 24 -8 29 -15 27 -37 -6 -50 51 -94 82 -63
28 28 1 98 -37 98 -7 0 -11 13 -10 33 2 17 -6 48 -16 67 -11 19 -21 46 -23 60
-2 14 -10 33 -19 42 -8 9 -15 33 -15 52 0 25 -7 43 -24 58 -16 16 -21 30 -17
46 4 15 -2 33 -15 52 -17 22 -19 34 -13 58 7 22 5 36 -6 53 -12 17 -14 26 -5
40 9 14 6 27 -12 61 -15 28 -20 50 -16 63 7 20 -5 72 -20 89 -5 4 -4 21 0 37
5 16 7 38 5 49 -4 21 9 27 20 10 3 -5 21 -10 40 -10 24 0 39 7 53 25 21 26 42
33 42 13 0 -6 7 -20 16 -29 15 -17 15 -22 -5 -65 -32 -68 -15 -120 45 -138 24
-7 84 35 84 59 0 23 18 27 29 7 7 -14 5 -29 -10 -60 -16 -31 -18 -45 -10 -60
6 -11 8 -42 4 -69 -5 -43 -2 -54 16 -72 32 -32 81 -25 101 14 20 40 19 39 26
33 3 -4 -2 -21 -11 -38 -18 -35 -14 -74 12 -102 13 -14 13 -21 3 -33 -23 -28
-24 -85 -1 -116 19 -25 20 -34 11 -68 -12 -46 -1 -84 29 -100 31 -17 50 -13
75 14 25 27 24 57 -4 118 -10 21 -11 30 -2 39 16 16 15 53 -3 88 -14 27 -14
32 0 54 16 24 15 50 -4 99 -9 23 -7 31 9 47 22 22 26 60 9 91 -8 17 -5 26 21
56 33 37 34 51 14 121 -5 16 -2 22 9 22 24 0 57 33 59 60 1 14 -2 39 -6 55 -6
28 -4 32 28 48 37 17 46 43 43 116 -2 32 1 35 41 48 29 10 47 24 57 44 l15 29
38 -43 c36 -40 45 -51 67 -79 6 -7 48 -60 94 -117 86 -106 231 -325 276 -416
60 -122 168 -428 200 -565 2 -8 12 -51 23 -95 18 -72 29 -137 47 -260 3 -22 8
-130 10 -240 4 -216 -6 -303 -46 -403 -21 -53 -21 -54 -3 -72 66 -64 140 -68
191 -11 34 38 53 35 122 -23 73 -61 98 -71 181 -70 86 1 132 18 188 69 21 19
52 39 68 45 26 10 31 9 54 -20 47 -57 131 -53 194 10 19 18 19 19 -2 63 -37
79 -47 159 -47 377 0 158 4 218 20 360 6 61 6 58 70 294 54 200 125 410 145
430 6 6 10 17 10 26 0 35 148 289 242 415 30 40 107 135 129 160 15 17 52 61
82 98 l55 68 18 -30 c16 -27 31 -37 88 -55 16 -5 18 -13 13 -51 -8 -56 7 -90
45 -106 24 -10 28 -16 23 -33 -6 -21 -9 -56 -6 -87 0 -9 15 -22 31 -29 40 -17
43 -24 29 -64 -15 -43 1 -88 37 -105 24 -10 24 -12 10 -33 -23 -32 -20 -84 4
-101 19 -13 19 -16 5 -57 -19 -54 -19 -69 1 -91 14 -16 14 -20 0 -48 -19 -35
-20 -64 -6 -92 8 -14 7 -27 -5 -48 -23 -46 -20 -97 9 -116 26 -17 68 -12 86
10 15 19 19 65 8 97 -8 21 -5 33 12 56 18 24 21 37 15 71 -4 22 -11 43 -16 47
-5 3 0 23 13 45 23 41 23 40 -7 112 -13 32 11 17 26 -15 29 -67 119 -39 119
36 0 19 -5 38 -10 41 -8 5 -7 11 1 21 17 20 13 83 -6 104 -14 15 -15 22 -4 41
l12 23 15 -30 c8 -17 26 -38 41 -46 76 -44 136 47 88 134 -18 34 -19 39 -5 55
8 10 18 26 21 36 7 19 27 14 27 -7 0 -7 15 -19 33 -28 28 -13 37 -13 65 -1 32
13 33 13 28 -5 -4 -11 -2 -30 2 -43 6 -16 4 -35 -5 -57 -7 -18 -13 -51 -11
-73 1 -22 -2 -43 -8 -47 -21 -15 -31 -57 -21 -86 6 -18 6 -30 0 -35 -15 -9
-21 -46 -11 -64 6 -12 2 -25 -13 -46 -15 -20 -20 -37 -16 -54 5 -18 0 -29 -19
-46 -18 -16 -24 -30 -22 -54 1 -18 -7 -45 -18 -62 -10 -16 -19 -36 -19 -45 -1
-8 -9 -31 -20 -50 -10 -19 -18 -50 -16 -67 1 -30 -5 -38 -30 -35 -15 2 -37
-62 -28 -79 27 -52 92 -20 92 45 0 19 4 33 9 30 14 -9 57 43 53 65 -2 13 4 26
16 35 26 18 43 75 27 93 -8 10 -7 17 8 28 25 19 28 19 49 -5 23 -25 40 -25 77
1 24 18 29 27 26 55 -2 27 4 40 25 60 17 16 27 35 27 54 0 16 6 35 13 42 7 7
18 21 23 31 10 17 12 17 28 -7 34 -52 96 -19 96 51 0 18 11 48 24 67 20 30 23
42 16 73 -11 48 17 89 59 85 36 -4 49 13 55 75 2 28 10 61 16 72 7 14 8 27 1
38 -6 12 -4 24 7 41 8 13 17 40 18 60 7 80 17 128 31 148 13 20 12 61 -2 84
-3 5 1 20 9 32 13 20 15 53 5 93 -1 6 1 18 6 28 4 10 3 33 -2 51 -8 25 -7 39
3 57 15 27 18 62 7 73 -5 4 -8 35 -8 69 0 34 -5 69 -10 77 -6 8 -11 42 -12 75
-5 135 -11 193 -21 211 -5 10 -8 42 -5 71 5 49 4 54 -25 81 -27 26 -30 32 -25
76 5 41 2 51 -20 74 -22 22 -26 36 -25 82 0 49 -3 57 -34 85 -26 25 -32 37
-28 56 12 47 -21 134 -56 145 -48 14 -47 14 -34 29 33 40 -27 157 -88 173 -24
5 -36 14 -34 23 20 80 -35 171 -103 172 -18 0 -20 4 -17 28 2 16 2 40 -2 53
-7 29 -72 95 -94 98 -10 0 -21 2 -27 2 -22 3 -35 19 -35 43 0 61 -66 133 -121
133 -21 0 -25 5 -27 32 -6 74 -90 140 -148 118 -36 -14 -40 -9 -43 44 -1 29
-50 79 -102 106 -27 14 -44 17 -72 10 -36 -8 -37 -7 -37 21 0 33 -29 64 -84
89 -37 17 -54 18 -94 6 -12 -4 -23 5 -37 31 -21 39 -85 83 -120 83 -12 0 -38
-9 -60 -20 -22 -11 -40 -20 -41 -20 -1 0 -4 18 -8 39 -9 58 -50 86 -142 96
-14 1 -41 -8 -60 -21 -42 -29 -44 -29 -44 -3 0 34 -18 58 -62 80 -48 24 -117
22 -147 -5 -19 -17 -51 -22 -51 -7 0 14 -67 52 -107 61 -43 10 -72 0 -124 -41
l-38 -30 -16 30 c-8 17 -25 37 -38 45 -32 21 -96 33 -139 26z m113 -55 c33
-13 49 -91 33 -152 -8 -27 -51 -43 -120 -43 -75 0 -107 29 -107 93 1 53 28
106 58 112 58 13 87 11 136 -10z m-316 -25 c44 -27 57 -44 61 -81 10 -80 -89
-155 -156 -119 -44 23 -74 112 -57 166 8 23 55 49 94 52 14 1 40 -7 58 -18z
m613 -14 c61 -60 2 -196 -84 -196 -52 0 -114 68 -114 127 0 23 38 70 75 91 30
18 96 6 123 -22z m-847 -42 c22 -21 29 -37 29 -65 0 -42 -18 -65 -67 -85 -47
-20 -69 -17 -103 14 -53 48 -46 137 13 162 37 16 97 4 128 -26z m1094 14 c14
-13 27 -36 29 -53 5 -40 -20 -100 -47 -112 -47 -22 -140 8 -153 49 -14 44 -6
78 22 101 55 44 109 49 149 15z m-1343 -85 c40 -39 39 -92 -3 -133 -32 -30
-42 -34 -89 -32 -70 3 -111 131 -57 174 43 34 108 30 149 -9z m1587 18 c40
-22 45 -110 8 -149 -46 -49 -94 -48 -149 6 -85 81 33 200 141 143z m-1832
-116 c37 -31 40 -38 38 -76 -3 -44 -31 -77 -67 -80 -10 -1 -24 -2 -30 -3 -25
-3 -70 29 -91 65 -26 44 -18 76 25 107 46 31 77 28 125 -13z m2052 20 c16 -8
34 -28 41 -44 17 -42 -11 -99 -61 -124 -35 -17 -39 -17 -78 -1 -48 19 -60 37
-55 79 4 41 20 68 52 87 34 21 66 22 101 3z m-976 -83 c24 -41 24 -97 1 -124
-25 -28 -72 -46 -109 -43 -16 2 -38 3 -47 4 -10 1 -32 13 -48 29 -25 21 -31
35 -32 68 -1 63 33 101 112 126 30 10 103 -26 123 -60z m-337 4 c30 -30 34
-40 34 -84 0 -40 -6 -57 -27 -82 -24 -29 -31 -32 -73 -28 -132 13 -167 142
-57 208 48 30 83 26 123 -14z m606 -3 c38 -36 52 -87 33 -123 -26 -50 -88 -77
-151 -66 -28 6 -38 14 -50 41 -30 73 -8 151 50 176 34 14 87 2 118 -28z
m-1539 -65 c31 -48 28 -79 -9 -118 -19 -19 -35 -25 -67 -25 -52 0 -73 18 -91
79 -12 40 -12 48 4 74 21 34 81 54 116 39 11 -5 33 -27 47 -49z m660 22 c52
-58 31 -172 -38 -205 -45 -21 -92 -8 -142 38 -58 53 -22 162 64 192 51 18 83
12 116 -25z m1146 12 c99 -73 83 -187 -30 -221 -77 -23 -139 33 -139 126 0
102 91 153 169 95z m666 -8 c29 -27 33 -73 9 -119 -26 -50 -73 -66 -122 -41
-59 30 -72 71 -40 127 37 67 101 81 153 33z m-2121 -104 c35 -19 60 -77 50
-115 -3 -12 -19 -35 -34 -50 -40 -38 -109 -40 -140 -5 -66 76 -59 130 25 181
32 20 48 18 99 -11z m1714 16 c41 -21 73 -60 76 -92 7 -60 -70 -131 -130 -120
-55 10 -102 83 -85 129 6 14 8 27 5 30 -9 8 72 60 104 66 2 1 15 -5 30 -13z
m-2274 -37 c77 -91 -37 -212 -137 -145 -62 42 -57 106 12 153 49 33 93 30 125
-8z m2864 11 c44 -27 69 -81 54 -114 -26 -57 -119 -80 -163 -41 -33 30 -49 74
-37 105 26 68 83 88 146 50z m-1411 -100 c10 0 53 -55 54 -68 1 -9 3 -27 4
-39 3 -26 -27 -97 -46 -108 -19 -12 -161 -14 -182 -3 -10 5 -27 28 -37 50 -27
62 -14 128 33 158 29 18 104 28 142 18 16 -4 31 -8 32 -8z m1133 -20 c40 -37
48 -75 24 -119 -49 -90 -186 -95 -228 -7 -29 60 4 122 78 147 58 20 88 15 126
-21z m-2272 10 c38 -23 66 -81 56 -113 -3 -12 -18 -34 -32 -49 -88 -94 -265 9
-208 121 31 60 120 80 184 41z m820 -31 c41 -26 60 -111 36 -161 -19 -36 -61
-68 -93 -68 -37 0 -85 32 -103 70 -50 103 66 217 160 159z m584 1 c16 -8 37
-32 49 -56 18 -37 19 -49 9 -78 -25 -76 -86 -111 -146 -83 -42 20 -65 55 -69
105 -8 98 70 153 157 112z m-1957 -5 c60 -25 70 -96 19 -143 -21 -20 -32 -23
-62 -18 -49 7 -85 45 -84 87 1 35 12 50 57 73 36 19 29 19 70 1z m3291 0 c36
-15 67 -65 56 -94 -10 -31 -46 -61 -78 -67 -37 -7 -68 7 -90 42 -25 38 -4 100
39 119 40 18 32 18 73 0z m-2198 -51 c47 -31 65 -111 37 -164 -36 -70 -148
-76 -211 -13 -23 23 -26 32 -20 71 7 55 27 87 67 111 34 21 91 19 127 -5z
m1158 5 c28 -10 62 -59 70 -98 15 -73 -42 -125 -135 -124 -46 0 -58 5 -77 27
-13 14 -26 45 -29 69 -9 60 14 103 68 127 40 18 53 18 103 -1z m-1940 -74 c39
-30 43 -58 18 -111 -30 -62 -104 -78 -164 -35 -29 20 -46 76 -36 115 16 64
117 81 182 31z m2748 11 c31 -20 42 -57 30 -104 -24 -94 -163 -105 -200 -17
-20 48 -18 70 9 99 38 43 114 53 161 22z m-2236 -51 c12 -15 22 -34 23 -43 1
-9 2 -30 4 -47 5 -62 -34 -108 -93 -111 -63 -3 -138 87 -126 152 7 38 21 54
68 75 47 21 90 12 124 -26z m1730 8 c25 -21 33 -37 34 -63 2 -71 -52 -140
-115 -145 -49 -4 -65 5 -86 47 -31 63 -12 149 39 175 43 22 92 16 128 -14z
m-2683 -24 c31 -28 35 -36 30 -63 -16 -79 -113 -115 -162 -61 -31 34 -23 91
17 128 39 35 71 34 115 -4z m3579 20 c46 -21 65 -111 31 -149 -22 -24 -81 -27
-113 -4 -22 15 -49 61 -47 79 3 29 18 52 42 67 33 21 53 22 87 7z m-3348 -126
c46 -30 57 -79 29 -133 -16 -32 -61 -60 -95 -60 -68 0 -130 63 -124 126 9 91
103 125 190 67z m419 24 c44 -15 84 -56 91 -94 5 -25 0 -43 -21 -78 -44 -76
-107 -83 -172 -18 -50 50 -65 90 -47 124 19 37 70 78 97 77 12 0 36 -5 52 -11z
m2258 2 c46 -24 77 -62 77 -94 0 -62 -85 -145 -149 -145 -43 0 -109 98 -97
145 8 33 46 76 80 91 38 16 61 17 89 3z m512 -36 c23 -34 23 -94 1 -128 -60
-91 -216 -51 -216 56 0 98 163 152 215 72z m-1621 21 c71 -49 74 -167 5 -208
-100 -59 -195 14 -174 135 8 42 11 47 48 69 35 22 93 23 121 4z m-293 -34 c4
0 18 -12 33 -26 61 -62 -7 -194 -100 -194 -39 0 -104 68 -104 109 0 75 64 135
129 120 20 -5 39 -9 42 -9z m579 0 c29 -15 60 -69 60 -103 0 -40 -27 -82 -66
-103 -68 -37 -151 22 -161 112 -2 19 0 42 5 50 23 42 118 67 162 44z m-2248
-28 c23 -13 28 -23 28 -54 0 -75 -74 -118 -137 -79 -68 42 -28 142 59 148 12
1 34 -5 50 -15z m3891 6 c82 -44 80 -124 -4 -150 -35 -10 -43 -9 -67 9 -15 11
-33 37 -40 59 -13 38 -12 40 18 67 33 29 59 34 93 15z m-2529 -32 c47 -20 76
-65 76 -118 -1 -69 -61 -126 -123 -114 -117 22 -149 176 -48 231 33 18 54 18
95 1z m1204 -20 c35 -34 41 -109 12 -154 -65 -104 -210 -59 -210 65 0 99 130
157 198 89z m-1929 -65 c22 -22 41 -50 43 -63 8 -55 -35 -107 -97 -115 -59 -8
-144 51 -139 97 0 8 2 23 2 34 1 10 18 34 38 52 52 50 100 48 153 -5z m2669
19 c39 -24 62 -73 55 -113 -13 -68 -127 -107 -190 -64 -57 39 -59 97 -5 155
45 49 86 55 140 22z m-3092 -61 c39 -43 -1 -150 -62 -165 -73 -18 -155 37
-150 102 7 90 149 132 212 63z m895 14 c61 -36 69 -113 18 -162 -59 -57 -139
-49 -184 17 -34 50 -32 91 6 129 43 45 101 51 160 16z m1701 18 c30 -11 74
-56 81 -81 7 -25 -30 -97 -59 -116 -61 -41 -139 -19 -172 48 -33 65 -4 124 73
147 40 12 50 13 77 2z m926 -4 c20 -1 72 -65 72 -90 -1 -55 -60 -107 -122
-107 -86 0 -142 101 -93 166 25 33 57 44 105 36 14 -2 31 -5 38 -5z m-3860
-65 c6 -9 12 -33 12 -53 0 -67 -73 -107 -133 -73 -39 22 -13 130 33 140 14 3
30 7 35 8 16 5 39 -5 53 -22z m4170 -8 c15 -18 22 -38 22 -68 0 -46 -7 -53
-63 -63 -40 -6 -87 43 -87 91 0 73 77 97 128 40z m-2064 -40 c51 -38 68 -118
37 -171 -44 -71 -213 -60 -242 15 -25 63 24 162 85 176 38 8 94 -2 120 -20z
m-1552 -34 c35 -34 40 -44 34 -70 -15 -78 -78 -114 -144 -83 -60 29 -78 83
-47 143 19 36 41 49 84 50 26 0 42 -9 73 -40z m3069 30 c32 -17 57 -80 47
-115 -12 -42 -63 -79 -105 -78 -47 1 -77 24 -93 72 -12 38 -11 43 11 75 13 19
33 39 44 45 27 13 72 13 96 1z m-1838 -49 c21 -12 38 -29 38 -37 1 -8 2 -20 3
-26 3 -21 -16 -71 -38 -100 -50 -69 -169 -32 -196 61 -29 101 91 165 193 102z
m634 11 c48 -26 61 -98 27 -150 -21 -33 -74 -62 -111 -62 -75 0 -139 134 -88
186 38 39 124 52 172 26z m-1466 -11 c56 -21 78 -103 43 -156 -16 -25 -69 -42
-109 -36 -61 9 -112 73 -97 123 22 75 82 100 163 69z m2265 -2 c62 -32 63
-127 3 -170 -46 -33 -136 -25 -164 14 -23 33 -19 101 8 131 36 40 103 51 153
25z m-3065 -58 c33 -33 36 -64 14 -118 -19 -45 -41 -62 -82 -63 -79 0 -117 33
-116 102 2 57 20 84 67 97 58 17 86 13 117 -18z m1315 8 c15 -8 36 -27 45 -44
15 -26 16 -35 5 -67 -14 -40 -27 -55 -68 -82 -60 -39 -148 12 -148 85 0 102
76 151 166 108z m1244 -9 c33 -30 53 -92 40 -123 -13 -34 -54 -67 -91 -73 -25
-4 -43 0 -69 18 -88 60 -80 163 15 196 45 15 75 10 105 -18z m1315 16 c41 -18
57 -45 58 -102 1 -46 -12 -64 -61 -84 -70 -29 -134 6 -146 81 -15 94 56 144
149 105z m-4177 -27 c34 -12 43 -28 47 -81 3 -42 -25 -77 -66 -80 -33 -3 -86
20 -93 39 -10 26 13 91 41 112 30 24 30 24 71 10z m4440 -25 c24 -28 30 -44
27 -72 -5 -52 -59 -79 -114 -56 -39 16 -56 56 -44 104 6 28 15 37 43 47 51 17
56 16 88 -23z m-3899 -55 c32 -30 41 -62 30 -103 -10 -35 -58 -85 -85 -87 -8
-1 -20 -2 -27 -3 -21 -2 -84 54 -98 85 -35 86 110 173 180 108z m3400 6 c27
-14 61 -68 61 -98 0 -18 -75 -97 -92 -98 -7 0 -20 -2 -29 -4 -26 -5 -87 52
-98 91 -25 90 69 155 158 109z m-3044 -29 c32 -21 48 -60 40 -96 -8 -38 -55
-79 -90 -81 -60 -4 -77 2 -107 31 -25 25 -29 36 -26 68 6 44 24 77 53 91 27
15 99 7 130 -13z m460 2 c52 -26 68 -78 39 -128 -17 -29 -68 -64 -94 -65 -23
-1 -83 30 -105 55 -23 25 -25 91 -4 116 33 40 107 50 164 22z m1782 -3 c34
-22 46 -60 33 -100 -13 -41 -38 -63 -87 -80 -33 -11 -42 -11 -74 5 -37 19 -69
70 -69 108 0 10 12 31 26 46 45 45 120 54 171 21z m474 -6 c41 -55 31 -137
-19 -158 -69 -29 -123 -16 -162 38 -52 75 14 156 119 147 32 -3 49 -11 62 -27z
m-1377 -50 c60 -48 79 -159 35 -210 -17 -19 -30 -24 -82 -25 -75 -1 -113 15
-121 53 -13 61 -13 70 0 108 27 82 111 119 168 74z m-276 -54 c36 -39 42 -82
18 -138 -18 -43 -44 -64 -87 -71 -43 -7 -75 14 -109 70 -28 44 -22 85 20 136
47 57 106 58 158 3z m590 -2 c55 -63 55 -108 -2 -170 -28 -31 -40 -37 -74 -37
-51 0 -85 29 -106 90 -14 40 -13 46 7 86 25 48 76 80 117 73 14 -2 40 -21 58
-42z m-2642 14 c17 -17 20 -77 6 -107 -14 -30 -18 -32 -54 -27 -21 3 -45 11
-53 17 -29 24 -11 100 29 118 21 10 62 9 72 -1z m242 -6 c31 -16 35 -56 13
-107 -33 -75 -102 -89 -161 -34 -37 35 -38 68 -5 108 37 44 106 58 153 33z
m4155 4 c32 -9 77 -58 77 -86 0 -67 -99 -114 -156 -75 -11 8 -29 33 -39 55
-15 34 -16 45 -5 70 7 17 23 34 39 39 27 9 35 9 84 -3z m231 -16 c29 -34 34
-80 12 -98 -8 -7 -30 -15 -49 -18 -29 -4 -38 -1 -50 18 -25 39 -26 89 -1 113
25 25 59 19 88 -15z m-1211 -8 c34 -2 67 -47 67 -91 0 -60 -41 -100 -103 -100
-38 0 -49 5 -71 31 -30 35 -34 78 -10 118 17 28 57 50 84 45 8 -1 23 -3 33 -3z
m-2202 -14 c46 -35 51 -101 13 -147 -22 -26 -33 -31 -63 -29 -52 4 -91 26
-106 61 -16 38 -5 85 26 111 25 20 105 23 130 4z m526 -28 c41 -15 67 -56 69
-107 1 -58 -10 -84 -46 -105 -65 -39 -163 -6 -184 60 -14 45 -15 66 -2 97 29
69 80 86 163 55z m1190 -11 c46 -43 50 -117 8 -169 -39 -49 -95 -64 -152 -40
-66 27 -83 138 -30 191 52 52 129 60 174 18z m-2462 -8 c33 -31 41 -74 20
-119 -18 -42 -40 -58 -86 -66 -60 -11 -122 37 -122 94 0 41 32 99 61 110 40
15 101 6 127 -19z m3737 12 c31 -18 58 -76 51 -111 -5 -29 -33 -69 -53 -75
-77 -26 -130 -6 -155 56 -21 53 -19 72 10 107 35 41 99 51 147 23z m-3406 -18
c42 -28 28 -109 -26 -151 -38 -30 -144 -1 -161 44 -13 34 12 88 53 113 37 24
92 21 134 -6z m3090 -5 c36 -33 48 -88 26 -113 -9 -12 -17 -22 -17 -23 -1 -1
-17 -9 -36 -16 -72 -29 -149 22 -149 100 0 42 2 45 43 64 51 24 100 19 133
-12z m-3964 -144 c-7 -38 -46 -61 -77 -47 -39 18 -30 83 16 108 22 12 26 11
45 -10 15 -17 20 -33 16 -51z m4757 56 c30 -26 37 -87 12 -101 -31 -16 -69 4
-80 42 -8 29 -6 36 16 56 29 27 25 26 52 3z m-3661 -12 c50 -31 52 -92 6 -142
-62 -67 -168 -3 -154 93 7 55 93 83 148 49z m446 7 c47 -20 76 -61 76 -109 0
-34 -6 -46 -40 -79 -40 -37 -58 -44 -110 -39 -42 4 -99 71 -95 111 1 8 3 26 3
39 1 12 17 38 36 57 38 38 74 44 130 20z m1729 -13 c34 -36 49 -100 32 -139
-15 -34 -51 -69 -83 -79 -54 -16 -132 39 -150 107 -9 31 -7 41 13 71 47 69
141 88 188 40z m445 -6 c53 -60 17 -143 -66 -154 -31 -4 -42 0 -65 22 -15 15
-28 33 -29 39 -10 72 10 105 68 115 50 9 68 4 92 -22z m-3537 -26 c59 -59 19
-145 -63 -135 -43 4 -88 41 -88 70 0 86 91 125 151 65z m4434 21 c22 -16 37
-44 42 -76 4 -32 1 -37 -36 -60 -45 -29 -62 -31 -94 -14 -55 29 -63 84 -18
129 29 29 82 39 106 21z m-2209 -47 c37 -15 59 -53 67 -115 8 -67 -33 -108
-113 -112 -68 -3 -91 2 -115 27 -32 31 -35 114 -5 162 29 49 101 65 166 38z
m-1722 -16 c36 -17 50 -95 23 -130 -33 -43 -111 -52 -158 -18 -86 61 34 194
135 148z m3416 -1 c45 -23 70 -59 70 -101 0 -36 -31 -58 -91 -64 -49 -5 -56
-3 -81 22 -35 35 -39 97 -9 129 23 25 76 31 111 14z m-3691 -47 c30 -42 27
-86 -9 -122 -25 -26 -35 -29 -71 -25 -49 6 -88 30 -91 54 0 9 -2 24 -3 32 -5
50 35 95 91 102 37 5 58 -5 83 -41z m1724 9 c31 -35 35 -80 13 -135 -15 -36
-53 -61 -106 -70 -27 -5 -37 -1 -66 30 -19 21 -35 48 -36 63 -4 86 18 124 81
140 52 13 82 5 114 -28z m566 15 c37 -19 50 -36 53 -71 6 -76 -28 -138 -83
-147 -39 -7 -105 26 -124 62 -31 62 -12 145 39 169 26 12 79 6 115 -13z m1726
-8 c31 -32 41 -93 20 -127 -3 -6 -20 -17 -37 -26 -63 -33 -148 10 -148 75 0
34 34 90 62 100 28 10 82 -2 103 -22z m-4494 -37 c44 -24 4 -108 -43 -91 -30
11 -38 69 -12 88 22 16 30 16 55 3z m968 -1 c18 -6 38 -24 46 -40 14 -25 14
-33 1 -63 -17 -41 -48 -60 -95 -58 -51 2 -81 26 -81 65 0 50 27 80 96 107 1 0
15 -5 33 -11z m3003 -31 c26 -35 24 -94 -6 -113 -29 -19 -84 -22 -114 -6 -65
34 -57 143 11 153 39 6 90 -10 109 -34z m909 32 c13 -7 19 -21 19 -45 0 -35
-7 -44 -40 -50 -40 -8 -68 73 -32 94 22 13 29 13 53 1z m-3535 -14 c88 -20
100 -122 24 -191 -32 -29 -99 -25 -150 9 -63 41 -66 96 -10 153 38 39 67 45
136 29z m2259 -12 c26 -17 55 -71 55 -104 0 -30 -49 -76 -98 -91 -33 -9 -47
-9 -72 1 -68 28 -106 125 -65 170 42 47 128 58 180 24z m-1711 -18 c45 -19 79
-75 73 -122 -9 -67 -77 -105 -136 -76 -36 17 -69 54 -77 87 -9 36 20 89 57
108 42 20 42 20 83 3z m1120 0 c21 -9 39 -27 50 -51 16 -33 16 -41 4 -73 -41
-109 -190 -106 -204 3 -9 63 33 113 114 134 1 1 17 -5 36 -13z m-2859 -30 c13
-13 27 -36 31 -50 8 -33 -13 -86 -35 -87 -9 0 -27 -3 -41 -5 -35 -6 -80 15
-91 43 -10 27 7 77 35 106 25 25 72 21 101 -7z m4620 8 c23 -24 41 -66 39 -92
-2 -36 -25 -52 -77 -56 -39 -4 -53 0 -74 18 -23 20 -25 27 -19 60 14 72 89
112 131 70z m-4119 -120 c9 -36 -3 -85 -29 -117 -17 -22 -34 -30 -67 -34 -54
-6 -88 16 -96 61 -6 36 28 109 59 124 57 29 122 12 133 -34z m1015 29 c90 -54
39 -213 -63 -199 -47 7 -71 22 -92 57 -22 38 -20 77 7 116 35 52 88 61 148 26z
m1594 13 c11 -3 30 -21 43 -39 40 -60 25 -121 -40 -157 -48 -27 -94 -21 -129
16 -19 20 -24 36 -24 79 0 58 10 72 70 100 29 14 36 14 80 1z m1087 -63 c9
-21 14 -49 13 -63 -2 -14 -4 -28 -4 -32 -2 -13 -59 -38 -88 -38 -71 1 -131
117 -90 174 38 52 143 27 169 -41z m599 39 c0 -4 2 -16 4 -26 10 -53 -41 -71
-75 -26 -21 28 -16 54 13 68 21 9 56 0 58 -16z m-4997 3 c16 -17 12 -39 -12
-67 -32 -38 -81 -4 -66 45 12 39 50 49 78 22z m400 -5 c14 -5 32 -20 41 -34
33 -49 -20 -126 -87 -126 -38 0 -86 35 -90 67 -4 33 15 78 39 92 23 13 65 14
97 1z m4235 -16 c13 -16 21 -41 21 -65 0 -92 -134 -109 -175 -22 -29 60 9 107
88 111 38 2 48 -1 66 -24z m-3430 -22 c35 -26 53 -88 35 -123 -19 -37 -71 -79
-99 -79 -69 0 -141 70 -130 126 2 11 4 22 4 25 2 12 56 61 76 69 31 12 85 4
114 -18z m2634 13 c66 -32 90 -102 53 -153 -61 -87 -161 -80 -207 15 -20 42
-20 44 -2 80 18 38 69 73 106 73 11 0 33 -7 50 -15z m-2936 -17 c21 -17 12
-94 -15 -120 -28 -28 -90 -27 -114 2 -33 41 -21 102 27 129 23 13 80 7 102
-11z m1604 12 c24 -13 45 -54 53 -101 4 -28 0 -45 -17 -70 -22 -32 -26 -34
-82 -34 -56 0 -60 2 -82 33 -39 58 -19 142 40 167 39 17 62 18 88 5z m1641
-20 c24 -30 23 -92 -1 -114 -29 -26 -79 -26 -109 -1 -21 18 -26 32 -26 71 -1
41 2 50 24 61 34 18 91 9 112 -17z m-1907 -39 c40 -23 59 -85 37 -123 -22 -38
-86 -72 -124 -64 -89 18 -114 159 -35 199 36 18 76 14 122 -12z m543 20 c8 -1
26 -14 42 -30 24 -23 28 -34 23 -62 -17 -110 -76 -145 -159 -95 -65 39 -74
104 -23 155 28 28 57 40 89 35 8 -1 21 -3 28 -3z m-2660 -25 c27 -9 54 -57 48
-88 -3 -13 -5 -26 -5 -30 -1 -5 -10 -17 -21 -28 -26 -26 -70 -25 -105 2 -25
19 -27 26 -23 70 8 74 38 96 106 74z m4770 -29 c12 -26 17 -50 13 -70 -15 -73
-119 -90 -146 -24 -29 72 8 129 89 133 20 2 29 -6 44 -39z m-3425 -3 c61 -19
86 -100 48 -157 -38 -58 -91 -74 -148 -44 -51 27 -76 66 -70 110 6 47 21 65
71 88 38 17 54 17 99 3z m2084 -1 c41 -19 73 -66 73 -105 0 -54 -97 -125 -152
-110 -29 7 -77 60 -87 95 -15 55 30 116 94 130 34 8 36 7 72 -10z m-3591 -27
c7 -31 -12 -68 -34 -64 -10 2 -18 15 -20 31 -6 51 42 80 54 33z m5042 12 c7
-7 12 -27 12 -44 0 -27 -4 -32 -21 -31 -26 2 -43 32 -35 63 7 26 25 31 44 12z
m-1902 -39 c32 -30 25 -93 -15 -132 -23 -24 -37 -29 -72 -29 -81 1 -125 63
-96 134 27 65 127 80 183 27z m-1147 20 c31 -11 61 -52 61 -84 0 -31 -32 -77
-62 -90 -58 -24 -113 -2 -144 57 -44 84 41 153 145 117z m-1639 -44 c32 -10
40 -22 40 -62 0 -73 -94 -116 -140 -63 -28 32 -26 85 4 115 24 24 46 26 96 10z
m209 4 c38 -13 51 -35 51 -84 0 -49 -36 -85 -80 -80 -71 9 -106 101 -58 152
24 26 41 28 87 12z m3958 -10 c42 -40 25 -120 -32 -146 -11 -5 -26 -8 -32 -7
-7 1 -20 2 -28 3 -19 1 -54 57 -50 79 2 10 4 23 4 30 2 23 48 58 82 60 22 2
40 -4 56 -19z m215 2 c28 -22 36 -85 15 -113 -51 -66 -147 -25 -147 63 0 38
18 54 70 62 14 2 28 5 31 6 4 0 17 -8 31 -18z m-3921 -36 c5 -59 0 -84 -23
-105 -60 -56 -137 6 -100 81 27 54 119 72 123 24z m3460 15 c29 -16 47 -60 38
-94 -10 -34 -24 -46 -60 -46 -50 0 -93 84 -67 133 10 19 58 23 89 7z m-3239
-11 c74 -34 84 -146 16 -193 -85 -60 -217 45 -170 134 32 59 99 85 154 59z
m3028 -4 c77 -40 79 -154 5 -190 -68 -31 -130 -14 -161 46 -27 54 -6 113 52
144 37 19 67 19 104 0z m-2285 -52 c8 -10 15 -20 15 -23 8 -34 6 -49 -10 -81
-22 -41 -70 -64 -113 -54 -62 16 -98 107 -60 153 34 43 138 46 168 5z m1597 9
c10 -10 21 -37 24 -60 4 -35 0 -46 -25 -74 -25 -28 -35 -32 -76 -32 -27 1 -53
7 -61 16 -26 26 -43 88 -32 119 18 52 129 72 170 31z m-3394 -14 c3 -22 -2
-29 -22 -34 -44 -11 -62 19 -30 51 23 23 48 15 52 -17z m5092 11 c16 -29 5
-49 -24 -49 -19 0 -27 7 -32 24 -3 14 -3 30 1 35 11 18 44 12 55 -10z m-4931
-33 c8 -10 15 -39 15 -63 1 -36 -4 -49 -23 -64 -52 -42 -111 -15 -118 55 -5
38 -2 48 21 71 31 31 83 32 105 1z m4818 -2 c22 -22 25 -32 20 -72 -3 -28 -12
-51 -23 -59 -29 -21 -72 -16 -100 12 -22 22 -25 32 -20 65 8 59 25 80 64 80
22 0 41 -8 59 -26z m-3614 -22 c38 -36 34 -78 -12 -123 -25 -26 -48 -39 -65
-39 -107 0 -151 107 -69 169 36 28 113 24 146 -7z m2460 -1 c50 -46 41 -117
-18 -146 -60 -28 -106 -15 -143 39 -29 43 -28 68 6 104 25 27 34 30 80 28 38
-1 57 -8 75 -25z m-3507 -50 c16 -1 33 -45 30 -76 -6 -51 -71 -89 -107 -62
-28 21 -37 48 -28 81 11 39 40 64 71 60 12 -1 28 -3 34 -3z m2667 -32 c41 -50
1 -133 -64 -131 -73 2 -104 89 -50 142 26 26 32 28 62 20 19 -5 42 -19 52 -31z
m1813 20 c7 -5 17 -23 22 -38 13 -37 -10 -87 -45 -96 -46 -11 -97 42 -88 91 2
11 4 22 4 26 4 32 75 44 107 17z m-4816 -34 c0 -36 -11 -55 -31 -55 -26 0 -31
59 -7 87 15 18 38 -2 38 -32z m567 18 c7 -9 13 -31 13 -49 0 -39 -29 -64 -76
-64 -46 0 -64 9 -75 37 -11 29 13 89 39 97 30 8 87 -3 99 -21z m199 -29 c14
-56 -37 -105 -88 -85 -48 18 -45 111 4 130 31 12 76 -12 84 -45z m1415 43 c40
-30 36 -116 -7 -135 -28 -13 -73 -15 -90 -4 -6 4 -16 17 -23 29 -30 57 6 123
67 123 20 0 44 -6 53 -13z m466 -21 c31 -17 61 -45 83 -77 29 -43 34 -60 36
-116 4 -101 -40 -179 -125 -223 -110 -56 -232 -21 -303 85 -30 46 -33 57 -33
125 0 84 13 116 67 168 75 74 182 88 275 38z m1762 10 c17 -21 20 -83 5 -104
-29 -42 -114 -3 -114 52 0 56 76 92 109 52z m211 2 c19 -18 23 -28 23 -63 0
-31 -4 -36 -35 -49 -58 -25 -118 6 -118 60 0 65 81 98 130 52z m504 -42 c-10
-33 -21 -41 -39 -26 -18 15 -20 61 -2 79 17 17 50 -24 41 -53z m-3524 4 c15
-28 12 -83 -5 -107 -8 -12 -31 -27 -50 -33 -83 -27 -146 70 -92 143 28 40 126
37 147 -3z m2014 7 c24 -24 29 -61 13 -100 -28 -66 -120 -69 -153 -6 -15 30
-18 67 -8 94 16 41 111 49 148 12z m-2631 -59 c33 -38 18 -98 -31 -121 -30
-14 -42 -14 -90 -3 -77 18 -69 133 11 154 39 10 85 -2 110 -30z m3260 1 c19
-23 22 -70 7 -99 -13 -24 -54 -35 -115 -31 -28 2 -65 52 -65 87 0 34 32 67 75
76 31 7 78 -9 98 -33z m-4099 -48 c12 -22 12 -30 0 -52 -27 -54 -87 -40 -96
23 -4 25 0 33 25 48 35 22 53 17 71 -19z m4864 16 c21 -16 15 -74 -10 -91 -28
-20 -30 -20 -56 4 -27 26 -28 64 -2 90 19 19 40 18 68 -3z m-3788 -12 c24 -22
26 -55 5 -95 -31 -59 -145 -57 -173 4 -13 28 11 89 41 104 31 16 103 8 127
-13z m2747 15 c47 -17 69 -85 40 -124 -16 -22 -74 -35 -114 -24 -77 20 -86
124 -13 151 24 9 55 8 87 -3z m-3979 -22 c20 -20 15 -58 -7 -58 -19 0 -51 24
-51 39 0 11 23 31 35 31 6 0 16 -5 23 -12z m5145 -7 c7 -27 -11 -51 -38 -51
-19 0 -25 5 -25 23 0 43 52 67 63 28z m-4825 -33 c18 -18 15 -83 -5 -106 -38
-43 -90 -33 -93 18 -4 46 0 60 20 80 22 22 60 26 78 8z m207 -8 c21 -17 19
-70 -4 -99 -39 -51 -127 -14 -117 48 2 14 5 29 5 33 2 13 55 36 78 33 12 -1
29 -8 38 -15z m1420 12 c36 -3 100 -64 113 -110 25 -83 -3 -164 -68 -201 -116
-65 -247 -10 -267 112 -11 67 1 110 44 151 37 35 84 54 126 51 15 -1 38 -2 52
-3z m1346 -18 c69 -41 101 -150 65 -226 -10 -20 -36 -49 -58 -65 -57 -39 -147
-40 -201 -3 -64 43 -93 142 -63 213 14 36 63 79 106 95 39 15 114 7 151 -14z
m1371 5 c10 -5 19 -15 19 -22 1 -7 3 -22 4 -35 1 -12 -5 -31 -14 -41 -41 -48
-121 -14 -121 51 0 56 53 79 112 47z m188 1 c41 -41 23 -130 -27 -130 -8 0
-25 11 -38 25 -27 27 -35 91 -13 113 18 18 56 14 78 -8z m-4144 -18 c21 -43
-13 -112 -56 -112 -53 0 -79 81 -39 121 27 27 79 23 95 -9z m3774 8 c39 -39
12 -120 -40 -120 -23 0 -59 33 -61 55 -1 8 -2 21 -3 28 -1 6 4 22 12 35 18 28
65 29 92 2z m-3048 -20 c24 -30 8 -98 -31 -127 -23 -17 -90 -8 -106 14 -28 36
-22 81 15 115 23 22 36 26 67 22 21 -2 45 -13 55 -24z m2350 3 c24 -22 37 -73
25 -100 -5 -12 -22 -27 -38 -33 -70 -29 -137 34 -119 110 12 49 89 62 132 23z
m-3781 -43 c5 -40 3 -45 -21 -45 -28 0 -41 32 -18 46 18 12 38 11 39 -1z
m5127 1 c19 -12 11 -45 -12 -49 -25 -5 -37 9 -30 36 7 23 20 27 42 13z m-4233
-26 c28 -27 30 -42 14 -79 -13 -28 -64 -56 -102 -56 -67 0 -78 124 -14 150 40
16 77 11 102 -15z m3398 13 c33 -17 46 -39 47 -75 0 -38 -29 -73 -61 -73 -34
0 -85 29 -97 55 -32 69 42 130 111 93z m-4162 -18 c14 -8 19 -21 19 -49 0 -35
-4 -40 -31 -50 -35 -12 -68 0 -70 24 -1 8 -2 21 -3 28 -3 16 34 57 51 57 8 0
23 -5 34 -10z m4885 2 c36 -24 38 -79 2 -101 -27 -17 -75 2 -80 32 -9 50 41
94 78 69z m-915 -41 c35 -37 33 -104 -4 -116 -60 -21 -127 14 -127 64 0 34 9
47 43 64 32 17 64 12 88 -12z m-2997 -3 c21 -30 20 -60 -4 -90 -26 -33 -72
-40 -110 -16 -34 20 -38 44 -15 88 17 33 27 38 77 39 27 1 41 -5 52 -21z
m-1105 -42 c9 -11 10 -20 1 -35 -21 -40 -57 -20 -46 25 7 27 27 31 45 10z
m476 3 c14 -21 16 -71 4 -85 -12 -15 -56 -19 -75 -6 -6 4 -16 17 -23 30 -10
19 -8 26 13 47 26 26 70 33 81 14z m1123 -16 c27 -36 -1 -93 -46 -93 -35 0
-49 10 -61 43 -9 24 -8 31 15 53 19 20 31 24 52 19 15 -3 33 -13 40 -22z
m1979 12 c29 -20 34 -60 11 -85 -51 -54 -142 14 -95 72 23 29 54 34 84 13z
m1124 -11 c14 -13 15 -21 7 -45 -10 -29 -39 -44 -75 -37 -26 5 -39 51 -24 84
10 23 16 26 43 20 18 -3 39 -13 49 -22z m437 -5 c4 -32 -24 -47 -46 -26 -11
12 -12 19 -2 36 15 29 44 23 48 -10z m-4814 2 c8 -7 14 -23 12 -35 -3 -11 -5
-24 -5 -28 -2 -16 -45 -47 -62 -45 -28 5 -49 28 -49 56 0 34 10 48 40 59 31
11 43 10 64 -7z m4536 -18 c18 -23 18 -28 5 -53 -8 -15 -21 -30 -30 -34 -23
-8 -61 13 -74 41 -15 33 -14 40 8 62 24 24 65 17 91 -16z m-924 -10 c20 -25
10 -84 -16 -105 -29 -23 -57 -23 -98 2 -31 19 -33 24 -30 68 3 44 5 48 38 58
40 13 86 3 106 -23z m-2655 17 c14 -8 19 -21 19 -55 0 -40 -4 -48 -32 -65 -44
-26 -74 -25 -103 4 -18 19 -23 32 -20 62 2 22 11 44 21 51 21 16 88 17 115 3z
m-641 -15 c15 -18 6 -61 -14 -68 -23 -9 -55 4 -61 24 -15 45 45 80 75 44z
m3877 3 c15 -20 12 -46 -9 -65 -39 -35 -94 27 -56 65 16 16 53 15 65 0z
m-4376 -67 c0 -3 2 -16 5 -29 9 -51 -36 -81 -70 -46 -20 20 -21 68 -1 88 13
12 21 13 40 4 14 -6 25 -14 26 -17z m4885 -7 c10 -39 -4 -73 -31 -80 -32 -8
-55 11 -55 45 0 31 8 44 34 58 26 14 45 6 52 -23z m-4206 -7 c29 -24 26 -71
-7 -106 -42 -45 -85 -46 -108 -1 -22 43 -18 69 16 101 35 32 66 34 99 6z
m3551 -8 c73 -68 -11 -171 -89 -111 -34 26 -41 93 -13 119 29 27 68 24 102 -8z
m-3359 -18 c24 -30 23 -62 -2 -89 -21 -23 -30 -26 -65 -23 -65 6 -65 107 0
131 29 11 46 6 67 -19z m3158 0 c23 -22 28 -35 24 -57 -11 -60 -72 -77 -114
-32 -35 38 -21 92 30 111 26 9 31 8 60 -22z m-1986 -43 c9 -29 18 -75 21 -103
4 -27 8 -57 10 -65 2 -8 7 -42 10 -75 4 -33 8 -71 11 -85 11 -70 15 -114 10
-109 -4 4 -8 15 -10 25 -2 11 -7 39 -12 64 -10 56 -7 46 -26 110 -25 86 -58
233 -58 256 0 22 8 34 21 34 5 0 15 -24 23 -52z m763 36 c6 -15 -11 -97 -67
-338 -37 -158 -55 -186 -26 -41 2 11 7 56 10 100 4 44 9 87 11 95 2 8 6 33 10
55 9 63 35 145 46 145 5 0 12 -7 16 -16z m-2498 -26 c11 -30 -14 -81 -37 -76
-9 2 -21 15 -26 30 -17 49 45 94 63 46z m4245 3 c21 -23 18 -60 -7 -75 -15 -9
-21 -7 -33 8 -14 20 -19 68 -7 79 12 12 29 7 47 -12z m-4074 -20 c21 -40 -40
-90 -75 -61 -17 14 -12 60 9 76 21 15 54 7 66 -15z m3920 14 c28 -34 14 -85
-23 -85 -31 0 -47 18 -47 52 0 20 7 31 23 38 31 12 33 12 47 -5z m-4235 -35
c14 -64 -31 -104 -67 -60 -29 35 -6 90 37 90 18 0 25 -7 30 -30z m4543 18 c21
-28 22 -54 2 -76 -26 -28 -36 -28 -56 3 -23 35 -11 85 21 85 12 0 27 -6 33
-12z m-3664 -51 c8 -44 1 -61 -30 -76 -59 -26 -110 43 -67 91 42 47 87 40 97
-15z m2815 22 c12 -11 21 -32 21 -48 0 -48 -43 -69 -92 -45 -23 12 -26 19 -24
56 5 66 47 82 95 37z m-2354 -23 c34 -24 76 -65 154 -151 37 -40 70 -93 103
-162 26 -57 48 -105 48 -108 0 -2 11 -28 24 -57 13 -29 36 -91 49 -138 14 -47
41 -131 61 -187 32 -92 62 -221 72 -310 8 -66 21 -151 29 -189 10 -48 17 -262
8 -267 -5 -3 -9 2 -9 11 -2 79 -16 238 -24 282 -6 30 -13 73 -16 94 -3 22 -7
43 -10 48 -3 4 -13 49 -24 100 -10 51 -25 116 -33 143 -16 54 -122 298 -165
380 -40 76 -240 413 -283 477 -53 78 -52 81 16 34z m1849 22 c-4 -7 -17 -26
-29 -43 -12 -16 -39 -61 -60 -100 -22 -38 -43 -71 -47 -73 -4 -2 -8 -8 -8 -13
0 -5 -22 -46 -50 -90 -27 -44 -50 -84 -50 -89 0 -5 -4 -10 -8 -12 -24 -9 -238
-479 -228 -503 2 -7 0 -17 -5 -22 -5 -5 -18 -49 -28 -98 -11 -50 -25 -108 -30
-130 -5 -22 -13 -67 -16 -100 -4 -33 -9 -63 -11 -66 -3 -6 -12 -121 -17 -211
-1 -25 -5 -44 -8 -42 -9 5 -1 237 11 302 5 31 12 77 16 102 5 40 16 110 30
187 14 79 120 408 170 533 81 197 119 257 251 385 81 79 137 118 117 83z
m-1196 -76 c36 -99 41 -133 47 -287 7 -154 7 -631 1 -710 -6 -78 -16 -181 -21
-207 -3 -13 -7 -52 -10 -88 -7 -81 -14 -142 -29 -264 -7 -48 -26 -116 -32
-116 -4 0 -3 17 1 37 4 21 9 58 10 83 4 44 13 134 21 195 5 41 16 152 20 200
3 49 17 433 18 495 0 57 -14 305 -20 345 -2 17 -6 50 -8 75 -3 25 -7 61 -10
80 -3 19 -8 58 -10 85 -3 28 -8 75 -12 105 -8 68 2 60 34 -28z m527 51 c-2
-16 -6 -59 -10 -96 -3 -37 -8 -77 -10 -88 -2 -11 -7 -52 -10 -92 -3 -39 -8
-83 -10 -97 -8 -49 -18 -237 -19 -325 0 -94 13 -448 18 -500 2 -16 7 -66 11
-110 3 -44 9 -93 11 -110 2 -16 6 -59 9 -95 6 -65 14 -145 20 -187 2 -13 -1
-23 -6 -23 -5 0 -9 10 -10 23 0 12 -2 31 -5 42 -7 34 -33 227 -38 290 -3 33
-8 71 -10 85 -19 110 -27 298 -27 630 0 394 8 495 50 593 12 27 21 57 21 68 0
10 4 19 9 19 5 0 7 -12 6 -27z m-2669 -28 c8 -33 2 -56 -18 -69 -44 -27 -76
41 -38 81 24 26 48 21 56 -12z m4852 -34 c-4 -32 -32 -50 -55 -35 -32 20 -29
89 5 97 23 5 53 -32 50 -62z m-4570 -8 c18 -34 -1 -72 -36 -73 -7 0 -18 11
-24 25 -9 21 -8 28 7 45 22 25 41 26 53 3z m4260 9 c18 -12 23 -47 8 -67 -15
-20 -55 -12 -57 11 -1 8 -2 20 -3 27 -5 29 25 45 52 29z m-3922 -31 c14 -28 1
-77 -25 -89 -15 -8 -24 -8 -57 -4 -19 3 -32 45 -22 72 19 54 82 66 104 21z
m176 11 c30 -30 -1 -92 -45 -92 -31 0 -47 18 -47 51 0 45 61 72 92 41z m1119
-29 c62 -144 87 -245 103 -413 24 -240 28 -311 16 -275 -11 32 -15 54 -25 125
-4 24 -8 47 -11 51 -2 3 -6 25 -9 49 -10 83 -74 379 -99 463 -8 26 -10 47 -5
47 5 0 19 -21 30 -47z m962 -34 c-12 -45 -25 -93 -28 -107 -4 -24 -19 -98 -31
-152 -3 -14 -7 -36 -9 -50 -2 -14 -11 -65 -20 -115 -9 -49 -19 -108 -22 -129
-3 -22 -11 -58 -19 -80 l-13 -41 5 55 c4 58 11 139 19 243 7 89 14 134 31 202
17 71 72 225 87 243 22 28 23 7 0 -69z m1183 60 c17 -14 18 -61 2 -77 -29 -29
-83 -2 -93 46 -8 41 54 62 91 31z m182 1 c45 -42 23 -116 -32 -105 -12 2 -24
4 -28 4 -4 1 -14 13 -21 29 -34 68 27 122 81 72z m-4100 -32 c22 -22 14 -67
-13 -80 -31 -14 -41 -5 -49 44 -5 29 -2 38 12 41 30 8 38 7 50 -5z m4550 3 c9
-5 11 -19 7 -42 -8 -46 -19 -55 -50 -41 -18 8 -25 19 -25 40 0 44 33 65 68 43z
m-3750 -20 c7 -1 17 -13 23 -27 22 -60 -59 -104 -95 -52 -9 12 -16 28 -16 35
0 21 37 52 57 48 10 -2 24 -4 31 -4z m2961 -12 c24 -23 21 -54 -7 -76 -36 -29
-100 5 -88 45 17 52 57 66 95 31z m-1464 -105 c4 -49 8 -114 10 -144 12 -192
16 -252 21 -305 6 -70 13 -130 19 -165 2 -14 7 -43 10 -65 5 -40 7 -61 20
-165 10 -86 20 -146 51 -295 3 -16 10 -52 14 -78 5 -26 12 -57 15 -68 4 -12 8
-31 10 -42 3 -27 11 -67 29 -154 8 -37 13 -69 12 -71 -7 -6 -46 119 -67 213
-17 77 -17 77 -29 130 -14 61 -18 81 -25 120 -3 17 -7 44 -10 60 -3 17 -9 57
-15 90 -5 33 -11 71 -14 85 -2 14 -7 52 -11 85 -3 33 -8 67 -10 75 -2 8 -6 33
-10 55 -3 22 -8 54 -10 70 -3 17 -7 62 -10 100 -3 39 -7 81 -10 95 -14 63 -13
481 1 467 2 -1 6 -43 9 -93z m-2435 71 c10 -12 10 -21 2 -41 -10 -20 -15 -23
-31 -15 -26 15 -33 38 -15 56 19 19 28 19 44 0z m4811 -1 c25 -23 13 -56 -20
-52 -29 3 -40 31 -21 53 16 19 19 19 41 -1z m-2456 -206 c-2 -112 -6 -213 -9
-225 -2 -12 -7 -55 -11 -95 -3 -40 -7 -84 -9 -98 -2 -14 -7 -50 -11 -80 -4
-30 -8 -57 -10 -60 -2 -3 -6 -41 -10 -85 -4 -44 -9 -83 -12 -87 -5 -9 -8 -26
-17 -93 -4 -27 -30 -149 -58 -270 -28 -121 -54 -236 -58 -255 -3 -20 -12 -44
-19 -55 -11 -19 -12 -19 -6 2 4 13 8 35 11 50 3 16 7 36 10 45 3 9 7 27 9 40
3 13 16 79 30 148 25 130 35 181 40 215 6 37 26 160 30 185 3 14 7 50 10 80 3
30 8 69 10 85 5 39 15 122 20 160 16 125 31 327 40 514 4 85 5 92 14 87 5 -3
7 -96 6 -208z m-2070 153 c0 -31 -31 -52 -45 -31 -5 8 -10 25 -10 38 0 20 4
23 28 20 21 -2 27 -8 27 -27z m4255 0 c0 -32 -24 -48 -46 -30 -15 12 -19 41
-7 52 3 4 17 7 30 7 19 0 23 -5 23 -29z m140 -67 c0 -31 -37 -56 -62 -43 -28
15 -25 77 5 88 28 11 57 -12 57 -45z m-4509 14 c9 -35 -10 -61 -41 -56 -30 4
-45 28 -36 62 6 23 11 27 38 24 25 -2 33 -9 39 -30z m729 -23 c6 -3 10 -18 10
-33 0 -20 -8 -33 -32 -46 -31 -19 -31 -19 -50 4 -40 49 17 109 72 75z m3039
-1 c21 -22 22 -53 1 -74 -19 -19 -22 -19 -50 -5 -39 20 -43 71 -7 84 26 10 44
8 56 -5z m-3638 -67 c-10 -27 -40 -29 -55 -4 -9 15 -7 21 8 32 28 21 58 3 47
-28z m4214 27 c18 -19 16 -33 -9 -48 -24 -15 -50 18 -35 45 12 23 23 24 44 3z
m-1828 -56 c-3 -8 -6 -5 -6 6 -1 11 2 17 5 13 3 -3 4 -12 1 -19z m-2498 -20
c17 -46 -25 -88 -57 -56 -13 13 -16 60 -5 71 15 16 54 6 62 -15z m4459 -11 c4
-33 -13 -57 -38 -57 -19 0 -30 19 -30 54 0 30 9 38 40 34 19 -2 26 -10 28 -31z
m-4318 -47 c0 -22 -19 -31 -42 -18 -21 10 -23 29 -6 46 15 15 48 -3 48 -28z
m4166 -8 c-7 -22 -25 -23 -49 -3 -19 15 -12 38 11 44 25 5 45 -17 38 -41z
m-4380 -28 c18 -12 22 -20 14 -29 -9 -11 -16 -9 -34 8 -12 12 -21 25 -19 30 6
10 11 9 39 -9z m4576 10 c3 -3 -4 -15 -16 -28 -15 -16 -25 -19 -34 -12 -11 8
-9 13 10 28 25 19 32 21 40 12z m-2283 -564 c7 -47 17 -101 21 -120 5 -19 11
-46 13 -60 3 -14 10 -43 15 -65 6 -22 13 -51 16 -65 3 -14 8 -36 11 -50 3 -14
8 -36 11 -50 3 -14 10 -43 16 -65 6 -22 11 -44 13 -50 1 -5 5 -18 9 -27 4 -9
9 -22 10 -30 8 -45 74 -236 108 -312 22 -50 42 -97 45 -103 3 -7 1 -13 -4 -13
-13 0 -83 122 -106 184 -56 154 -167 534 -189 646 l-11 55 -28 -110 c-15 -60
-27 -112 -26 -115 0 -3 -13 -50 -30 -105 -18 -55 -49 -154 -69 -220 -50 -161
-84 -237 -151 -334 -2 -2 -6 -2 -9 1 -3 3 13 43 34 89 50 106 143 395 172 534
4 22 20 92 35 155 15 63 33 156 42 205 8 50 16 97 18 105 2 8 4 20 5 25 2 26
18 -29 29 -105z m-99 -728 c0 -11 11 -68 24 -128 38 -173 45 -260 11 -138 -7
27 -27 86 -43 131 -27 71 -29 86 -20 117 12 38 28 48 28 18z m179 -19 c9 -32
6 -49 -28 -137 -21 -56 -43 -117 -49 -136 -10 -33 -10 -32 -5 15 3 27 10 61
15 75 5 14 9 27 8 30 -3 14 35 190 41 190 5 0 13 -16 18 -37z m-257 -241 c10
-18 15 -32 12 -32 -2 0 0 -9 6 -20 19 -36 -8 -24 -48 22 -17 18 -22 33 -17 48
9 28 25 21 47 -18z m353 18 c5 -14 -2 -31 -22 -55 -41 -49 -57 -46 -36 8 27
69 46 85 58 47z"/>
<path d="M2833 5649 c-58 -21 -51 -99 9 -99 42 0 55 9 63 42 11 42 -29 73 -72
57z"/>
<path d="M3402 5652 c-40 -6 -53 -71 -18 -94 22 -15 75 -8 85 10 24 45 -14 93
-67 84z"/>
<path d="M2299 5539 c-33 -33 -6 -92 40 -84 34 6 54 34 46 65 -8 31 -8 31 -40
35 -17 1 -35 -5 -46 -16z"/>
<path d="M3897 5540 c-19 -15 -19 -20 -8 -48 7 -17 21 -34 32 -37 18 -6 58 9
60 23 0 4 2 17 5 28 7 42 -51 65 -89 34z"/>
<path d="M3120 5432 c-8 -3 -25 -14 -37 -25 -44 -40 -20 -112 43 -131 30 -9
84 37 84 70 0 57 -45 100 -90 86z"/>
<path d="M1870 5337 c-32 -16 -37 -50 -10 -75 27 -25 68 -18 80 14 11 29 4 51
-21 64 -22 12 -19 12 -49 -3z"/>
<path d="M4354 5340 c-27 -11 -36 -34 -24 -65 15 -41 80 -33 94 11 7 22 -13
56 -35 59 -8 2 -23 -1 -35 -5z"/>
<path d="M2253 5230 c-47 -19 -58 -85 -17 -100 38 -15 62 -12 84 10 27 27 26
65 -2 84 -25 18 -33 19 -65 6z"/>
<path d="M3952 5224 c-44 -30 -16 -104 40 -104 66 0 91 60 42 99 -32 25 -52
26 -82 5z"/>
<path d="M1455 5074 c-8 -9 -15 -25 -15 -38 0 -63 82 -62 95 2 7 37 -52 63
-80 36z"/>
<path d="M4747 5075 c-21 -15 -22 -34 -1 -63 17 -24 53 -29 72 -10 21 21 15
66 -10 74 -37 12 -43 12 -61 -1z"/>
<path d="M2518 5018 c-45 -16 -54 -79 -15 -109 16 -13 27 -15 48 -7 40 14 52
33 45 71 -8 41 -38 58 -78 45z"/>
<path d="M3686 5001 c-42 -46 10 -117 70 -96 59 21 41 115 -22 115 -18 0 -38
-8 -48 -19z"/>
<path d="M1743 4979 c-35 -10 -47 -34 -37 -74 9 -36 49 -51 81 -30 27 18 45
57 37 80 -6 13 -37 37 -46 34 -2 0 -17 -5 -35 -10z"/>
<path d="M4459 4969 c-11 -11 -18 -27 -15 -36 3 -8 6 -20 6 -27 0 -16 51 -44
74 -40 26 4 37 17 42 52 10 59 -64 94 -107 51z"/>
<path d="M3103 4808 c-64 -31 -46 -139 26 -153 29 -5 70 32 77 71 10 54 -54
105 -103 82z"/>
<path d="M1146 4757 c-26 -19 -18 -71 12 -75 33 -5 73 23 65 46 -7 20 -32 42
-48 42 -6 0 -19 -6 -29 -13z"/>
<path d="M5069 4763 c-9 -2 -19 -15 -22 -29 -5 -30 29 -57 65 -52 29 4 37 48
13 72 -16 16 -26 18 -56 9z"/>
<path d="M1312 4601 c-18 -19 -22 -33 -18 -55 12 -57 68 -67 107 -18 50 64
-33 133 -89 73z"/>
<path d="M2243 4595 c-33 -14 -43 -36 -33 -75 5 -21 13 -25 47 -28 34 -3 44 1
61 23 23 29 21 64 -5 79 -26 15 -36 15 -70 1z"/>
<path d="M3956 4594 c-26 -25 -24 -73 2 -89 50 -30 99 -21 102 20 4 42 -1 55
-30 70 -37 19 -55 19 -74 -1z"/>
<path d="M4883 4617 c-40 -22 -43 -54 -10 -92 32 -37 62 -39 87 -7 21 26 21
62 -1 88 -14 17 -54 22 -76 11z"/>
<path d="M2776 4457 c-25 -18 -30 -71 -8 -90 42 -36 90 -22 107 33 16 51 -53
91 -99 57z"/>
<path d="M3406 4448 c-19 -29 -15 -55 13 -84 35 -37 86 -16 96 39 11 57 -77
93 -109 45z"/>
<path d="M892 4368 c-23 -23 -14 -55 17 -66 24 -8 32 -7 45 7 20 22 20 38 2
57 -18 17 -48 18 -64 2z"/>
<path d="M5321 4369 c-17 -14 -21 -24 -15 -41 9 -31 21 -37 53 -29 37 10 43
62 9 78 -19 9 -28 7 -47 -8z"/>
<path d="M1763 4285 c-31 -13 -57 -62 -44 -82 20 -32 114 -19 126 16 8 25 -13
68 -35 74 -9 2 -31 -1 -47 -8z"/>
<path d="M4446 4281 c-9 -10 -19 -30 -22 -44 -3 -21 1 -29 25 -42 42 -21 77
-19 95 6 13 20 13 25 0 51 -13 25 -48 48 -73 48 -4 0 -16 -8 -25 -19z"/>
<path d="M3124 4232 c-32 -5 -57 -38 -57 -72 0 -66 49 -106 98 -80 73 39 39
166 -41 152z"/>
<path d="M989 4159 c-22 -22 -19 -55 8 -76 19 -15 64 -7 81 14 42 57 -38 113
-89 62z"/>
<path d="M5196 4164 c-19 -19 -21 -58 -3 -72 43 -36 116 -7 102 41 -14 45 -68
62 -99 31z"/>
<path d="M2258 3960 c-35 -36 -34 -68 3 -89 22 -12 31 -12 57 -2 16 7 33 22
36 34 7 29 -14 68 -42 78 -19 7 -29 3 -54 -21z"/>
<path d="M3940 3972 c-26 -23 -33 -63 -16 -86 19 -24 76 -29 99 -8 22 20 22
43 -3 74 -26 33 -55 40 -80 20z"/>
<path d="M1376 3887 c-26 -19 -18 -68 13 -84 54 -26 107 40 65 81 -19 19 -54
21 -78 3z"/>
<path d="M4816 3884 c-42 -41 11 -107 65 -81 47 24 32 97 -21 97 -16 0 -36 -7
-44 -16z"/>
<path d="M786 3758 c-21 -29 -20 -41 2 -61 38 -35 85 -13 85 39 0 46 -60 61
-87 22z"/>
<path d="M5414 3772 c-35 -24 -14 -92 29 -92 31 0 47 13 52 40 8 42 -45 77
-81 52z"/>
<path d="M1784 3612 c-6 -4 -16 -17 -23 -30 -29 -55 57 -101 93 -50 21 29 20
51 -2 71 -19 18 -49 22 -68 9z"/>
<path d="M4417 3602 c-21 -23 -21 -41 -1 -70 17 -25 65 -30 83 -8 48 57 -33
133 -82 78z"/>
<path d="M3112 3611 c-49 -37 -25 -121 31 -107 51 12 59 79 13 109 -20 13 -25
13 -44 -2z"/>
<path d="M2840 3580 c-58 -14 -66 -103 -10 -115 59 -13 95 18 84 73 -7 34 -37
51 -74 42z"/>
<path d="M3388 3583 c-18 -5 -39 -49 -35 -76 4 -24 18 -36 54 -46 26 -8 35 -5
52 13 12 12 21 32 21 43 0 41 -50 77 -92 66z"/>
<path d="M3640 3484 c-6 -14 -10 -32 -10 -39 0 -17 38 -45 61 -45 43 0 67 80
30 100 -36 19 -71 12 -81 -16z"/>
<path d="M2548 3499 c-35 -20 -16 -90 25 -97 28 -5 67 25 67 51 -1 48 -48 72
-92 46z"/>
<path d="M1136 3454 c-45 -45 7 -104 65 -74 22 12 26 59 7 78 -17 17 -54 15
-72 -4z"/>
<path d="M5066 3457 c-22 -16 -18 -65 5 -80 47 -29 101 32 64 73 -21 23 -44
25 -69 7z"/>
<path d="M2308 3387 c-31 -12 -40 -36 -24 -69 21 -43 91 -30 100 19 4 19 -12
42 -39 55 -5 2 -22 0 -37 -5z"/>
<path d="M3895 3366 c-13 -19 -14 -29 -5 -45 13 -25 57 -38 79 -24 20 13 26
60 10 79 -19 23 -66 17 -84 -10z"/>
<path d="M699 3334 c-37 -44 -7 -94 45 -74 45 17 31 88 -17 87 -9 0 -22 -6
-28 -13z"/>
<path d="M5514 3342 c-21 -14 -22 -50 -2 -71 22 -24 19 -24 52 -11 30 11 33
35 10 68 -15 22 -40 28 -60 14z"/>
<path d="M2093 3232 c-32 -20 -21 -80 18 -94 42 -16 79 58 47 90 -13 13 -47
16 -65 4z"/>
<path d="M4106 3219 c-17 -25 -9 -56 21 -76 17 -12 24 -10 47 8 22 17 26 27
21 48 -11 45 -63 57 -89 20z"/>
<path d="M1466 3164 c-19 -18 -19 -16 -6 -48 12 -32 49 -35 75 -6 40 44 -27
97 -69 54z"/>
<path d="M4736 3167 c-22 -16 -13 -64 15 -72 42 -14 66 8 59 55 -4 30 -44 39
-74 17z"/>
<path d="M1052 3063 c-22 -9 -35 -43 -21 -59 16 -20 43 -17 65 7 28 31 -3 69
-44 52z"/>
<path d="M5171 3056 c-12 -14 -5 -46 13 -58 21 -15 47 -8 55 15 16 41 -40 77
-68 43z"/>
<path d="M1942 3042 c-34 -5 -47 -38 -27 -68 16 -25 42 -26 73 -2 33 27 1 77
-46 70z"/>
<path d="M4300 3040 c-17 -4 -26 -14 -28 -31 -5 -45 53 -72 83 -39 31 35 -6
82 -55 70z"/>
<path d="M4438 2849 c-29 -16 -23 -56 9 -64 45 -11 73 44 34 65 -23 12 -22 12
-43 -1z"/>
<path d="M1785 2843 c-19 -19 -16 -42 8 -57 23 -15 52 4 52 34 0 30 -38 45
-60 23z"/>
<path d="M1332 2748 c-27 -27 -6 -70 29 -61 24 7 41 36 33 57 -7 19 -45 21
-62 4z"/>
<path d="M4877 2747 c-8 -21 16 -62 37 -62 27 0 44 30 30 53 -14 22 -60 28
-67 9z"/>
<path d="M1712 2659 c-25 -9 -30 -44 -7 -52 7 -3 23 2 34 11 28 23 8 54 -27
41z"/>
<path d="M4526 2654 c-21 -20 -21 -21 10 -40 22 -15 27 -15 35 -3 14 22 11 37
-10 49 -15 7 -23 6 -35 -6z"/>
<path d="M1648 2489 c-28 -16 -23 -49 6 -49 30 0 40 13 31 40 -7 22 -12 24
-37 9z"/>
<path d="M4589 2490 c-5 -38 -2 -45 19 -48 30 -5 42 26 17 44 -22 17 -35 18
-36 4z"/>
<path d="M1597 2316 c-9 -23 19 -41 36 -24 7 7 12 19 9 26 -5 17 -39 15 -45
-2z"/>
<path d="M4625 2321 c-8 -14 23 -41 40 -35 18 7 19 16 3 32 -14 14 -35 16 -43
3z"/>
<path d="M3281 5772 c-12 -22 3 -42 30 -42 24 0 28 10 18 38 -10 27 -35 29
-48 4z"/>
<path d="M2678 5763 c-24 -6 -30 -30 -12 -48 21 -20 31 -19 45 6 13 25 -5 48
-33 42z"/>
<path d="M3553 5744 c-8 -21 19 -46 40 -38 9 3 17 17 17 30 0 19 -5 24 -25 24
-14 0 -28 -7 -32 -16z"/>
<path d="M2393 5692 c-18 -11 -4 -52 18 -52 24 0 42 33 27 48 -14 14 -28 15
-45 4z"/>
<path d="M3832 5688 c-13 -13 2 -48 21 -48 21 0 35 20 30 41 -6 21 -33 25 -51
7z"/>
<path d="M4089 5604 c-15 -18 -1 -49 22 -49 31 -1 39 39 10 54 -14 8 -22 7
-32 -5z"/>
<path d="M2137 5603 c-13 -12 -7 -41 10 -47 21 -8 48 17 40 38 -6 16 -38 22
-50 9z"/>
<path d="M1902 5498 c-14 -14 2 -48 22 -48 20 0 37 25 30 44 -7 19 -35 21 -52
4z"/>
<path d="M4313 5494 c-8 -20 21 -49 41 -41 9 4 16 18 16 32 0 20 -5 25 -25 25
-14 0 -28 -7 -32 -16z"/>
<path d="M1692 5380 c-12 -21 -4 -35 25 -42 13 -4 24 -1 27 8 14 36 -32 66
-52 34z"/>
<path d="M4532 5386 c-15 -20 -7 -41 17 -44 41 -6 51 40 11 51 -11 3 -23 0
-28 -7z"/>
<path d="M975 5348 c-55 -31 -61 -92 -14 -132 17 -14 37 -26 45 -26 30 0 72
30 82 58 24 69 -51 136 -113 100z m71 -50 c15 -43 -1 -68 -42 -68 -20 0 -35
17 -39 45 -2 18 28 45 51 45 15 0 25 -8 30 -22z"/>
<path d="M5223 5350 c-34 -14 -55 -62 -42 -98 21 -60 87 -76 134 -32 45 42 29
107 -32 131 -28 11 -31 11 -60 -1z m63 -38 c19 -12 23 -51 7 -67 -31 -31 -77
-11 -76 33 1 26 4 31 21 35 27 7 36 7 48 -1z"/>
<path d="M4741 5217 c-9 -12 -8 -18 4 -31 26 -26 56 -14 51 19 -3 24 -38 31
-55 12z"/>
<path d="M1286 5065 c-9 -25 5 -46 28 -43 30 4 29 50 -1 54 -12 2 -23 -3 -27
-11z"/>
<path d="M4932 5068 c-5 -5 -7 -18 -5 -29 7 -24 48 -26 57 -2 11 28 -30 53
-52 31z"/>
<path d="M1141 4892 c-11 -21 -4 -36 21 -45 20 -7 41 22 30 39 -14 21 -42 24
-51 6z"/>
<path d="M5077 4879 c-7 -27 32 -45 50 -22 16 21 5 43 -22 43 -14 0 -25 -7
-28 -21z"/>
<path d="M982 4703 c-13 -26 -4 -43 23 -43 13 0 25 6 28 13 7 22 -5 47 -24 47
-10 0 -22 -8 -27 -17z"/>
<path d="M5242 4703 c-13 -26 -4 -43 23 -43 13 0 25 6 28 13 6 17 -11 47 -28
47 -8 0 -18 -8 -23 -17z"/>
<path d="M861 4516 c-15 -18 -4 -46 18 -46 27 0 42 20 30 42 -12 21 -32 23
-48 4z"/>
<path d="M5361 4512 c-12 -22 3 -42 30 -42 20 0 28 17 21 43 -6 23 -39 22 -51
-1z"/>
<path d="M307 4333 c-20 -5 -47 -52 -47 -82 0 -31 41 -71 78 -76 102 -12 119
144 17 159 -17 2 -38 2 -48 -1z m74 -54 c16 -30 -3 -69 -34 -69 -29 0 -47 17
-47 45 0 45 60 63 81 24z"/>
<path d="M5890 4327 c-40 -20 -54 -59 -36 -101 25 -60 91 -71 133 -22 27 32
29 62 6 96 -30 44 -56 51 -103 27z m68 -39 c17 -17 15 -53 -3 -68 -20 -17 -62
-5 -70 20 -14 44 41 80 73 48z"/>
<path d="M742 4318 c-16 -16 -15 -33 4 -48 22 -19 54 12 38 37 -14 22 -27 26
-42 11z"/>
<path d="M5497 4318 c-21 -11 -22 -32 -2 -48 12 -10 18 -10 30 0 33 27 8 69
-28 48z"/>
<path d="M651 4112 c-12 -22 3 -42 31 -42 18 0 19 3 22 38 2 25 -40 28 -53 4z"/>
<path d="M5567 4116 c-10 -26 3 -46 30 -46 21 0 24 4 21 28 -3 31 -41 44 -51
18z"/>
<path d="M594 3945 c-9 -24 3 -44 25 -42 37 2 37 57 0 57 -11 0 -22 -7 -25
-15z"/>
<path d="M5634 3945 c-19 -15 -19 -15 1 -30 26 -20 39 -14 43 18 4 31 -13 35
-44 12z"/>
<path d="M547 3803 c-14 -13 -6 -41 13 -46 23 -6 45 16 36 38 -5 15 -37 21
-49 8z"/>
<path d="M5677 3803 c-12 -12 -7 -41 8 -47 25 -9 45 4 45 30 0 18 -5 24 -23
24 -13 0 -27 -3 -30 -7z"/>
<path d="M521 3616 c-12 -14 -5 -26 16 -26 15 0 18 26 4 34 -5 3 -14 0 -20 -8z"/>
<path d="M5724 3619 c-8 -14 11 -33 25 -25 6 4 11 11 11 16 0 13 -29 20 -36 9z"/>
<path d="M502 3463 c5 -25 28 -28 28 -4 0 12 -6 21 -16 21 -9 0 -14 -7 -12
-17z"/>
<path d="M5737 3474 c-3 -3 -3 -12 0 -19 6 -17 33 -8 33 11 0 14 -21 19 -33 8z"/>
<path d="M497 3343 c-4 -3 -7 -12 -7 -20 0 -17 26 -17 33 1 8 21 -11 35 -26
19z"/>
<path d="M5747 3335 c-7 -16 8 -29 23 -20 15 9 12 35 -4 35 -8 0 -16 -7 -19
-15z"/>
<path d="M93 3200 c-46 -19 -59 -95 -21 -130 30 -28 61 -34 90 -19 33 18 47
40 47 74 0 34 -14 56 -46 73 -25 14 -40 14 -70 2z m72 -47 c18 -41 0 -73 -42
-73 -20 0 -36 23 -38 55 -2 34 67 49 80 18z"/>
<path d="M6105 3198 c-35 -21 -45 -36 -45 -70 1 -42 27 -76 63 -82 51 -9 87
19 100 80 11 50 -72 100 -118 72z m71 -43 c16 -16 11 -54 -10 -67 -33 -22 -81
9 -70 46 12 38 53 49 80 21z"/>
<path d="M474 3183 c2 -10 6 -17 10 -16 24 6 29 11 22 21 -11 18 -35 14 -32
-5z"/>
<path d="M5760 3187 c0 -19 10 -27 25 -20 17 6 8 33 -11 33 -8 0 -14 -6 -14
-13z"/>
<path d="M486 3073 c-12 -12 -6 -33 9 -33 8 0 15 6 15 14 0 17 -14 28 -24 19z"/>
<path d="M5757 3064 c-9 -10 2 -24 19 -24 8 0 14 7 14 15 0 15 -21 21 -33 9z"/>
<path d="M1100 2392 c-21 -17 -22 -21 -9 -48 26 -53 99 -37 99 21 0 43 -52 58
-90 27z"/>
<path d="M5098 2399 c-10 -5 -18 -21 -18 -34 0 -57 72 -73 100 -22 14 27 14
29 -9 48 -26 21 -47 24 -73 8z"/>
<path d="M661 2271 c-34 -22 -10 -69 29 -56 22 7 25 17 10 46 -12 21 -18 23
-39 10z"/>
<path d="M1137 2269 c-23 -13 -22 -46 3 -54 25 -8 40 1 40 24 0 27 -21 42 -43
30z"/>
<path d="M5574 2263 c-11 -26 -11 -37 1 -45 18 -13 34 -9 46 14 10 18 8 24 -7
35 -24 17 -30 16 -40 -4z"/>
<path d="M5094 2255 c-10 -25 4 -47 28 -43 17 2 24 11 26 31 3 23 0 27 -23 27
-14 0 -28 -7 -31 -15z"/>
<path d="M1268 2198 c-57 -20 -19 -105 39 -89 34 9 44 53 17 82 -19 21 -19 21
-56 7z"/>
<path d="M4948 2193 c-34 -41 -26 -75 20 -86 26 -6 62 25 62 54 0 18 -35 49
-56 49 -6 0 -18 -8 -26 -17z"/>
<path d="M1154 2148 c-15 -20 -11 -42 9 -46 23 -5 34 26 15 44 -12 12 -17 13
-24 2z"/>
<path d="M5090 2145 c-16 -19 -5 -47 17 -43 20 4 26 33 8 48 -9 7 -16 6 -25
-5z"/>
<path d="M1281 2061 c-12 -8 -13 -14 -3 -35 13 -28 31 -33 50 -14 33 33 -7 74
-47 49z"/>
<path d="M4934 2044 c-10 -39 30 -60 56 -29 18 22 3 55 -25 55 -18 0 -26 -7
-31 -26z"/>
<path d="M345 2006 c-59 -25 -71 -76 -30 -125 56 -66 161 -12 140 72 -13 50
-62 74 -110 53z m66 -47 c16 -30 -3 -69 -34 -69 -29 0 -47 17 -47 45 0 45 60
63 81 24z"/>
<path d="M5857 2004 c-52 -28 -61 -76 -21 -123 54 -65 153 -17 138 66 -10 56
-66 83 -117 57z m71 -36 c7 -7 12 -21 12 -33 0 -41 -46 -60 -76 -31 -29 30
-10 76 31 76 12 0 26 -5 33 -12z"/>
<path d="M1412 1964 c-27 -19 -28 -45 -2 -69 17 -15 24 -16 45 -7 32 15 35 66
6 82 -25 13 -22 13 -49 -6z"/>
<path d="M4814 1970 c-42 -17 -35 -70 12 -84 25 -8 54 21 50 49 -4 27 -36 45
-62 35z"/>
<path d="M814 1945 c-10 -39 2 -57 33 -53 22 2 29 9 31 32 6 48 -52 67 -64 21z"/>
<path d="M1311 1956 c-16 -19 -10 -51 8 -51 8 0 19 8 25 17 8 14 7 21 -5 33
-14 14 -17 14 -28 1z"/>
<path d="M5393 1947 c-14 -30 -1 -51 32 -54 30 -2 40 15 31 52 -8 33 -49 34
-63 2z"/>
<path d="M4923 1944 c-4 -11 1 -22 12 -30 22 -16 39 -5 33 22 -4 25 -36 30
-45 8z"/>
<path d="M874 1816 c-7 -30 1 -46 25 -46 27 0 40 21 30 48 -12 30 -47 29 -55
-2z"/>
<path d="M5339 1819 c-9 -18 -8 -25 8 -40 16 -17 21 -17 37 -6 14 10 17 21 12
40 -8 33 -40 36 -57 6z"/>
<path d="M1457 1819 c-20 -12 -23 -45 -3 -52 17 -7 36 11 36 34 0 23 -12 30
-33 18z"/>
<path d="M4787 1824 c-5 -5 1 -55 7 -62 9 -8 36 13 36 29 0 18 -32 43 -43 33z"/>
<path d="M1061 1731 c-23 -23 -19 -46 9 -61 39 -21 60 41 25 70 -10 9 -19 6
-34 -9z"/>
<path d="M5168 1733 c-17 -20 -16 -52 3 -64 17 -10 49 7 49 26 0 8 1 18 3 21
1 4 -7 13 -19 20 -18 12 -23 12 -36 -3z"/>
<path d="M937 1723 c-15 -14 -6 -52 13 -58 25 -8 40 1 40 24 0 30 -35 53 -53
34z"/>
<path d="M5292 1718 c-19 -19 -14 -46 9 -53 25 -8 40 9 37 40 -3 23 -28 31
-46 13z"/>
<path d="M1013 1623 c-16 -6 -17 -39 -2 -49 6 -3 17 0 25 8 12 11 12 17 2 30
-7 9 -19 14 -25 11z"/>
<path d="M1101 1616 c-17 -20 -3 -46 24 -46 30 0 39 14 25 40 -12 23 -33 26
-49 6z"/>
<path d="M5120 1615 c-19 -23 -4 -47 27 -43 29 3 37 23 20 46 -13 16 -32 15
-47 -3z"/>
<path d="M5235 1614 c-14 -15 -15 -19 -2 -32 18 -17 37 -8 37 18 0 27 -16 33
-35 14z"/>
<path d="M1607 1572 c-34 -37 -12 -112 32 -112 14 0 31 4 38 8 19 12 22 55 7
90 -15 37 -51 43 -77 14z"/>
<path d="M4596 1574 c-16 -16 -20 -30 -18 -73 4 -70 102 -44 102 27 0 56 -48
82 -84 46z"/>
<path d="M1066 1514 c-8 -20 1 -34 20 -34 8 0 14 10 14 25 0 28 -24 34 -34 9z"/>
<path d="M5168 1518 c-7 -19 2 -38 17 -38 15 0 24 19 18 38 -3 6 -11 12 -18
12 -7 0 -15 -6 -17 -12z"/>
<path d="M1160 1508 c0 -7 4 -19 9 -27 12 -19 43 -6 39 16 -4 21 -48 31 -48
11z"/>
<path d="M5063 1504 c-3 -8 -1 -20 5 -26 16 -16 42 -2 42 22 0 24 -38 28 -47
4z"/>
<path d="M1331 1436 c-12 -14 -1 -59 17 -70 29 -18 55 29 34 60 -12 18 -40 23
-51 10z"/>
<path d="M4903 1442 c-7 -4 -16 -22 -19 -40 -5 -25 -3 -32 10 -32 9 0 19 -1
24 -1 15 -3 31 44 21 63 -11 20 -18 22 -36 10z"/>
<path d="M1681 1374 c-40 -28 -17 -94 32 -94 47 0 57 78 12 98 -17 8 -28 7
-44 -4z"/>
<path d="M4543 1378 c-24 -12 -36 -54 -22 -80 11 -21 55 -24 73 -5 36 36 -5
106 -51 85z"/>
<path d="M1180 1326 c0 -7 6 -19 14 -25 10 -9 16 -7 27 5 11 13 10 17 -2 25
-21 13 -39 11 -39 -5z"/>
<path d="M1415 1323 c-21 -21 -14 -37 18 -41 23 -3 27 0 27 21 0 31 -24 41
-45 20z"/>
<path d="M4814 1315 c-3 -13 -3 -28 0 -33 9 -14 46 -2 46 14 0 8 0 17 1 21 0
4 -9 10 -20 15 -17 6 -22 3 -27 -17z"/>
<path d="M5052 1332 c-12 -8 -7 -42 7 -42 12 0 31 23 31 37 0 15 -18 17 -38 5z"/>
<path d="M1496 1243 c-12 -12 -6 -44 10 -50 18 -7 35 13 27 33 -5 15 -29 25
-37 17z"/>
<path d="M4747 1235 c-19 -19 -11 -47 12 -43 18 4 27 36 13 50 -6 6 -15 4 -25
-7z"/>
<path d="M1792 1197 c-18 -24 -20 -45 -6 -66 8 -11 19 -21 24 -21 18 0 37 30
33 53 -6 30 -37 51 -51 34z"/>
<path d="M4435 1183 c-14 -25 -7 -60 13 -68 25 -9 53 30 43 58 -10 28 -43 33
-56 10z"/>
<path d="M1372 1137 c-9 -10 -9 -18 1 -31 12 -16 14 -17 27 -1 11 14 11 18 -2
31 -12 13 -16 13 -26 1z"/>
<path d="M4870 1134 c-10 -11 -10 -17 0 -29 15 -17 26 -13 33 14 6 24 -17 35
-33 15z"/>
<path d="M962 1068 c-19 -10 -34 -37 -37 -73 -2 -19 28 -63 50 -73 31 -14 73
-3 95 26 57 72 -22 161 -108 120z m88 -69 c0 -22 -6 -32 -26 -41 -23 -11 -29
-10 -46 11 -24 30 -20 52 11 68 35 17 61 0 61 -38z"/>
<path d="M5220 1067 c-16 -8 -28 -26 -34 -50 -8 -31 -6 -42 11 -65 39 -52 121
-42 142 18 25 74 -47 133 -119 97z m70 -37 c11 -11 20 -24 20 -30 0 -13 -37
-50 -50 -50 -5 0 -19 9 -30 20 -21 21 -18 46 8 68 21 16 29 15 52 -8z"/>
<path d="M1903 1043 c-15 -6 -17 -59 -3 -68 18 -11 48 5 45 23 -2 9 -4 22 -4
28 -1 14 -21 23 -38 17z"/>
<path d="M4349 1043 c-37 -9 -32 -76 5 -71 15 2 22 11 24 32 4 32 -5 44 -29
39z"/>
<path d="M1547 973 c-3 -5 -2 -15 3 -22 10 -17 43 -6 38 12 -6 15 -34 22 -41
10z"/>
<path d="M4685 970 c-8 -13 3 -30 20 -30 14 0 27 24 18 34 -10 9 -31 7 -38 -4z"/>
<path d="M2020 900 c-8 -5 -15 -15 -16 -22 -1 -37 50 -53 59 -19 6 26 -23 53
-43 41z"/>
<path d="M4216 888 c-19 -26 -10 -48 19 -48 25 0 34 15 27 42 -6 26 -30 29
-46 6z"/>
<path d="M1714 835 c3 -9 6 -19 6 -21 0 -2 7 -4 16 -4 22 0 13 34 -10 38 -14
3 -17 0 -12 -13z"/>
<path d="M4527 843 c-4 -3 -7 -12 -7 -20 0 -17 26 -17 33 1 8 21 -11 35 -26
19z"/>
<path d="M4111 787 c-6 -6 -11 -19 -11 -30 0 -27 44 -19 48 9 3 25 -20 38 -37
21z"/>
<path d="M2120 772 c0 -29 19 -43 41 -29 13 8 15 15 8 29 -13 24 -49 24 -49 0z"/>
<path d="M1906 731 c-4 -5 -3 -16 0 -25 5 -12 10 -14 20 -6 7 7 10 18 7 26 -6
16 -19 18 -27 5z"/>
<path d="M4341 727 c-9 -11 -8 -17 4 -27 12 -10 16 -9 21 5 9 23 -10 40 -25
22z"/>
<path d="M2230 685 c0 -18 5 -25 18 -25 25 0 31 7 25 31 -8 29 -43 25 -43 -6z"/>
<path d="M3997 691 c-6 -24 0 -31 25 -31 13 0 18 7 18 25 0 31 -35 35 -43 6z"/>
<path d="M2150 606 c0 -17 14 -29 23 -20 8 8 -3 34 -14 34 -5 0 -9 -6 -9 -14z"/>
<path d="M4103 613 c-16 -6 -17 -33 -3 -33 11 0 26 28 19 34 -2 2 -10 1 -16
-1z"/>
<path d="M2536 537 c-21 -16 -11 -47 15 -47 13 0 19 7 19 24 0 31 -12 39 -34
23z"/>
<path d="M3707 543 c-4 -3 -7 -17 -7 -30 0 -26 21 -31 40 -8 18 22 -13 58 -33
38z"/>
<path d="M1959 370 c-43 -42 -30 -101 28 -125 59 -25 121 25 109 88 -15 72
-84 91 -137 37z m93 -22 c12 -20 10 -34 -10 -58 -14 -18 -22 -20 -43 -11 -34
12 -42 44 -18 70 20 21 57 21 71 -1z"/>
<path d="M4201 383 c-12 -10 -24 -34 -27 -53 -15 -92 124 -128 155 -40 12 35
1 75 -27 96 -24 19 -76 17 -101 -3z m80 -23 c28 -16 26 -68 -3 -79 -50 -20
-89 43 -46 73 27 19 24 19 49 6z"/>
<path d="M3091 159 c-70 -42 -37 -148 46 -149 49 0 90 51 78 98 -14 57 -74 82
-124 51z m79 -39 c11 -11 20 -23 20 -28 0 -19 -31 -50 -47 -47 -10 2 -24 4
-31 4 -7 1 -17 13 -23 28 -9 24 -7 30 11 45 29 23 45 23 70 -2z"/>
</g>
</svg>
