<svg version="1" xmlns="http://www.w3.org/2000/svg" width="834.667" height="834.667" viewBox="0 0 626 626"><path d="M308.4 2.8c-6.7 5.3-1.2 16.4 7 14.1 5.3-1.5 7.6-7 5-12-2.2-4.3-8.1-5.3-12-2.1zm9 3.1c3.1 3.5-.8 8.4-5.7 7.3-2.1-.4-3.9-4.5-3.1-6.6 1.1-2.9 6.5-3.3 8.8-.7zm-126 21.5c-1.8.8-3.5 1.9-3.9 2.6-2.4 3.8-.1 11.4 3.8 12.6 3.2 1 8.4-.5 9.9-2.9 1.9-3 1.5-8.5-.8-10.7-2.8-2.6-5.5-3.1-9-1.6zm6 4.2c2.9 2.8 1.8 6.7-2.2 7.6-4.4 1.2-7.4-5.8-3.4-8.1 2.4-1.5 3.8-1.3 5.6.5zm231.9-4.1c-5.8 2.5-6.6 10.2-1.4 14.2 3.9 3 10.5.6 12.2-4.4 2.2-6.7-4.2-12.6-10.8-9.8zm7.5 6.8c.6 4.8-6.9 7.2-8.3 2.6-.4-1-.4-2.8 0-3.8 1.2-4 7.8-3 8.3 1.2zM294.1 48.8c-1.2 2.2.3 4.2 3 4.2 2.1 0 2.9-1.9 1.7-4.3-1.1-2.2-3.5-2.2-4.7.1z"/><path d="M309.8 48c-4.8.9-8.4 3.3-10.4 7.1-1.7 3.4-1.1 3.6-7.8-2.4-1.1-.9-2.5-1.7-3-1.8-.6 0-2-.2-3-.4-3.2-.6-11 2.6-13.7 5.6l-2.6 2.9-3.2-2.4c-2.6-2-4.3-2.4-8.4-2.2-7.9.4-12.7 4-12.7 9.3 0 2.8-.3 2.8-4 .1-5.4-4-16.5-1.7-19.5 4.1-.8 1.7-1.5 3.3-1.5 3.6.2 4.4.2 4.3-4.9 1.8-3.7-1.8-5.8-2.3-8.1-1.8-3.9.9-8.4 4.6-10 8.5-1.1 2.5-1.6 2.9-3.9 2.3-1.4-.3-2.8-.7-2.9-.9-.7-.5-8.2 2.5-10.7 4.3-1.5 1.1-2.7 3.2-3.1 5.5-.7 4-1.4 4.4-4.5 2.8-4.3-2.4-16.8 6.3-17 11.8-.1 1.5 0 3.3.1 4.1.1.9-.4 1.2-1.5.7-.9-.3-2.2-.6-2.8-.6-.7 0-.4-.7.6-1.5 2.4-1.8 1.8-4.9-1.1-5.3-2.5-.4-4.1 2.3-2.3 4.1 1.6 1.6 1.4 2.3-1 2.4-5.5.4-12 8.1-11.3 13 .2 1.3-.2 2.4-.9 2.4-.6.1-2.2.3-3.3.4-5.2.5-10.4 7.3-10.4 13.4 0 1.7-.6 3.2-1.2 3.3-.7 0-1.7.2-2.3.3-.5.2-1.7.3-2.5.4-2.4.2-8.5 6.3-9.7 9.6-.5 1.6-.7 3.9-.2 5 1.2 3.1 1.1 3.5-1.1 3.5-6.3 0-11.2 6.2-11.2 14 .1 2.8-.2 5-.6 5.1-.4 0-1.7.2-3 .3-4.4.5-9.7 10-8.8 15.8.5 2.9.3 3.8-.8 3.8-4.6 0-8.9 8.1-7.6 14.5.4 2.3.1 3.4-1.7 4.8-3.3 2.7-5 6.6-4.7 11.2.1 3-.4 4.7-2.3 6.9-1.8 2.2-2.4 3.9-2.2 7 .3 5.8.1 6.6-1.5 6.6-2.2 0-3.9 5.5-3.2 10.7.3 2.8.1 5.2-.6 6-1.1 1.3-1.6 6.3-2.1 21.3-.1 3.6-.8 7.6-1.6 8.9-.8 1.5-1.1 3.8-.6 6.6.4 2.8.2 5.1-.6 6.3-1 1.7-1 2.8.3 6 .9 2.4 1.2 4.5.7 5.3-1.2 1.9-1.1 6.3.1 7.5.6.6.6 2.2-.2 4.6-.9 3-.8 4.1.5 6.1 1.3 2.1 1.4 3 .4 5.6-.9 2.6-.9 3.7.5 6.4.9 1.7 1.9 4.8 2.2 6.7.3 1.9 1 6 1.6 9 .6 3 1.3 7.4 1.5 9.8.3 2.3.9 5.1 1.5 6.2.5 1 1 3.6 1 5.8 0 4.6 1.9 6.6 5.4 6 3.4-.7 7.3 4.4 5.9 7.6-1.2 2.5.1 7.8 2.2 9.6.8.7 1.5 2.9 1.5 4.9 0 4.5 2.4 8.1 5.4 8.1 2.4 0 6.1-3.2 4.9-4.3-.3-.4-.2-.7.3-.7 1.5 0 5.4 6.8 5.4 9.5 0 1.5 1.2 3.5 2.9 5 2.1 1.9 2.7 3.2 2.3 5-1.1 6 6 10.5 10.2 6.5 2-1.8 2.7-2 4.4-.9 1.6 1 1.8 1.8 1.1 3.6-1 2.7.4 7 2.8 8.8.8.6 1.7 2.2 1.8 3.6.1 1.3.3 2.9.4 3.6 0 .6 1.4 1.6 3 2.1 2.4.8 2.9 1.5 2.7 3.7-.6 5 5.1 9.4 8.2 6.3 2.8-2.8.1-9.8-3.7-9.8-.7 0-1.1-1.3-1-3.3.2-1.7-.6-4.8-1.6-6.7-1.1-1.9-2.1-4.6-2.3-6-.2-1.4-1-3.3-1.9-4.2-.8-.9-1.5-3.3-1.5-5.2 0-2.5-.7-4.3-2.4-5.8-1.6-1.6-2.1-3-1.7-4.6.4-1.5-.2-3.3-1.5-5.2-1.7-2.2-1.9-3.4-1.3-5.8.7-2.2.5-3.6-.6-5.3-1.2-1.7-1.4-2.6-.5-4 .9-1.4.6-2.7-1.2-6.1-1.5-2.8-2-5-1.6-6.3.7-2-.5-7.2-2-8.9-.5-.4-.4-2.1 0-3.7.5-1.6.7-3.8.5-4.9-.4-2.1.9-2.7 2-1 .3.5 2.1 1 4 1 2.4 0 3.9-.7 5.3-2.5 2.1-2.6 4.2-3.3 4.2-1.3 0 .6.7 2 1.6 2.9 1.5 1.7 1.5 2.2-.5 6.5-3.2 6.8-1.5 12 4.5 13.8 2.4.7 8.4-3.5 8.4-5.9 0-2.3 1.8-2.7 2.9-.7.7 1.4.5 2.9-1 6-1.6 3.1-1.8 4.5-1 6 .6 1.1.8 4.2.4 6.9-.5 4.3-.2 5.4 1.6 7.2 3.2 3.2 8.1 2.5 10.1-1.4 2-4 1.9-3.9 2.6-3.3.3.4-.2 2.1-1.1 3.8-1.8 3.5-1.4 7.4 1.2 10.2 1.3 1.4 1.3 2.1.3 3.3-2.3 2.8-2.4 8.5-.1 11.6 1.9 2.5 2 3.4 1.1 6.8-1.2 4.6-.1 8.4 2.9 10 3.1 1.7 5 1.3 7.5-1.4s2.4-5.7-.4-11.8c-1-2.1-1.1-3-.2-3.9 1.6-1.6 1.5-5.3-.3-8.8-1.4-2.7-1.4-3.2 0-5.4 1.6-2.4 1.5-5-.4-9.9-.9-2.3-.7-3.1.9-4.7 2.2-2.2 2.6-6 .9-9.1-.8-1.7-.5-2.6 2.1-5.6 3.3-3.7 3.4-5.1 1.4-12.1-.5-1.6-.2-2.2.9-2.2 2.4 0 5.7-3.3 5.9-6 .1-1.4-.2-3.9-.6-5.5-.6-2.8-.4-3.2 2.8-4.8 3.7-1.7 4.6-4.3 4.3-11.6-.2-3.2.1-3.5 4.1-4.8 2.9-1 4.7-2.4 5.7-4.4l1.5-2.9 3.8 4.3c3.6 4 4.5 5.1 6.7 7.9.6.7 4.8 6 9.4 11.7 8.6 10.6 23.1 32.5 27.6 41.6 6 12.2 16.8 42.8 20 56.5.2.8 1.2 5.1 2.3 9.5 1.8 7.2 2.9 13.7 4.7 26 .3 2.2.8 13 1 24 .4 21.6-.6 30.3-4.6 40.3-2.1 5.3-2.1 5.4-.3 7.2 6.6 6.4 14 6.8 19.1 1.1 3.4-3.8 5.3-3.5 12.2 2.3 7.3 6.1 9.8 7.1 18.1 7 8.6-.1 13.2-1.8 18.8-6.9 2.1-1.9 5.2-3.9 6.8-4.5 2.6-1 3.1-.9 5.4 2 4.7 5.7 13.1 5.3 19.4-1 1.9-1.8 1.9-1.9-.2-6.3-3.7-7.9-4.7-15.9-4.7-37.7 0-15.8.4-21.8 2-36 .6-6.1.6-5.8 7-29.4 5.4-20 12.5-41 14.5-43 .6-.6 1-1.7 1-2.6 0-3.5 14.8-28.9 24.2-41.5 3-4 10.7-13.5 12.9-16 1.5-1.7 5.2-6.1 8.2-9.8l5.5-6.8 1.8 3c1.6 2.7 3.1 3.7 8.8 5.5 1.6.5 1.8 1.3 1.3 5.1-.8 5.6.7 9 4.5 10.6 2.4 1 2.8 1.6 2.3 3.3-.6 2.1-.9 5.6-.6 8.7 0 .9 1.5 2.2 3.1 2.9 4 1.7 4.3 2.4 2.9 6.4-1.5 4.3.1 8.8 3.7 10.5 2.4 1 2.4 1.2 1 3.3-2.3 3.2-2 8.4.4 10.1 1.9 1.3 1.9 1.6.5 5.7-1.9 5.4-1.9 6.9.1 9.1 1.4 1.6 1.4 2 0 4.8-1.9 3.5-2 6.4-.6 9.2.8 1.4.7 2.7-.5 4.8-2.3 4.6-2 9.7.9 11.6 2.6 1.7 6.8 1.2 8.6-1 1.5-1.9 1.9-6.5.8-9.7-.8-2.1-.5-3.3 1.2-5.6 1.8-2.4 2.1-3.7 1.5-7.1-.4-2.2-1.1-4.3-1.6-4.7-.5-.3 0-2.3 1.3-4.5 2.3-4.1 2.3-4-.7-11.2-1.3-3.2 1.1-1.7 2.6 1.5 2.9 6.7 11.9 3.9 11.9-3.6 0-1.9-.5-3.8-1-4.1-.8-.5-.7-1.1.1-2.1 1.7-2 1.3-8.3-.6-10.4-1.4-1.5-1.5-2.2-.4-4.1l1.2-2.3 1.5 3c.8 1.7 2.6 3.8 4.1 4.6 7.6 4.4 13.6-4.7 8.8-13.4-1.8-3.4-1.9-3.9-.5-5.5.8-1 1.8-2.6 2.1-3.6.7-1.9 2.7-1.4 2.7.7 0 .7 1.5 1.9 3.3 2.8 2.8 1.3 3.7 1.3 6.5.1 3.2-1.3 3.3-1.3 2.8.5-.4 1.1-.2 3 .2 4.3.6 1.6.4 3.5-.5 5.7-.7 1.8-1.3 5.1-1.1 7.3.1 2.2-.2 4.3-.8 4.7-2.1 1.5-3.1 5.7-2.1 8.6.6 1.8.6 3 0 3.5-1.5.9-2.1 4.6-1.1 6.4.6 1.2.2 2.5-1.3 4.6-1.5 2-2 3.7-1.6 5.4.5 1.8 0 2.9-1.9 4.6-1.8 1.6-2.4 3-2.2 5.4.1 1.8-.7 4.5-1.8 6.2-1 1.6-1.9 3.6-1.9 4.5-.1.8-.9 3.1-2 5-1 1.9-1.8 5-1.6 6.7.1 3-.5 3.8-3 3.5-1.5-.2-3.7 6.2-2.8 7.9 2.7 5.2 9.2 2 9.2-4.5 0-1.9.4-3.3.9-3 1.4.9 5.7-4.3 5.3-6.5-.2-1.3.4-2.6 1.6-3.5 2.6-1.8 4.3-7.5 2.7-9.3-.8-1-.7-1.7.8-2.8 2.5-1.9 2.8-1.9 4.9.5 2.3 2.5 4 2.5 7.7-.1 2.4-1.8 2.9-2.7 2.6-5.5-.2-2.7.4-4 2.5-6 1.7-1.6 2.7-3.5 2.7-5.4 0-1.6.6-3.5 1.3-4.2.7-.7 1.8-2.1 2.3-3.1 1-1.7 1.2-1.7 2.8.7 3.4 5.2 9.6 1.9 9.6-5.1 0-1.8 1.1-4.8 2.4-6.7 2-3 2.3-4.2 1.6-7.3-1.1-4.8 1.7-8.9 5.9-8.5 3.6.4 4.9-1.3 5.5-7.5.2-2.8 1-6.1 1.6-7.2.7-1.4.8-2.7.1-3.8-.6-1.2-.4-2.4.7-4.1.8-1.3 1.7-4 1.8-6 .7-8 1.7-12.8 3.1-14.8 1.3-2 1.2-6.1-.2-8.4-.3-.5.1-2 .9-3.2 1.3-2 1.5-5.3.5-9.3-.1-.6.1-1.8.6-2.8.4-1 .3-3.3-.2-5.1-.8-2.5-.7-3.9.3-5.7 1.5-2.7 1.8-6.2.7-7.3-.5-.4-.8-3.5-.8-6.9 0-3.4-.5-6.9-1-7.7-.6-.8-1.1-4.2-1.2-7.5-.5-13.5-1.1-19.3-2.1-21.1-.5-1-.8-4.2-.5-7.1.5-4.9.4-5.4-2.5-8.1-2.7-2.6-3-3.2-2.5-7.6.5-4.1.2-5.1-2-7.4-2.2-2.2-2.6-3.6-2.5-8.2 0-4.9-.3-5.7-3.4-8.5-2.6-2.5-3.2-3.7-2.8-5.6 1.2-4.7-2.1-13.4-5.6-14.5-4.8-1.4-4.7-1.4-3.4-2.9 3.3-4-2.7-15.7-8.8-17.3-2.4-.5-3.6-1.4-3.4-2.3 2-8-3.5-17.1-10.3-17.2-1.8 0-2-.4-1.7-2.8.2-1.6.2-4-.2-5.3-.7-2.9-7.2-9.5-9.4-9.8-1 0-2.1-.2-2.7-.2-2.2-.3-3.5-1.9-3.5-4.3 0-6.1-6.6-13.3-12.1-13.3-2.1 0-2.5-.5-2.7-3.2-.6-7.4-9-14-14.8-11.8-3.6 1.4-4 .9-4.3-4.4-.1-2.9-5-7.9-10.2-10.6-2.7-1.4-4.4-1.7-7.2-1-3.6.8-3.7.7-3.7-2.1 0-3.3-2.9-6.4-8.4-8.9-3.7-1.7-5.4-1.8-9.4-.6-1.2.4-2.3-.5-3.7-3.1-2.1-3.9-8.5-8.3-12-8.3-1.2 0-3.8.9-6 2s-4 2-4.1 2c-.1 0-.4-1.8-.8-3.9-.9-5.8-5-8.6-14.2-9.6-1.4-.1-4.1.8-6 2.1-4.2 2.9-4.4 2.9-4.4.3 0-3.4-1.8-5.8-6.2-8-4.8-2.4-11.7-2.2-14.7.5-1.9 1.7-5.1 2.2-5.1.7 0-1.4-6.7-5.2-10.7-6.1-4.3-1-7.2 0-12.4 4.1l-3.8 3-1.6-3c-.8-1.7-2.5-3.7-3.8-4.5-3.2-2.1-9.6-3.3-13.9-2.6zm11.3 5.5c3.3 1.3 4.9 9.1 3.3 15.2-.8 2.7-5.1 4.3-12 4.3-7.5 0-10.7-2.9-10.7-9.3.1-5.3 2.8-10.6 5.8-11.2 5.8-1.3 8.7-1.1 13.6 1zM289.5 56c4.4 2.7 5.7 4.4 6.1 8.1 1 8-8.9 15.5-15.6 11.9-4.4-2.3-7.4-11.2-5.7-16.6.8-2.3 5.5-4.9 9.4-5.2 1.4-.1 4 .7 5.8 1.8zm61.3 1.4c6.1 6 .2 19.6-8.4 19.6-5.2 0-11.4-6.8-11.4-12.7 0-2.3 3.8-7 7.5-9.1 3-1.8 9.6-.6 12.3 2.2zm-84.7 4.2c2.2 2.1 2.9 3.7 2.9 6.5 0 4.2-1.8 6.5-6.7 8.5-4.7 2-6.9 1.7-10.3-1.4-5.3-4.8-4.6-13.7 1.3-16.2 3.7-1.6 9.7-.4 12.8 2.6zm109.4-1.4c1.4 1.3 2.7 3.6 2.9 5.3.5 4-2 10-4.7 11.2-4.7 2.2-14-.8-15.3-4.9-1.4-4.4-.6-7.8 2.2-10.1 5.5-4.4 10.9-4.9 14.9-1.5zm-134.3 8.5c4 3.9 3.9 9.2-.3 13.3-3.2 3-4.2 3.4-8.9 3.2-7-.3-11.1-13.1-5.7-17.4 4.3-3.4 10.8-3 14.9.9zm158.7-1.8c4 2.2 4.5 11 .8 14.9-4.6 4.9-9.4 4.8-14.9-.6-8.5-8.1 3.3-20 14.1-14.3zM216.7 78.5c3.7 3.1 4 3.8 3.8 7.6-.3 4.4-3.1 7.7-6.7 8-1 .1-2.4.2-3 .3-2.5.3-7-2.9-9.1-6.5-2.6-4.4-1.8-7.6 2.5-10.7 4.6-3.1 7.7-2.8 12.5 1.3zm205.2-2c1.6.8 3.4 2.8 4.1 4.4 1.7 4.2-1.1 9.9-6.1 12.4-3.5 1.7-3.9 1.7-7.8.1-4.8-1.9-6-3.7-5.5-7.9.4-4.1 2-6.8 5.2-8.7 3.4-2.1 6.6-2.2 10.1-.3zm-97.6 8.3c2.4 4.1 2.4 9.7.1 12.4-2.5 2.8-7.2 4.6-10.9 4.3-1.6-.2-3.8-.3-4.7-.4-1-.1-3.2-1.3-4.8-2.9-2.5-2.1-3.1-3.5-3.2-6.8-.1-6.3 3.3-10.1 11.2-12.6 3-1 10.3 2.6 12.3 6zm-33.7-.4c3 3 3.4 4 3.4 8.4 0 4-.6 5.7-2.7 8.2-2.4 2.9-3.1 3.2-7.3 2.8-13.2-1.3-16.7-14.2-5.7-20.8 4.8-3 8.3-2.6 12.3 1.4zm60.6.3c3.8 3.6 5.2 8.7 3.3 12.3-2.6 5-8.8 7.7-15.1 6.6-2.8-.6-3.8-1.4-5-4.1-3-7.3-.8-15.1 5-17.6 3.4-1.4 8.7-.2 11.8 2.8zm-153.9 6.5c3.1 4.8 2.8 7.9-.9 11.8-1.9 1.9-3.5 2.5-6.7 2.5-5.2 0-7.3-1.8-9.1-7.9-1.2-4-1.2-4.8.4-7.4 2.1-3.4 8.1-5.4 11.6-3.9 1.1.5 3.3 2.7 4.7 4.9zm66-2.2c5.2 5.8 3.1 17.2-3.8 20.5-4.5 2.1-9.2.8-14.2-3.8-5.8-5.3-2.2-16.2 6.4-19.2 5.1-1.8 8.3-1.2 11.6 2.5zm114.6-1.2c9.9 7.3 8.3 18.7-3 22.1-7.7 2.3-13.9-3.3-13.9-12.6 0-10.2 9.1-15.3 16.9-9.5zm66.6.8c2.9 2.7 3.3 7.3.9 11.9-2.6 5-7.3 6.6-12.2 4.1-5.9-3-7.2-7.1-4-12.7 3.7-6.7 10.1-8.1 15.3-3.3zM232.4 99c3.5 1.9 6 7.7 5 11.5-.3 1.2-1.9 3.5-3.4 5-4 3.8-10.9 4-14 .5-6.6-7.6-5.9-13 2.5-18.1 3.2-2 4.8-1.8 9.9 1.1zm171.4-1.6c4.1 2.1 7.3 6 7.6 9.2.7 6-7 13.1-13 12-5.5-1-10.2-8.3-8.5-12.9.6-1.4.8-2.7.5-3-.9-.8 7.2-6 10.4-6.6.2-.1 1.5.5 3 1.3zm-227.4 3.7c7.7 9.1-3.7 21.2-13.7 14.5-6.2-4.2-5.7-10.6 1.2-15.3 4.9-3.3 9.3-3 12.5.8zm286.4-1.1c4.4 2.7 6.9 8.1 5.4 11.4-2.6 5.7-11.9 8-16.3 4.1-3.3-3-4.9-7.4-3.7-10.5 2.6-6.8 8.3-8.8 14.6-5zm-141.1 10c1 0 5.3 5.5 5.4 6.8.1.9.3 2.7.4 3.9.3 2.6-2.7 9.7-4.6 10.8-1.9 1.2-16.1 1.4-18.2.3-1-.5-2.7-2.8-3.7-5-2.7-6.2-1.4-12.8 3.3-15.8 2.9-1.8 10.4-2.8 14.2-1.8 1.6.4 3.1.8 3.2.8zm113.3 2c4 3.7 4.8 7.5 2.4 11.9-4.9 9-18.6 9.5-22.8.7-2.9-6 .4-12.2 7.8-14.7 5.8-2 8.8-1.5 12.6 2.1zm-227.2-1c3.8 2.3 6.6 8.1 5.6 11.3-.3 1.2-1.8 3.4-3.2 4.9-8.8 9.4-26.5-.9-20.8-12.1 3.1-6 12-8 18.4-4.1zm82 3.1c4.1 2.6 6 11.1 3.6 16.1-1.9 3.6-6.1 6.8-9.3 6.8-3.7 0-8.5-3.2-10.3-7-5-10.3 6.6-21.7 16-15.9zm58.4-.1c1.6.8 3.7 3.2 4.9 5.6 1.8 3.7 1.9 4.9.9 7.8-2.5 7.6-8.6 11.1-14.6 8.3-4.2-2-6.5-5.5-6.9-10.5-.8-9.8 7-15.3 15.7-11.2zm-195.7.5c6 2.5 7 9.6 1.9 14.3-2.1 2-3.2 2.3-6.2 1.8-4.9-.7-8.5-4.5-8.4-8.7.1-3.5 1.2-5 5.7-7.3 3.6-1.9 2.9-1.9 7-.1zm329.1 0c3.6 1.5 6.7 6.5 5.6 9.4-1 3.1-4.6 6.1-7.8 6.7-3.7.7-6.8-.7-9-4.2-2.5-3.8-.4-10 3.9-11.9 4-1.8 3.2-1.8 7.3 0zm-219.8 5.1c4.7 3.1 6.5 11.1 3.7 16.4-3.6 7-14.8 7.6-21.1 1.3-2.3-2.3-2.6-3.2-2-7.1.7-5.5 2.7-8.7 6.7-11.1 3.4-2.1 9.1-1.9 12.7.5zm115.8-.5c2.8 1 6.2 5.9 7 9.8 1.5 7.3-4.2 12.5-13.5 12.4-4.6 0-5.8-.5-7.7-2.7-1.3-1.4-2.6-4.5-2.9-6.9-.9-6 1.4-10.3 6.8-12.7 4-1.8 5.3-1.8 10.3.1zm-194 7.4c3.9 3 4.3 5.8 1.8 11.1-3 6.2-10.4 7.8-16.4 3.5-2.9-2-4.6-7.6-3.6-11.5 1.6-6.4 11.7-8.1 18.2-3.1zm274.8-1.1c3.1 2 4.2 5.7 3 10.4-2.4 9.4-16.3 10.5-20 1.7-2-4.8-1.8-7 .9-9.9 3.8-4.3 11.4-5.3 16.1-2.2zm-223.6 5.1c1.2 1.5 2.2 3.4 2.3 4.3.1.9.2 3 .4 4.7.5 6.2-3.4 10.8-9.3 11.1-6.3.3-13.8-8.7-12.6-15.2.7-3.8 2.1-5.4 6.8-7.5 4.7-2.1 9-1.2 12.4 2.6zm173-.8c2.5 2.1 3.3 3.7 3.4 6.3.2 7.1-5.2 14-11.5 14.5-4.9.4-6.5-.5-8.6-4.7-3.1-6.3-1.2-14.9 3.9-17.5 4.3-2.2 9.2-1.6 12.8 1.4zm-268.3 2.4c3.1 2.8 3.5 3.6 3 6.3-1.6 7.9-11.3 11.5-16.2 6.1-3.1-3.4-2.3-9.1 1.7-12.8 3.9-3.5 7.1-3.4 11.5.4zm357.9-2c4.6 2.1 6.5 11.1 3.1 14.9-2.2 2.4-8.1 2.7-11.3.4-2.2-1.5-4.9-6.1-4.7-7.9.3-2.9 1.8-5.2 4.2-6.7 3.3-2.1 5.3-2.2 8.7-.7zm-334.8 12.6c4.6 3 5.7 7.9 2.9 13.3-1.6 3.2-6.1 6-9.5 6-6.8 0-13-6.3-12.4-12.6.9-9.1 10.3-12.5 19-6.7zm41.9-2.4c4.4 1.5 8.4 5.6 9.1 9.4.5 2.5 0 4.3-2.1 7.8-4.4 7.6-10.7 8.3-17.2 1.8-5-5-6.5-9-4.7-12.4 1.9-3.7 7-7.8 9.7-7.7 1.2 0 3.6.5 5.2 1.1zm225.8-.2c4.6 2.4 7.7 6.2 7.7 9.4 0 6.2-8.5 14.5-14.9 14.5-4.3 0-10.9-9.8-9.7-14.5.8-3.3 4.6-7.6 8-9.1 3.8-1.6 6.1-1.7 8.9-.3zm51.2 3.6c2.3 3.4 2.3 9.4.1 12.8-6 9.1-21.6 5.1-21.6-5.6 0-9.8 16.3-15.2 21.5-7.2zm-162.1-2.1c7.1 4.9 7.4 16.7.5 20.8-10 5.9-19.5-1.4-17.4-13.5.8-4.2 1.1-4.7 4.8-6.9 3.5-2.2 9.3-2.3 12.1-.4zm-29.3 3.4c.4 0 1.8 1.2 3.3 2.6 6.1 6.2-.7 19.4-10 19.4-3.9 0-10.4-6.8-10.4-10.9 0-7.5 6.4-13.5 12.9-12 2 .5 3.9.9 4.2.9zm57.9 0c2.9 1.5 6 6.9 6 10.3 0 4-2.7 8.2-6.6 10.3-6.8 3.7-15.1-2.2-16.1-11.2-.2-1.9 0-4.2.5-5 2.3-4.2 11.8-6.7 16.2-4.4zm-224.8 2.8c2.3 1.3 2.8 2.3 2.8 5.4 0 7.5-7.4 11.8-13.7 7.9-6.8-4.2-2.8-14.2 5.9-14.8 1.2-.1 3.4.5 5 1.5zm389.1-.6c8.2 4.4 8 12.4-.4 15-3.5 1-4.3.9-6.7-.9-1.5-1.1-3.3-3.7-4-5.9-1.3-3.8-1.2-4 1.8-6.7 3.3-2.9 5.9-3.4 9.3-1.5zm-252.9 3.2c4.7 2 7.6 6.5 7.6 11.8-.1 6.9-6.1 12.6-12.3 11.4-11.7-2.2-14.9-17.6-4.8-23.1 3.3-1.8 5.4-1.8 9.5-.1zm120.4 2c3.5 3.4 4.1 10.9 1.2 15.4-6.5 10.4-21 5.9-21-6.5 0-9.9 13-15.7 19.8-8.9zm-192.9 6.5c2.2 2.2 4.1 5 4.3 6.3.8 5.5-3.5 10.7-9.7 11.5-5.9.8-14.4-5.1-13.9-9.7 0-.8.2-2.3.2-3.4.1-1 1.8-3.4 3.8-5.2 5.2-5 10-4.8 15.3.5zm266.9-1.9c3.9 2.4 6.2 7.3 5.5 11.3-1.3 6.8-12.7 10.7-19 6.4-5.7-3.9-5.9-9.7-.5-15.5 4.5-4.9 8.6-5.5 14-2.2zm-309.2 6.1c3.9 4.3-.1 15-6.2 16.5-7.3 1.8-15.5-3.7-15-10.2.7-9 14.9-13.2 21.2-6.3zm89.5-1.4c6.1 3.6 6.9 11.3 1.8 16.2-5.9 5.7-13.9 4.9-18.4-1.7-3.4-5-3.2-9.1.6-12.9 4.3-4.5 10.1-5.1 16-1.6zm170.1-1.8c3 1.1 7.4 5.6 8.1 8.1.7 2.5-3 9.7-5.9 11.6-6.1 4.1-13.9 1.9-17.2-4.8-3.3-6.5-.4-12.4 7.3-14.7 4-1.2 5-1.3 7.7-.2zm92.6.4c2 .1 7.2 6.5 7.2 9-.1 5.5-6 10.7-12.2 10.7-8.6 0-14.2-10.1-9.3-16.6 2.5-3.3 5.7-4.4 10.5-3.6 1.4.2 3.1.5 3.8.5zm-386 6.5c.6.9 1.2 3.3 1.2 5.3 0 6.7-7.3 10.7-13.3 7.3-3.9-2.2-1.3-13 3.3-14 1.4-.3 3-.7 3.5-.8 1.6-.5 3.9.5 5.3 2.2zm417 .8c1.5 1.8 2.2 3.8 2.2 6.8 0 4.6-.7 5.3-6.3 6.3-4 .6-8.7-4.3-8.7-9.1 0-7.3 7.7-9.7 12.8-4zm-206.4 4c5.1 3.8 6.8 11.8 3.7 17.1-4.4 7.1-21.3 6-24.2-1.5-2.5-6.3 2.4-16.2 8.5-17.6 3.8-.8 9.4.2 12 2zM166.2 175c3.5 3.4 4 4.4 3.4 7-1.5 7.8-7.8 11.4-14.4 8.3-6-2.9-7.8-8.3-4.7-14.3 1.9-3.6 4.1-4.9 8.4-5 2.6 0 4.2.9 7.3 4zm306.9-3c3.2 1.7 5.7 8 4.7 11.5-1.2 4.2-6.3 7.9-10.5 7.8-4.7-.1-7.7-2.4-9.3-7.2-1.2-3.8-1.1-4.3 1.1-7.5 1.3-1.9 3.3-3.9 4.4-4.5 2.7-1.3 7.2-1.3 9.6-.1zm-183.8 4.9c2.1 1.2 3.8 2.9 3.8 3.7.1.8.2 2 .3 2.6.3 2.1-1.6 7.1-3.8 10-5 6.9-16.9 3.2-19.6-6.1-2.9-10.1 9.1-16.5 19.3-10.2zm63.4-1.1c4.8 2.6 6.1 9.8 2.7 15-2.1 3.3-7.4 6.2-11.1 6.2-7.5 0-13.9-13.4-8.8-18.6 3.8-3.9 12.4-5.2 17.2-2.6zm-146.6 1.1c5.6 2.1 7.8 10.3 4.3 15.6-1.6 2.5-6.9 4.2-10.9 3.6-6.1-.9-11.2-7.3-9.7-12.3 2.2-7.5 8.2-10 16.3-6.9zm226.5.2c6.2 3.2 6.3 12.7.3 17-4.6 3.3-13.6 2.5-16.4-1.4-2.3-3.3-1.9-10.1.8-13.1 3.6-4 10.3-5.1 15.3-2.5zm-306.5 5.8c3.3 3.3 3.6 6.4 1.4 11.8-1.9 4.5-4.1 6.2-8.2 6.3-7.9 0-11.7-3.3-11.6-10.2.2-5.7 2-8.4 6.7-9.7 5.8-1.7 8.6-1.3 11.7 1.8zm131.5-.8c1.5.8 3.6 2.7 4.5 4.4 1.5 2.6 1.6 3.5.5 6.7-1.4 4-2.7 5.5-6.8 8.2-6 3.9-14.8-1.2-14.8-8.5 0-10.2 7.6-15.1 16.6-10.8zm124.4.9c3.3 3 5.3 9.2 4 12.3-1.3 3.4-5.4 6.7-9.1 7.3-2.5.4-4.3 0-6.9-1.8-8.8-6-8-16.3 1.5-19.6 4.5-1.5 7.5-1 10.5 1.8zm131.5-1.6c4.1 1.8 5.7 4.5 5.8 10.2.1 4.6-1.2 6.4-6.1 8.4-7 2.9-13.4-.6-14.6-8.1-1.5-9.4 5.6-14.4 14.9-10.5zm-417.7 2.7c3.4 1.2 4.3 2.8 4.7 8.1.3 4.2-2.5 7.7-6.6 8-3.3.3-8.6-2-9.3-3.9-1-2.6 1.3-9.1 4.1-11.2 3-2.4 3-2.4 7.1-1zm444 2.5c2.4 2.8 3 4.4 2.7 7.2-.5 5.2-5.9 7.9-11.4 5.6-3.9-1.6-5.6-5.6-4.4-10.4.6-2.8 1.5-3.7 4.3-4.7 5.1-1.7 5.6-1.6 8.8 2.3zm-389.9 5.5c3.2 3 4.1 6.2 3 10.3-1 3.5-5.8 8.5-8.5 8.7-.8.1-2 .2-2.7.3-2.1.2-8.4-5.4-9.8-8.5-3.5-8.6 11-17.3 18-10.8zm340-.6c2.7 1.4 6.1 6.8 6.1 9.8 0 1.8-7.5 9.7-9.2 9.8-.7 0-2 .2-2.9.4-2.6.5-8.7-5.2-9.8-9.1-2.5-9 6.9-15.5 15.8-10.9zm-304.4 2.9c3.2 2.1 4.8 6 4 9.6-.8 3.8-5.5 7.9-9 8.1-6 .4-7.7-.2-10.7-3.1-2.5-2.5-2.9-3.6-2.6-6.8.6-4.4 2.4-7.7 5.3-9.1 2.7-1.5 9.9-.7 13 1.3zm46-.2c5.2 2.6 6.8 7.8 3.9 12.8-1.7 2.9-6.8 6.4-9.4 6.5-2.3.1-8.3-3-10.5-5.5-2.3-2.5-2.5-9.1-.4-11.6 3.3-4 10.7-5 16.4-2.2zm178.2.3c3.4 2.2 4.6 6 3.3 10-1.3 4.1-3.8 6.3-8.7 8-3.3 1.1-4.2 1.1-7.4-.5-3.7-1.9-6.9-7-6.9-10.8 0-1 1.2-3.1 2.6-4.6 4.5-4.5 12-5.4 17.1-2.1zm47.4.6c4.1 5.5 3.1 13.7-1.9 15.8-6.9 2.9-12.3 1.6-16.2-3.8-5.2-7.5 1.4-15.6 11.9-14.7 3.2.3 4.9 1.1 6.2 2.7zm-137.7 5c6 4.8 7.9 15.9 3.5 21-1.7 1.9-3 2.4-8.2 2.5-7.5.1-11.3-1.5-12.1-5.3-1.3-6.1-1.3-7 0-10.8 2.7-8.2 11.1-11.9 16.8-7.4zm-27.6 5.4c3.6 3.9 4.2 8.2 1.8 13.8-1.8 4.3-4.4 6.4-8.7 7.1-4.3.7-7.5-1.4-10.9-7-2.8-4.4-2.2-8.5 2-13.6 4.7-5.7 10.6-5.8 15.8-.3zm59 .2c5.5 6.3 5.5 10.8-.2 17-2.8 3.1-4 3.7-7.4 3.7-5.1 0-8.5-2.9-10.6-9-1.4-4-1.3-4.6.7-8.6 2.5-4.8 7.6-8 11.7-7.3 1.4.2 4 2.1 5.8 4.2zm-264.2-1.4c1.7 1.7 2 7.7.6 10.7-1.4 3-1.8 3.2-5.4 2.7-2.1-.3-4.5-1.1-5.3-1.7-2.9-2.4-1.1-10 2.9-11.8 2.1-1 6.2-.9 7.2.1zm24.2.6c3.1 1.6 3.5 5.6 1.3 10.7-3.3 7.5-10.2 8.9-16.1 3.4-3.7-3.5-3.8-6.8-.5-10.8 3.7-4.4 10.6-5.8 15.3-3.3zm415.5-.4c3.2.9 7.7 5.8 7.7 8.6 0 6.7-9.9 11.4-15.6 7.5-1.1-.8-2.9-3.3-3.9-5.5-1.5-3.4-1.6-4.5-.5-7 .7-1.7 2.3-3.4 3.9-3.9 2.7-.9 3.5-.9 8.4.3zm23.1 1.6c2.9 3.4 3.4 8 1.2 9.8-.8.7-3 1.5-4.9 1.8-2.9.4-3.8.1-5-1.8-2.5-3.9-2.6-8.9-.1-11.3 2.5-2.5 5.9-1.9 8.8 1.5zm-121.1.8c3.4.2 6.7 4.7 6.7 9.1 0 6-4.1 10-10.3 10-3.8 0-4.9-.5-7.1-3.1-3-3.5-3.4-7.8-1-11.8 1.7-2.8 5.7-5 8.4-4.5.8.1 2.3.3 3.3.3zm-220.2 1.4c4.6 3.5 5.1 10.1 1.3 14.7-2.2 2.6-3.3 3.1-6.3 2.9-5.2-.4-9.1-2.6-10.6-6.1-1.6-3.8-.5-8.5 2.6-11.1 2.5-2 10.5-2.3 13-.4zm52.6 2.8c4.1 1.5 6.7 5.6 6.9 10.7.1 5.8-1 8.4-4.6 10.5-6.5 3.9-16.3.6-18.4-6-1.4-4.5-1.5-6.6-.2-9.7 2.9-6.9 8-8.6 16.3-5.5zm119 1.1c4.6 4.3 5 11.7.8 16.9-3.9 4.9-9.5 6.4-15.2 4-6.6-2.7-8.3-13.8-3-19.1 5.2-5.2 12.9-6 17.4-1.8zm-246.2.8c3.3 3.1 4.1 7.4 2 11.9-1.8 4.2-4 5.8-8.6 6.6-6 1.1-12.2-3.7-12.2-9.4 0-4.1 3.2-9.9 6.1-11 4-1.5 10.1-.6 12.7 1.9zm373.7-1.2c3.1 1.8 5.8 7.6 5.1 11.1-.5 2.9-3.3 6.9-5.3 7.5-7.7 2.6-13 .6-15.5-5.6-2.1-5.3-1.9-7.2 1-10.7 3.5-4.1 9.9-5.1 14.7-2.3zm-340.6 1.8c4.2 2.8 2.8 10.9-2.6 15.1-3.8 3-14.4.1-16.1-4.4-1.3-3.4 1.2-8.8 5.3-11.3 3.7-2.4 9.2-2.1 13.4.6zm309 .5c3.6 3.3 4.8 8.8 2.6 11.3-.9 1.2-1.7 2.2-1.7 2.3-.1.1-1.7.9-3.6 1.6-7.2 2.9-14.9-2.2-14.9-10 0-4.2.2-4.5 4.3-6.4 5.1-2.4 10-1.9 13.3 1.2zM79.2 228.5c-.7 3.8-4.6 6.1-7.7 4.7-3.9-1.8-3-8.3 1.6-10.8 2.2-1.2 2.6-1.1 4.5 1 1.5 1.7 2 3.3 1.6 5.1zm475.7-5.6c3 2.6 3.7 8.7 1.2 10.1-3.1 1.6-6.9-.4-8-4.2-.8-2.9-.6-3.6 1.6-5.6 2.9-2.7 2.5-2.6 5.2-.3zm-366.1 1.2c5 3.1 5.2 9.2.6 14.2-6.2 6.7-16.8.3-15.4-9.3.7-5.5 9.3-8.3 14.8-4.9zm44.6-.7c4.7 2 7.6 6.1 7.6 10.9 0 3.4-.6 4.6-4 7.9-4 3.7-5.8 4.4-11 3.9-4.2-.4-9.9-7.1-9.5-11.1.1-.8.3-2.6.3-3.9.1-1.2 1.7-3.8 3.6-5.7 3.8-3.8 7.4-4.4 13-2zm172.9 1.3c3.4 3.6 4.9 10 3.2 13.9-1.5 3.4-5.1 6.9-8.3 7.9-5.4 1.6-13.2-3.9-15-10.7-.9-3.1-.7-4.1 1.3-7.1 4.7-6.9 14.1-8.8 18.8-4zm44.5.6c5.3 6 1.7 14.3-6.6 15.4-3.1.4-4.2 0-6.5-2.2-1.5-1.5-2.8-3.3-2.9-3.9-1-7.2 1-10.5 6.8-11.5 5-.9 6.8-.4 9.2 2.2zm-353.7 2.6c5.9 5.9 1.9 14.5-6.3 13.5-4.3-.4-8.8-4.1-8.8-7 0-8.6 9.1-12.5 15.1-6.5zm443.4-2.1c2.2 1.6 3.7 4.4 4.2 7.6.4 3.2.1 3.7-3.6 6-4.5 2.9-6.2 3.1-9.4 1.4-5.5-2.9-6.3-8.4-1.8-12.9 2.9-2.9 8.2-3.9 10.6-2.1zm-220.9 4.7c3.7 1.5 5.9 5.3 6.7 11.5.8 6.7-3.3 10.8-11.3 11.2-6.8.3-9.1-.2-11.5-2.7-3.2-3.1-3.5-11.4-.5-16.2 2.9-4.9 10.1-6.5 16.6-3.8zm-172.2 1.6c3.6 1.7 5 9.5 2.3 13-3.3 4.3-11.1 5.2-15.8 1.8-8.6-6.1 3.4-19.4 13.5-14.8zm341.6.1c4.5 2.3 7 5.9 7 10.1 0 3.6-3.1 5.8-9.1 6.4-4.9.5-5.6.3-8.1-2.2-3.5-3.5-3.9-9.7-.9-12.9 2.3-2.5 7.6-3.1 11.1-1.4zm-369.1 4.7c3 4.2 2.7 8.6-.9 12.2-2.5 2.6-3.5 2.9-7.1 2.5-4.9-.6-8.8-3-9.1-5.4 0-.9-.2-2.4-.3-3.2-.5-5 3.5-9.5 9.1-10.2 3.7-.5 5.8.5 8.3 4.1zm172.4-.9c3.1 3.5 3.5 8 1.3 13.5-1.5 3.6-5.3 6.1-10.6 7-2.7.5-3.7.1-6.6-3-1.9-2.1-3.5-4.8-3.6-6.3-.4-8.6 1.8-12.4 8.1-14 5.2-1.3 8.2-.5 11.4 2.8zm56.6-1.5c3.7 1.9 5 3.6 5.3 7.1.6 7.6-2.8 13.8-8.3 14.7-3.9.7-10.5-2.6-12.4-6.2-3.1-6.2-1.2-14.5 3.9-16.9 2.6-1.2 7.9-.6 11.5 1.3zm172.6.8c3.1 3.2 4.1 9.3 2 12.7-.3.6-2 1.7-3.7 2.6-6.3 3.3-14.8-1-14.8-7.5 0-3.4 3.4-9 6.2-10 2.8-1 8.2.2 10.3 2.2zM72.1 239c4.4 2.4.4 10.8-4.3 9.1-3-1.1-3.8-6.9-1.2-8.8 2.2-1.6 3-1.6 5.5-.3zm96.8.1c1.8.6 3.8 2.4 4.6 4 1.4 2.5 1.4 3.3.1 6.3-1.7 4.1-4.8 6-9.5 5.8-5.1-.2-8.1-2.6-8.1-6.5 0-5 2.7-8 9.6-10.7.1 0 1.5.5 3.3 1.1zm300.3 3.1c2.6 3.5 2.4 9.4-.6 11.3-2.9 1.9-8.4 2.2-11.4.6-6.5-3.4-5.7-14.3 1.1-15.3 3.9-.6 9 1 10.9 3.4zm90.9-3.2c1.3.7 1.9 2.1 1.9 4.5 0 3.5-.7 4.4-4 5-4 .8-6.8-7.3-3.2-9.4 2.2-1.3 2.9-1.3 5.3-.1zm-353.5 1.4c8.8 2 10 12.2 2.4 19.1-3.2 2.9-9.9 2.5-15-.9-6.3-4.1-6.6-9.6-1-15.3 3.8-3.9 6.7-4.5 13.6-2.9zm225.9 1.2c2.6 1.7 5.5 7.1 5.5 10.4 0 3-4.9 7.6-9.8 9.1-3.3.9-4.7.9-7.2-.1-6.8-2.8-10.6-12.5-6.5-17 4.2-4.7 12.8-5.8 18-2.4zm-171.1 1.8c4.5 1.9 7.9 7.5 7.3 12.2-.9 6.7-7.7 10.5-13.6 7.6-3.6-1.7-6.9-5.4-7.7-8.7-.9-3.6 2-8.9 5.7-10.8 4.2-2 4.2-2 8.3-.3zm112 0c2.1.9 3.9 2.7 5 5.1 1.6 3.3 1.6 4.1.4 7.3-4.1 10.9-19 10.6-20.4-.3-.9-6.3 3.3-11.3 11.4-13.4.1-.1 1.7.5 3.6 1.3zm-285.9 3c1.3 1.3 2.7 3.6 3.1 5 .8 3.3-1.3 8.6-3.5 8.7-.9 0-2.7.3-4.1.5-3.5.6-8-1.5-9.1-4.3-1-2.7.7-7.7 3.5-10.6 2.5-2.5 7.2-2.1 10.1.7zm462-.8c2.3 2.4 4.1 6.6 3.9 9.2-.2 3.6-2.5 5.2-7.7 5.6-3.9.4-5.3 0-7.4-1.8-2.3-2-2.5-2.7-1.9-6 1.4-7.2 8.9-11.2 13.1-7zm-411.9 12c.9 3.6-.3 8.5-2.9 11.7-1.7 2.2-3.4 3-6.7 3.4-5.4.6-8.8-1.6-9.6-6.1-.6-3.6 2.8-10.9 5.9-12.4 5.7-2.9 12.2-1.2 13.3 3.4zm101.5-2.9c9 5.4 3.9 21.3-6.3 19.9-4.7-.7-7.1-2.2-9.2-5.7-2.2-3.8-2-7.7.7-11.6 3.5-5.2 8.8-6.1 14.8-2.6zm159.4-1.3c1.1.3 3 2.1 4.3 3.9 4 6 2.5 12.1-4 15.7-4.8 2.7-9.4 2.1-12.9-1.6-1.9-2-2.4-3.6-2.4-7.9 0-5.8 1-7.2 7-10 2.9-1.4 3.6-1.4 8-.1zm108.7 6.3c.9 2.1 1.4 4.9 1.3 6.3-.2 1.4-.4 2.8-.4 3.2-.2 1.3-5.9 3.8-8.8 3.8-7.1-.1-13.1-11.7-9-17.4 3.8-5.2 14.3-2.7 16.9 4.1zm59.9-3.9c0 .4.2 1.6.4 2.6 1 5.3-4.1 7.1-7.5 2.6-2.1-2.8-1.6-5.4 1.3-6.8 2.1-.9 5.6 0 5.8 1.6zm-499.7-.3c1.6 1.7 1.2 3.9-1.2 6.7-3.2 3.8-8.1.4-6.6-4.5 1.2-3.9 5-4.9 7.8-2.2zm40 .5c1.4.5 3.2 2 4.1 3.4 3.3 4.9-2 12.6-8.7 12.6-3.8 0-8.6-3.5-9-6.7-.4-3.3 1.5-7.8 3.9-9.2 2.3-1.3 6.5-1.4 9.7-.1zm423.5 1.6c1.3 1.6 2.1 4.1 2.1 6.5 0 9.2-13.4 10.9-17.5 2.2-2.9-6 .9-10.7 8.8-11.1 3.8-.2 4.8.1 6.6 2.4zm-343 2.2c3.5 2.6 5.3 8.8 3.5 12.3-1.9 3.7-7.1 7.9-9.9 7.9-6.9 0-14.1-7-13-12.6.2-1.1.4-2.2.4-2.5.2-1.2 5.6-6.1 7.6-6.9 3.1-1.2 8.5-.4 11.4 1.8zm263.4-1.3c6.6 3.2 9 10.2 5.3 15.3-6.1 8.7-16.1 8-20.7-1.5-2-4.2-2-4.4-.2-8 1.8-3.8 6.9-7.3 10.6-7.3 1.1 0 3.3.7 5 1.5zm-293.6 1.7c2.1 1.7 1.2 9.4-1.5 12-2.8 2.8-9 2.7-11.4-.2-3.3-4.1-2.1-10.2 2.7-12.9 2.3-1.3 8-.7 10.2 1.1zm160.4-1.2c2.4 1.3 4.5 5.4 5.3 10.1.4 2.8 0 4.5-1.7 7-2.2 3.2-2.6 3.4-8.2 3.4s-6-.2-8.2-3.3c-3.9-5.8-1.9-14.2 4-16.7 3.9-1.7 6.2-1.8 8.8-.5zm164.1 2c2.4 3 2.3 9.2-.1 11.4-2.9 2.6-7.9 2.6-10.9.1-2.1-1.8-2.6-3.2-2.6-7.1-.1-4.1.2-5 2.4-6.1 3.4-1.8 9.1-.9 11.2 1.7zm-190.7 3.9c4 2.3 5.9 8.5 3.7 12.3-2.2 3.8-8.6 7.2-12.4 6.4-8.9-1.8-11.4-15.9-3.5-19.9 3.6-1.8 7.6-1.4 12.2 1.2zm54.3-2c.8.1 2.6 1.4 4.2 3 2.4 2.3 2.8 3.4 2.3 6.2-1.7 11-7.6 14.5-15.9 9.5-6.5-3.9-7.4-10.4-2.3-15.5 2.8-2.8 5.7-4 8.9-3.5.8.1 2.1.3 2.8.3zm-266 2.5c2.7.9 5.4 5.7 4.8 8.8-.3 1.3-.5 2.6-.5 3-.1.5-1 1.7-2.1 2.8-2.6 2.6-7 2.5-10.5-.2-2.5-1.9-2.7-2.6-2.3-7 .8-7.4 3.8-9.6 10.6-7.4zm477 2.9c1.2 2.6 1.7 5 1.3 7-1.5 7.3-11.9 9-14.6 2.4-2.9-7.2.8-12.9 8.9-13.3 2-.2 2.9.6 4.4 3.9zm-342.5.3c6.1 1.9 8.6 10 4.8 15.7-3.8 5.8-9.1 7.4-14.8 4.4-5.1-2.7-7.6-6.6-7-11 .6-4.7 2.1-6.5 7.1-8.8 3.8-1.7 5.4-1.7 9.9-.3zm208.4.1c4.1 1.9 7.3 6.6 7.3 10.5 0 5.4-9.7 12.5-15.2 11-2.9-.7-7.7-6-8.7-9.5-1.5-5.5 3-11.6 9.4-13 3.4-.8 3.6-.7 7.2 1zm-359.1 2.7c.7 3.1-1.2 6.8-3.4 6.4-1-.2-1.8-1.5-2-3.1-.6-5.1 4.2-8 5.4-3.3zm504.2-1.2c.7.7 1.2 2.7 1.2 4.4 0 2.7-.4 3.2-2.1 3.1-2.6-.2-4.3-3.2-3.5-6.3.7-2.6 2.5-3.1 4.4-1.2zm-190.2 3.9c3.2 3 2.5 9.3-1.5 13.2-2.3 2.4-3.7 2.9-7.2 2.9-8.1-.1-12.5-6.3-9.6-13.4 2.7-6.5 12.7-8 18.3-2.7zm-114.7-2c3.1 1.1 6.1 5.2 6.1 8.4 0 3.1-3.2 7.7-6.2 9-5.8 2.4-11.3.2-14.4-5.7-4.4-8.4 4.1-15.3 14.5-11.7zM99 276.5c3.2 1 4 2.2 4 6.2 0 7.3-9.4 11.6-14 6.3-2.8-3.2-2.6-8.5.4-11.5 2.4-2.4 4.6-2.6 9.6-1zm20.9-.4c3.8 1.3 5.1 3.5 5.1 8.4s-3.6 8.5-8 8c-7.1-.9-10.6-10.1-5.8-15.2 2.4-2.6 4.1-2.8 8.7-1.2zm395.8 1c4.2 4 2.5 12-3.2 14.6-1.1.5-2.6.8-3.2.7-.7-.1-2-.2-2.8-.3-1.9-.1-5.4-5.7-5-7.9.2-1 .4-2.3.4-3 .2-2.3 4.8-5.8 8.2-6 2.2-.2 4 .4 5.6 1.9zm21.5-.2c2.8 2.2 3.6 8.5 1.5 11.3-5.1 6.6-14.7 2.5-14.7-6.3 0-3.8 1.8-5.4 7-6.2 1.4-.2 2.8-.5 3.1-.6.4 0 1.7.8 3.1 1.8zm-392.1 3.6c.5 5.9 0 8.4-2.3 10.5-6 5.6-13.7-.6-10-8.1 2.7-5.4 11.9-7.2 12.3-2.4zm346-1.5c2.9 1.6 4.7 6 3.8 9.4-1 3.4-2.4 4.6-6 4.6-5 0-9.3-8.4-6.7-13.3 1-1.9 5.8-2.3 8.9-.7zm-323.9 1.1c7.4 3.4 8.4 14.6 1.6 19.3-8.5 6-21.7-4.5-17-13.4 3.2-5.9 9.9-8.5 15.4-5.9zm302.8.4c7.7 4 7.9 15.4.5 19-6.8 3.1-13 1.4-16.1-4.6-2.7-5.4-.6-11.3 5.2-14.4 3.7-1.9 6.7-1.9 10.4 0zm-228.5 5.2c.8 1 1.5 2 1.5 2.3.8 3.4.6 4.9-1 8.1-2.2 4.1-7 6.4-11.3 5.4-6.2-1.6-9.8-10.7-6-15.3 3.4-4.3 13.8-4.6 16.8-.5zm159.7-.9c1 1 2.1 3.7 2.4 6 .4 3.5 0 4.6-2.5 7.4-2.5 2.8-3.5 3.2-7.6 3.2-2.7-.1-5.3-.7-6.1-1.6-2.6-2.6-4.3-8.8-3.2-11.9 1.8-5.2 12.9-7.2 17-3.1zm-339.4 1.4c.3 2.2-.2 2.9-2.2 3.4-4.4 1.1-6.2-1.9-3-5.1 2.3-2.3 4.8-1.5 5.2 1.7zm509.2-1.1c1.6 2.9.5 4.9-2.4 4.9-1.9 0-2.7-.7-3.2-2.4-.3-1.4-.3-3 .1-3.5 1.1-1.8 4.4-1.2 5.5 1zm-493.1 3.3c.8 1 1.5 3.9 1.5 6.3.1 3.6-.4 4.9-2.3 6.4-5.2 4.2-11.1 1.5-11.8-5.5-.5-3.8-.2-4.8 2.1-7.1 3.1-3.1 8.3-3.2 10.5-.1zm481.8.2c2.2 2.2 2.5 3.2 2 7.2-.3 2.8-1.2 5.1-2.3 5.9-2.9 2.1-7.2 1.6-10-1.2-2.2-2.2-2.5-3.2-2-6.5.8-5.9 2.5-8 6.4-8 2.2 0 4.1.8 5.9 2.6zm-361.4 2.2c3.8 3.6 3.4 7.8-1.2 12.3-2.5 2.6-4.8 3.9-6.5 3.9-10.7 0-15.1-10.7-6.9-16.9 3.6-2.8 11.3-2.4 14.6.7zm246 .1c5 4.6 4.1 11.7-1.8 14.6-6 2.8-10.6 1.5-14.3-3.9-2.9-4.3-2.8-6.8.6-10.4 2.5-2.7 3.4-3 8-2.8 3.8.1 5.7.8 7.5 2.5zm-350.7 5c1.6.1 3.3 4.5 3 7.6-.6 5.1-7.1 8.9-10.7 6.2-2.8-2.1-3.7-4.8-2.8-8.1 1.1-3.9 4-6.4 7.1-6 1.2.1 2.8.3 3.4.3zm266.7 3.2c4.1 5 .1 13.3-6.4 13.1-7.3-.2-10.4-8.9-5-14.2 2.6-2.6 3.2-2.8 6.2-2 1.9.5 4.2 1.9 5.2 3.1zm181.3-2c.7.5 1.7 2.3 2.2 3.8 1.3 3.7-1 8.7-4.5 9.6-4.6 1.1-9.7-4.2-8.8-9.1.2-1.1.4-2.2.4-2.6.4-3.2 7.5-4.4 10.7-1.7zM60 300.5c0 3.6-1.1 5.5-3.1 5.5-2.6 0-3.1-5.9-.7-8.7 1.5-1.8 3.8.2 3.8 3.2zm56.7-1.8c.7.9 1.3 3.1 1.3 4.9 0 3.9-2.9 6.4-7.6 6.4-4.6 0-6.4-.9-7.5-3.7-1.1-2.9 1.3-8.9 3.9-9.7 3-.8 8.7.3 9.9 2.1zm19.9 2.9c1.4 5.6-3.7 10.5-8.8 8.5-4.8-1.8-4.5-11.1.4-13 3.1-1.2 7.6 1.2 8.4 4.5zm141.5-4.3c4 3 3.6 11.6-.7 13.5-2.8 1.3-7.3 1.5-9 .4-.6-.4-1.6-1.7-2.3-2.9-3-5.7.6-12.3 6.7-12.3 2 0 4.4.6 5.3 1.3zm46.6 2.1c3.1 1.7 6.1 4.5 8.3 7.7 2.9 4.3 3.4 6 3.6 11.6.4 10.1-4 17.9-12.5 22.3-11 5.6-23.2 2.1-30.3-8.5-3-4.6-3.3-5.7-3.3-12.5 0-8.4 1.3-11.6 6.7-16.8 7.5-7.4 18.2-8.8 27.5-3.8zm176.2-1c1.7 2.1 2 8.3.5 10.4-2.9 4.2-11.4.3-11.4-5.2 0-5.6 7.6-9.2 10.9-5.2zm21.1-.2c1.9 1.8 2.3 2.8 2.3 6.3 0 3.1-.4 3.6-3.5 4.9-5.8 2.5-11.8-.6-11.8-6 0-6.5 8.1-9.8 13-5.2zm50.4 4.2c-1 3.3-2.1 4.1-3.9 2.6-1.8-1.5-2-6.1-.2-7.9 1.7-1.7 5 2.4 4.1 5.3zM220 302c1.5 2.8 1.2 8.3-.5 10.7-.8 1.2-3.1 2.7-5 3.3-8.3 2.7-14.6-7-9.2-14.3 2.8-4 12.6-3.7 14.7.3zm201.4-.7c2.4 2.4 2.9 6.1 1.3 10-2.8 6.6-12 6.9-15.3.6-1.5-3-1.8-6.7-.8-9.4 1.6-4.1 11.1-4.9 14.8-1.2zm-263.1 5.9c3.3 3.8 1.8 9.8-3.1 12.1-3 1.4-4.2 1.4-9 .3-7.7-1.8-6.9-13.3 1.1-15.4 3.9-1 8.5.2 11 3zm326-.1c1.9 2.3 2.2 7 .7 9.9-1.3 2.4-5.4 3.5-11.5 3.1-2.8-.2-6.5-5.2-6.5-8.7 0-3.4 3.2-6.7 7.5-7.6 3.1-.7 7.8.9 9.8 3.3zm-409.9 4.8c1.2 2.2 1.2 3 0 5.2-2.7 5.4-8.7 4-9.6-2.3-.4-2.5 0-3.3 2.5-4.8 3.5-2.2 5.3-1.7 7.1 1.9zm486.4-1.6c2.1 1.6 1.5 7.4-1 9.1-2.8 2-3 2-5.6-.4-2.7-2.6-2.8-6.4-.2-9 1.9-1.9 4-1.8 6.8.3zM182 311.5c2.4 2.2 2.6 5.5.5 9.5-3.1 5.9-14.5 5.7-17.3-.4-1.3-2.8 1.1-8.9 4.1-10.4 3.1-1.6 10.3-.8 12.7 1.3zm274.7-1.5c4.7 1.7 6.9 8.5 4 12.4-1.6 2.2-7.4 3.5-11.4 2.4-7.7-2-8.6-12.4-1.3-15.1 2.4-.9 5.5-.8 8.7.3zm-397.9 2.2c2 2 1.5 5.8-.7 5.8-1.9 0-5.1-2.4-5.1-3.9 0-1.1 2.3-3.1 3.5-3.1.6 0 1.6.5 2.3 1.2zm514.5.7c.7 2.7-1.1 5.1-3.8 5.1-1.9 0-2.5-.5-2.5-2.3 0-4.3 5.2-6.7 6.3-2.8zm-482.5 3.3c1.8 1.8 1.5 8.3-.5 10.6-3.8 4.3-9 3.3-9.3-1.8-.4-4.6 0-6 2-8 2.2-2.2 6-2.6 7.8-.8zm20.7.8c2.1 1.7 1.9 7-.4 9.9-3.9 5.1-12.7 1.4-11.7-4.8.2-1.4.5-2.9.5-3.3.2-1.3 5.5-3.6 7.8-3.3 1.2.1 2.9.8 3.8 1.5zm142-1.2c3.6.3 10 6.4 11.3 11 2.5 8.3-.3 16.4-6.8 20.1-11.6 6.5-24.7 1-26.7-11.2-1.1-6.7.1-11 4.4-15.1 3.7-3.5 8.4-5.4 12.6-5.1 1.5.1 3.8.2 5.2.3zm134.6 1.8c6.9 4.1 10.1 15 6.5 22.6-1 2-3.6 4.9-5.8 6.5-5.7 3.9-14.7 4-20.1.3-6.4-4.3-9.3-14.2-6.3-21.3 1.4-3.6 6.3-7.9 10.6-9.5 3.9-1.5 11.4-.7 15.1 1.4zm137.1-.5c1 .5 1.9 1.5 1.9 2.2.1.7.3 2.2.4 3.5.1 1.2-.5 3.1-1.4 4.1-4.1 4.8-12.1 1.4-12.1-5.1 0-5.6 5.3-7.9 11.2-4.7zm18.8-.1c4.1 4.1 2.3 13-2.7 13-.8 0-2.5-1.1-3.8-2.5-2.7-2.7-3.5-9.1-1.3-11.3 1.8-1.8 5.6-1.4 7.8.8zm-414.4 1.8c2.1 4.3-1.3 11.2-5.6 11.2-5.3 0-7.9-8.1-3.9-12.1 2.7-2.7 7.9-2.3 9.5.9zM507 318c3.9 3.9 1.2 12-4 12-2.3 0-5.9-3.3-6.1-5.5-.1-.8-.2-2.1-.3-2.8-.1-.6.4-2.2 1.2-3.5 1.8-2.8 6.5-2.9 9.2-.2zm-304.8 2c2.4 3 .8 9.8-3.1 12.7-2.3 1.7-9 .8-10.6-1.4-2.8-3.6-2.2-8.1 1.5-11.5 2.3-2.2 3.6-2.6 6.7-2.2 2.1.2 4.5 1.3 5.5 2.4zm235-.3c2.4 2.2 3.7 7.3 2.5 10-.5 1.2-2.2 2.7-3.8 3.3-7 2.9-13.7-3.4-11.9-11 1.2-4.9 8.9-6.2 13.2-2.3zM59.1 324c.5 4 .3 4.5-2.1 4.5-2.8 0-4.1-3.2-1.8-4.6 1.8-1.2 3.8-1.1 3.9.1zm512.7-.1c1.9 1.2 1.1 4.5-1.2 4.9-2.5.5-3.7-.9-3-3.6.7-2.3 2-2.7 4.2-1.3zm-423.3 2.6c2.8 2.7 3 4.2 1.4 7.9-1.3 2.8-6.4 5.6-10.2 5.6-6.7 0-7.8-12.4-1.4-15 4-1.6 7.7-1.1 10.2 1.5zm339.8-1.3c3.3 1.7 4.6 3.9 4.7 7.5 0 3.8-2.9 7.3-6.1 7.3-3.4 0-8.5-2.9-9.7-5.5-3.2-6.9 4.2-13 11.1-9.3zM72.1 327c1.4.8 1.9 2.1 1.9 4.9 0 3.5-.4 4-3.1 5-3.5 1.2-6.8 0-7-2.4-.1-.8-.2-2.1-.3-2.8-.3-1.6 3.4-5.7 5.1-5.7.8 0 2.3.5 3.4 1zm488.5-.2c3.6 2.4 3.8 7.9.2 10.1-2.7 1.7-7.5-.2-8-3.2-.9-5 4.1-9.4 7.8-6.9zm-91.5 4.1c3.5 3.7 3.3 10.4-.4 11.6-6 2.1-12.7-1.4-12.7-6.4 0-3.4.9-4.7 4.3-6.4 3.2-1.7 6.4-1.2 8.8 1.2zm-299.7.3c2.1 3 2 6-.4 9-2.6 3.3-7.2 4-11 1.6-3.4-2-3.8-4.4-1.5-8.8 1.7-3.3 2.7-3.8 7.7-3.9 2.7-.1 4.1.5 5.2 2.1zm-110.5 4.2c.9 1.1 1 2 .1 3.5-2.1 4-5.7 2-4.6-2.5.7-2.7 2.7-3.1 4.5-1zm47.6-.3c1.4 2.1 1.6 7.1.4 8.5-1.2 1.5-5.6 1.9-7.5.6-.6-.4-1.6-1.7-2.3-3-1-1.9-.8-2.6 1.3-4.7 2.6-2.6 7-3.3 8.1-1.4zm112.3 1.6c2.7 3.6-.1 9.3-4.6 9.3-3.5 0-4.9-1-6.1-4.3-.9-2.4-.8-3.1 1.5-5.3 1.9-2 3.1-2.4 5.2-1.9 1.5.3 3.3 1.3 4 2.2zm197.9-1.2c2.9 2 3.4 6 1.1 8.5-5.1 5.4-14.2-1.4-9.5-7.2 2.3-2.9 5.4-3.4 8.4-1.3zm112.4 1.1c1.4 1.3 1.5 2.1.7 4.5-1 2.9-3.9 4.4-7.5 3.7-2.6-.5-3.9-5.1-2.4-8.4 1-2.3 1.6-2.6 4.3-2 1.8.3 3.9 1.3 4.9 2.2zm43.7.5c.4 3.2-2.4 4.7-4.6 2.6-1.1-1.2-1.2-1.9-.2-3.6 1.5-2.9 4.4-2.3 4.8 1zm-481.4-.2c.8.7 1.4 2.3 1.2 3.5-.3 1.1-.5 2.4-.5 2.8-.2 1.6-4.5 4.7-6.2 4.5-2.8-.5-4.9-2.8-4.9-5.6 0-3.4 1-4.8 4-5.9 3.1-1.1 4.3-1 6.4.7zm453.6 1.8c1.8 2.3 1.8 2.8.5 5.3-.8 1.5-2.1 3-3 3.4-2.3.8-6.1-1.3-7.4-4.1-1.5-3.3-1.4-4 .8-6.2 2.4-2.4 6.5-1.7 9.1 1.6zm-92.4 1c2 2.5 1 8.4-1.6 10.5-2.9 2.3-5.7 2.3-9.8-.2-3.1-1.9-3.3-2.4-3-6.8.3-4.4.5-4.8 3.8-5.8 4-1.3 8.6-.3 10.6 2.3zM187.1 338c1.4.8 1.9 2.1 1.9 5.5 0 4-.4 4.8-3.2 6.5-4.4 2.6-7.4 2.5-10.3-.4-1.8-1.9-2.3-3.2-2-6.2.2-2.2 1.1-4.4 2.1-5.1 2.1-1.6 8.8-1.7 11.5-.3zm-64.1 1.5c1.5 1.8.6 6.1-1.4 6.8-2.3.9-5.5-.4-6.1-2.4-1.5-4.5 4.5-8 7.5-4.4zm387.7-.3c1.5 2 1.2 4.6-.9 6.5-3.9 3.5-9.4-2.7-5.6-6.5 1.6-1.6 5.3-1.5 6.5 0zm-437.6 6.7c0 .3.2 1.6.5 2.9.9 5.1-3.6 8.1-7 4.6-2-2-2.1-6.8-.1-8.8 1.3-1.2 2.1-1.3 4-.4 1.4.6 2.5 1.4 2.6 1.7zm488.5.7c1 3.9-.4 7.3-3.1 8-3.2.8-5.5-1.1-5.5-4.5 0-3.1.8-4.4 3.4-5.8 2.6-1.4 4.5-.6 5.2 2.3zm-420.6.7c2.9 2.4 2.6 7.1-.7 10.6-4.2 4.5-8.5 4.6-10.8.1-2.2-4.3-1.8-6.9 1.6-10.1 3.5-3.2 6.6-3.4 9.9-.6zm355.1.8c7.3 6.8-1.1 17.1-8.9 11.1-3.4-2.6-4.1-9.3-1.3-11.9 2.9-2.7 6.8-2.4 10.2.8zm-335.9 1.8c2.4 3 2.3 6.2-.2 8.9-2.1 2.3-3 2.6-6.5 2.3-6.5-.6-6.5-10.7 0-13.1 2.9-1.1 4.6-.6 6.7 1.9zm315.8 0c2.3 2.2 2.8 3.5 2.4 5.7-1.1 6-7.2 7.7-11.4 3.2-3.5-3.8-2.1-9.2 3-11.1 2.6-.9 3.1-.8 6 2.2zm-198.6 4.3c.9 2.9 1.8 7.5 2.1 10.3.4 2.7.8 5.7 1 6.5.2.8.7 4.2 1 7.5.4 3.3.8 7.1 1.1 8.5 1.1 7 1.5 11.4 1 10.9-.4-.4-.8-1.5-1-2.5-.2-1.1-.7-3.9-1.2-6.4-1-5.6-.7-4.6-2.6-11-2.5-8.6-5.8-23.3-5.8-25.6 0-2.2.8-3.4 2.1-3.4.5 0 1.5 2.4 2.3 5.2zm76.3-3.6c.6 1.5-1.1 9.7-6.7 33.8-3.7 15.8-5.5 18.6-2.6 4.1.2-1.1.7-5.6 1-10 .4-4.4.9-8.7 1.1-9.5.2-.8.6-3.3 1-5.5.9-6.3 3.5-14.5 4.6-14.5.5 0 1.2.7 1.6 1.6zm-249.8 2.6c1.1 3-1.4 8.1-3.7 7.6-.9-.2-2.1-1.5-2.6-3-1.7-4.9 4.5-9.4 6.3-4.6zm424.5-.3c2.1 2.3 1.8 6-.7 7.5-1.5.9-2.1.7-3.3-.8-1.4-2-1.9-6.8-.7-7.9 1.2-1.2 2.9-.7 4.7 1.2zm-407.4 2c2.1 4-4 9-7.5 6.1-1.7-1.4-1.2-6 .9-7.6 2.1-1.5 5.4-.7 6.6 1.5zm392-1.4c2.8 3.4 1.4 8.5-2.3 8.5-3.1 0-4.7-1.8-4.7-5.2 0-2 .7-3.1 2.3-3.8 3.1-1.2 3.3-1.2 4.7.5zM89.5 357c1.4 6.4-3.1 10.4-6.7 6-2.9-3.5-.6-9 3.7-9 1.8 0 2.5.7 3 3zm454.3-1.8c2.1 2.8 2.2 5.4.2 7.6-2.6 2.8-3.6 2.8-5.6-.3-2.3-3.5-1.1-8.5 2.1-8.5 1.2 0 2.7.6 3.3 1.2zm-366.4 5.1c.8 4.4.1 6.1-3 7.6-5.9 2.6-11-4.3-6.7-9.1 4.2-4.7 8.7-4 9.7 1.5zm281.5-2.2c1.2 1.1 2.1 3.2 2.1 4.8 0 4.8-4.3 6.9-9.2 4.5-2.3-1.2-2.6-1.9-2.4-5.6.5-6.6 4.7-8.2 9.5-3.7zm-235.4 2.3c3.4 2.4 7.6 6.5 15.4 15.1 3.7 4 7 9.3 10.3 16.2 2.6 5.7 4.8 10.5 4.8 10.8 0 .2 1.1 2.8 2.4 5.7 1.3 2.9 3.6 9.1 4.9 13.8 1.4 4.7 4.1 13.1 6.1 18.7 3.2 9.2 6.2 22.1 7.2 31 .8 6.6 2.1 15.1 2.9 18.9 1 4.8 1.7 26.2.8 26.7-.5.3-.9-.2-.9-1.1-.2-7.9-1.6-23.8-2.4-28.2-.6-3-1.3-7.3-1.6-9.4-.3-2.2-.7-4.3-1-4.8-.3-.4-1.3-4.9-2.4-10-1-5.1-2.5-11.6-3.3-14.3-1.6-5.4-12.2-29.8-16.5-38-4-7.6-24-41.3-28.3-47.7-5.3-7.8-5.2-8.1 1.6-3.4zm184.9-2.2c-.4.7-1.7 2.6-2.9 4.3-1.2 1.6-3.9 6.1-6 10-2.2 3.8-4.3 7.1-4.7 7.3-.4.2-.8.8-.8 1.3s-2.2 4.6-5 9c-2.7 4.4-5 8.4-5 8.9s-.4 1-.8 1.2c-2.4.9-23.8 47.9-22.8 50.3.2.7 0 1.7-.5 2.2-.5.5-1.8 4.9-2.8 9.8-1.1 5-2.5 10.8-3 13-.5 2.2-1.3 6.7-1.6 10-.4 3.3-.9 6.3-1.1 6.6-.3.6-1.2 12.1-1.7 21.1-.1 2.5-.5 4.4-.8 4.2-.9-.5-.1-23.7 1.1-30.2.5-3.1 1.2-7.7 1.6-10.2.5-4 1.6-11 3-18.7 1.4-7.9 12-40.8 17-53.3 8.1-19.7 11.9-25.7 25.1-38.5 8.1-7.9 13.7-11.8 11.7-8.3zm-119.6 7.6c3.6 9.9 4.1 13.3 4.7 28.7.7 15.4.7 63.1.1 71-.6 7.8-1.6 18.1-2.1 20.7-.3 1.3-.7 5.2-1 8.8-.7 8.1-1.4 14.2-2.9 26.4-.7 4.8-2.6 11.6-3.2 11.6-.4 0-.3-1.7.1-3.7.4-2.1.9-5.8 1-8.3.4-4.4 1.3-13.4 2.1-19.5.5-4.1 1.6-15.2 2-20 .3-4.9 1.7-43.3 1.8-49.5 0-5.7-1.4-30.5-2-34.5-.2-1.7-.6-5-.8-7.5-.3-2.5-.7-6.1-1-8-.3-1.9-.8-5.8-1-8.5-.3-2.8-.8-7.5-1.2-10.5-.8-6.8.2-6 3.4 2.8zm52.7-5.1c-.2 1.6-.6 5.9-1 9.6-.3 3.7-.8 7.7-1 8.8-.2 1.1-.7 5.2-1 9.2-.3 3.9-.8 8.3-1 9.7-.8 4.9-1.8 23.7-1.9 32.5 0 9.4 1.3 44.8 1.8 50 .2 1.6.7 6.6 1.1 11 .3 4.4.9 9.3 1.1 11 .2 1.6.6 5.9.9 9.5.6 6.5 1.4 14.5 2 18.7.2 1.3-.1 2.3-.6 2.3s-.9-1-1-2.3c0-1.2-.2-3.1-.5-4.2-.7-3.4-3.3-22.7-3.8-29-.3-3.3-.8-7.1-1-8.5-1.9-11-2.7-29.8-2.7-63 0-39.4.8-49.5 5-59.3 1.2-2.7 2.1-5.7 2.1-6.8 0-1 .4-1.9.9-1.9s.7 1.2.6 2.7zm-266.9 2.8c.8 3.3.2 5.6-1.8 6.9-4.4 2.7-7.6-4.1-3.8-8.1 2.4-2.6 4.8-2.1 5.6 1.2zm485.2 3.4c-.4 3.2-3.2 5-5.5 3.5-3.2-2-2.9-8.9.5-9.7 2.3-.5 5.3 3.2 5 6.2zm-457 .8c1.8 3.4-.1 7.2-3.6 7.3-.7 0-1.8-1.1-2.4-2.5-.9-2.1-.8-2.8.7-4.5 2.2-2.5 4.1-2.6 5.3-.3zm426-.9c1.8 1.2 2.3 4.7.8 6.7-1.5 2-5.5 1.2-5.7-1.1-.1-.8-.2-2-.3-2.7-.5-2.9 2.5-4.5 5.2-2.9zm-392.2 3.1c1.4 2.8.1 7.7-2.5 8.9-1.5.8-2.4.8-5.7.4-1.9-.3-3.2-4.5-2.2-7.2 1.9-5.4 8.2-6.6 10.4-2.1zm17.6-1.1c3 3-.1 9.2-4.5 9.2-3.1 0-4.7-1.8-4.7-5.1 0-4.5 6.1-7.2 9.2-4.1zm111.9 2.9c6.2 14.4 8.7 24.5 10.3 41.3 2.4 24 2.8 31.1 1.6 27.5-1.1-3.2-1.5-5.4-2.5-12.5-.4-2.4-.8-4.7-1.1-5.1-.2-.3-.6-2.5-.9-4.9-1-8.3-7.4-37.9-9.9-46.3-.8-2.6-1-4.7-.5-4.7s1.9 2.1 3 4.7zm96.2 3.4c-1.2 4.5-2.5 9.3-2.8 10.7-.4 2.4-1.9 9.8-3.1 15.2-.3 1.4-.7 3.6-.9 5-.2 1.4-1.1 6.5-2 11.5-.9 4.9-1.9 10.8-2.2 12.9-.3 2.2-1.1 5.8-1.9 8l-1.3 4.1.5-5.5c.4-5.8 1.1-13.9 1.9-24.3.7-8.9 1.4-13.4 3.1-20.2 1.7-7.1 7.2-22.5 8.7-24.3 2.2-2.8 2.3-.7 0 6.9zm118.3-6c1.7 1.4 1.8 6.1.2 7.7-2.9 2.9-8.3.2-9.3-4.6-.8-4.1 5.4-6.2 9.1-3.1zm18.2-.1c4.5 4.2 2.3 11.6-3.2 10.5-1.2-.2-2.4-.4-2.8-.4-.4-.1-1.4-1.3-2.1-2.9-3.4-6.8 2.7-12.2 8.1-7.2zm-410 3.2c2.2 2.2 1.4 6.7-1.3 8-3.1 1.4-4.1.5-4.9-4.4-.5-2.9-.2-3.8 1.2-4.1 3-.8 3.8-.7 5 .5zm455-.3c.9.5 1.1 1.9.7 4.2-.8 4.6-1.9 5.5-5 4.1-1.8-.8-2.5-1.9-2.5-4 0-4.4 3.3-6.5 6.8-4.3zm-375 2c.7.1 1.7 1.3 2.3 2.7 2.2 6-5.9 10.4-9.5 5.2-.9-1.2-1.6-2.8-1.6-3.5 0-2.1 3.7-5.2 5.7-4.8 1 .2 2.4.4 3.1.4zm296.1 1.2c2.4 2.3 2.1 5.4-.7 7.6-3.6 2.9-10-.5-8.8-4.5 1.7-5.2 5.7-6.6 9.5-3.1zm-146.4 10.5c.4 4.9.8 11.4 1 14.4 1.2 19.2 1.6 25.2 2.1 30.5.6 7 1.3 13 1.9 16.5.2 1.4.7 4.3 1 6.5.5 4 .7 6.1 2 16.5 1 8.6 2 14.6 5.1 29.5.3 1.6 1 5.2 1.4 7.8.5 2.6 1.2 5.7 1.5 6.8.4 1.2.8 3.1 1 4.2.3 2.7 1.1 6.7 2.9 15.4.8 3.7 1.3 6.9 1.2 7.1-.7.6-4.6-11.9-6.7-21.3-1.7-7.7-1.7-7.7-2.9-13-1.4-6.1-1.8-8.1-2.5-12-.3-1.7-.7-4.4-1-6-.3-1.7-.9-5.7-1.5-9-.5-3.3-1.1-7.1-1.4-8.5-.2-1.4-.7-5.2-1.1-8.5-.3-3.3-.8-6.7-1-7.5-.2-.8-.6-3.3-1-5.5-.3-2.2-.8-5.4-1-7-.3-1.7-.7-6.2-1-10-.3-3.9-.7-8.1-1-9.5-1.4-6.3-1.3-48.1.1-46.7.2.1.6 4.3.9 9.3zM75 378.5c1 1.2 1 2.1.2 4.1-1 2-1.5 2.3-3.1 1.5-2.6-1.5-3.3-3.8-1.5-5.6 1.9-1.9 2.8-1.9 4.4 0zm481.1.1c2.5 2.3 1.3 5.6-2 5.2-2.9-.3-4-3.1-2.1-5.3 1.6-1.9 1.9-1.9 4.1.1zm-245.6 20.6c-.2 11.2-.6 21.3-.9 22.5-.2 1.2-.7 5.5-1.1 9.5-.3 4-.7 8.4-.9 9.8-.2 1.4-.7 5-1.1 8-.4 3-.8 5.7-1 6-.2.3-.6 4.1-1 8.5s-.9 8.3-1.2 8.7c-.5.9-.8 2.6-1.7 9.3-.4 2.7-3 14.9-5.8 27s-5.4 23.6-5.8 25.5c-.3 2-1.2 4.4-1.9 5.5-1.1 1.9-1.2 1.9-.6-.2.4-1.3.8-3.5 1.1-5 .3-1.6.7-3.6 1-4.5.3-.9.7-2.7.9-4 .3-1.3 1.6-7.9 3-14.8 2.5-13 3.5-18.1 4-21.5.6-3.7 2.6-16 3-18.5.3-1.4.7-5 1-8 .3-3 .8-6.9 1-8.5.5-3.9 1.5-12.2 2-16 1.6-12.5 3.1-32.7 4-51.4.4-8.5.5-9.2 1.4-8.7.5.3.7 9.6.6 20.8zm-207-15.3c0 3.1-3.1 5.2-4.5 3.1-.5-.8-1-2.5-1-3.8 0-2 .4-2.3 2.8-2 2.1.2 2.7.8 2.7 2.7zm425.5 0c0 3.2-2.4 4.8-4.6 3-1.5-1.2-1.9-4.1-.7-5.2.3-.4 1.7-.7 3-.7 1.9 0 2.3.5 2.3 2.9zm14 6.7c0 3.1-3.7 5.6-6.2 4.3-2.8-1.5-2.5-7.7.5-8.8 2.8-1.1 5.7 1.2 5.7 4.5zm-450.9-1.4c.9 3.5-1 6.1-4.1 5.6-3-.4-4.5-2.8-3.6-6.2.6-2.3 1.1-2.7 3.8-2.4 2.5.2 3.3.9 3.9 3zm72.9 2.3c.6.3 1 1.8 1 3.3 0 2-.8 3.3-3.2 4.6-3.1 1.9-3.1 1.9-5-.4-4-4.9 1.7-10.9 7.2-7.5zm303.9.1c2.1 2.2 2.2 5.3.1 7.4-1.9 1.9-2.2 1.9-5 .5-3.9-2-4.3-7.1-.7-8.4 2.6-1 4.4-.8 5.6.5zm-363.8 6.7c-1 2.7-4 2.9-5.5.4-.9-1.5-.7-2.1.8-3.2 2.8-2.1 5.8-.3 4.7 2.8zm421.4-2.7c1.8 1.9 1.6 3.3-.9 4.8-2.4 1.5-5-1.8-3.5-4.5 1.2-2.3 2.3-2.4 4.4-.3zm-182.8 5.6c-.3.8-.6.5-.6-.6-.1-1.1.2-1.7.5-1.3.3.3.4 1.2.1 1.9zm-249.8 2c1.7 4.6-2.5 8.8-5.7 5.6-1.3-1.3-1.6-6-.5-7.1 1.5-1.6 5.4-.6 6.2 1.5zm445.9 1.1c.4 3.3-1.3 5.7-3.8 5.7-1.9 0-3-1.9-3-5.4 0-3 .9-3.8 4-3.4 1.9.2 2.6 1 2.8 3.1zM108 409c0 2.2-1.9 3.1-4.2 1.8-2.1-1-2.3-2.9-.6-4.6 1.5-1.5 4.8.3 4.8 2.8zm416.6.8c-.7 2.2-2.5 2.3-4.9.3-1.9-1.5-1.2-3.8 1.1-4.4 2.5-.5 4.5 1.7 3.8 4.1zm-438 2.8c1.8 1.2 2.2 2 1.4 2.9-.9 1.1-1.6.9-3.4-.8-1.2-1.2-2.1-2.5-1.9-3 .6-1 1.1-.9 3.9.9zm457.6-1c.3.3-.4 1.5-1.6 2.8-1.5 1.6-2.5 1.9-3.4 1.2-1.1-.8-.9-1.3 1-2.8 2.5-1.9 3.2-2.1 4-1.2zM315.9 468c.7 4.7 1.7 10.1 2.1 12 .5 1.9 1.1 4.6 1.3 6 .3 1.4 1 4.3 1.5 6.5.6 2.2 1.3 5.1 1.6 6.5.3 1.4.8 3.6 1.1 5 .3 1.4.8 3.6 1.1 5 .3 1.4 1 4.3 1.6 6.5.6 2.2 1.1 4.4 1.3 5 .1.5.5 1.8.9 2.7.4.9.9 2.2 1 3 .8 4.5 7.4 23.6 10.8 31.2 2.2 5 4.2 9.7 4.5 10.3.3.7.1 1.3-.4 1.3-1.3 0-8.3-12.2-10.6-18.4-5.6-15.4-16.7-53.4-18.9-64.6l-1.1-5.5-2.8 11c-1.5 6-2.7 11.2-2.6 11.5 0 .3-1.3 5-3 10.5-1.8 5.5-4.9 15.4-6.9 22-5 16.1-8.4 23.7-15.1 33.4-.2.2-.6.2-.9-.1-.3-.3 1.3-4.3 3.4-8.9 5-10.6 14.3-39.5 17.2-53.4.4-2.2 2-9.2 3.5-15.5 1.5-6.3 3.3-15.6 4.2-20.5.8-5 1.6-9.7 1.8-10.5.2-.8.4-2 .5-2.5.2-2.6 1.8 2.9 2.9 10.5zm-9.9 72.8c0 1.1 1.1 6.8 2.4 12.8 3.8 17.3 4.5 26 1.1 13.8-.7-2.7-2.7-8.6-4.3-13.1-2.7-7.1-2.9-8.6-2-11.7 1.2-3.8 2.8-4.8 2.8-1.8zm17.9 1.9c.9 3.2.6 4.9-2.8 13.7-2.1 5.6-4.3 11.7-4.9 13.6-1 3.3-1 3.2-.5-1.5.3-2.7 1-6.1 1.5-7.5.5-1.4.9-2.7.8-3-.3-1.4 3.5-19 4.1-19 .5 0 1.3 1.6 1.8 3.7zm-25.7 24.1c1 1.8 1.5 3.2 1.2 3.2-.2 0 0 .9.6 2 1.9 3.6-.8 2.4-4.8-2.2-1.7-1.8-2.2-3.3-1.7-4.8.9-2.8 2.5-2.1 4.7 1.8zm35.3-1.8c.5 1.4-.2 3.1-2.2 5.5-4.1 4.9-5.7 4.6-3.6-.8 2.7-6.9 4.6-8.5 5.8-4.7z"/><path d="M283.3 61.1c-5.8 2.1-5.1 9.9.9 9.9 4.2 0 5.5-.9 6.3-4.2 1.1-4.2-2.9-7.3-7.2-5.7zm56.9-.3c-4 .6-5.3 7.1-1.8 9.4 2.2 1.5 7.5.8 8.5-1 2.4-4.5-1.4-9.3-6.7-8.4zM229.9 72.1c-3.3 3.3-.6 9.2 4 8.4 3.4-.6 5.4-3.4 4.6-6.5-.8-3.1-.8-3.1-4-3.5-1.7-.1-3.5.5-4.6 1.6zm159.8-.1c-1.9 1.5-1.9 2-.8 4.8.7 1.7 2.1 3.4 3.2 3.7 1.8.6 5.8-.9 6-2.3 0-.4.2-1.7.5-2.8.7-4.2-5.1-6.5-8.9-3.4zM312 82.8c-.8.3-2.5 1.4-3.7 2.5-4.4 4-2 11.2 4.3 13.1 3 .9 8.4-3.7 8.4-7 0-5.7-4.5-10-9-8.6zm-125 9.5c-3.2 1.6-3.7 5-1 7.5s6.8 1.8 8-1.4c1.1-2.9.4-5.1-2.1-6.4-2.2-1.2-1.9-1.2-4.9.3zm248.4-.3c-2.7 1.1-3.6 3.4-2.4 6.5 1.5 4.1 8 3.3 9.4-1.1.7-2.2-1.3-5.6-3.5-5.9-.8-.2-2.3.1-3.5.5zm-210.1 11c-4.7 1.9-5.8 8.5-1.7 10 3.8 1.5 6.2 1.2 8.4-1 2.7-2.7 2.6-6.5-.2-8.4-2.5-1.8-3.3-1.9-6.5-.6zm169.9.6c-4.4 3-1.6 10.4 4 10.4 6.6 0 9.1-6 4.2-9.9-3.2-2.5-5.2-2.6-8.2-.5zm-249.7 15c-.8.9-1.5 2.5-1.5 3.8 0 6.3 8.2 6.2 9.5-.2.7-3.7-5.2-6.3-8-3.6zm329.2-.1c-2.1 1.5-2.2 3.4-.1 6.3 1.7 2.4 5.3 2.9 7.2 1 2.1-2.1 1.5-6.6-1-7.4-3.7-1.2-4.3-1.2-6.1.1zm-222.9 5.7c-4.5 1.6-5.4 7.9-1.5 10.9 1.6 1.3 2.7 1.5 4.8.7 4-1.4 5.2-3.3 4.5-7.1-.8-4.1-3.8-5.8-7.8-4.5zm116.8 1.7c-4.2 4.6 1 11.7 7 9.6 5.9-2.1 4.1-11.5-2.2-11.5-1.8 0-3.8.8-4.8 1.9zm-194.3 2.2c-3.5 1-4.7 3.4-3.7 7.4.9 3.6 4.9 5.1 8.1 3 2.7-1.8 4.5-5.7 3.7-8-.6-1.3-3.7-3.7-4.6-3.4-.2 0-1.7.5-3.5 1zm271.6 1c-1.1 1.1-1.8 2.7-1.5 3.6.3.8.6 2 .6 2.7 0 1.6 5.1 4.4 7.4 4 2.6-.4 3.7-1.7 4.2-5.2 1-5.9-6.4-9.4-10.7-5.1zm-135.6 16.1c-6.4 3.1-4.6 13.9 2.6 15.3 2.9.5 7-3.2 7.7-7.1 1-5.4-5.4-10.5-10.3-8.2zm-195.7 5.1c-2.6 1.9-1.8 7.1 1.2 7.5 3.3.5 7.3-2.3 6.5-4.6-.7-2-3.2-4.2-4.8-4.2-.6 0-1.9.6-2.9 1.3zm392.3-.6c-.9.2-1.9 1.5-2.2 2.9-.5 3 2.9 5.7 6.5 5.2 2.9-.4 3.7-4.8 1.3-7.2-1.6-1.6-2.6-1.8-5.6-.9zm-375.7 16.2c-1.8 1.9-2.2 3.3-1.8 5.5 1.2 5.7 6.8 6.7 10.7 1.8 5-6.4-3.3-13.3-8.9-7.3zm93.1.6c-3.3 1.4-4.3 3.6-3.3 7.5.5 2.1 1.3 2.5 4.7 2.8 3.4.3 4.4-.1 6.1-2.3 2.3-2.9 2.1-6.4-.5-7.9s-3.6-1.5-7-.1zm171.3.1c-2.6 2.5-2.4 7.3.2 8.9 5 3 9.9 2.1 10.2-2 .4-4.2-.1-5.5-3-7-3.7-1.9-5.5-1.9-7.4.1zm92.7-2.3c-4 2.2-4.3 5.4-1 9.2 3.2 3.7 6.2 3.9 8.7.7 2.1-2.6 2.1-6.2-.1-8.8-1.4-1.7-5.4-2.2-7.6-1.1zm-210.7 16c-2.5 1.8-3 7.1-.8 9 4.2 3.6 9 2.2 10.7-3.3 1.6-5.1-5.3-9.1-9.9-5.7zm63 .9c-1.9 2.9-1.5 5.5 1.3 8.4 3.5 3.7 8.6 1.6 9.6-3.9 1.1-5.7-7.7-9.3-10.9-4.5zm-251.4 8c-2.3 2.3-1.4 5.5 1.7 6.6 2.4.8 3.2.7 4.5-.7 2-2.2 2-3.8.2-5.7-1.8-1.7-4.8-1.8-6.4-.2zm442.9-.1c-1.7 1.4-2.1 2.4-1.5 4.1.9 3.1 2.1 3.7 5.3 2.9 3.7-1 4.3-6.2.9-7.8-1.9-.9-2.8-.7-4.7.8zm-355.8 8.4c-3.1 1.3-5.7 6.2-4.4 8.2 2 3.2 11.4 1.9 12.6-1.6.8-2.5-1.3-6.8-3.5-7.4-.9-.2-3.1.1-4.7.8zm268.3.4c-.9 1-1.9 3-2.2 4.4-.3 2.1.1 2.9 2.5 4.2 4.2 2.1 7.7 1.9 9.5-.6 1.3-2 1.3-2.5 0-5.1-1.3-2.5-4.8-4.8-7.3-4.8-.4 0-1.6.8-2.5 1.9zm-132.2 4.9c-3.2.5-5.7 3.8-5.7 7.2 0 6.6 4.9 10.6 9.8 8 7.3-3.9 3.9-16.6-4.1-15.2zm-213.5 7.3c-2.2 2.2-1.9 5.5.8 7.6 1.9 1.5 6.4.7 8.1-1.4 4.2-5.7-3.8-11.3-8.9-6.2zm420.7-.5c-1.9 1.9-2.1 5.8-.3 7.2 4.3 3.6 11.6.7 10.2-4.1-1.4-4.5-6.8-6.2-9.9-3.1zM225.8 230c-3.5 3.6-3.4 6.8.3 8.9 2.2 1.2 3.1 1.2 5.7.2 1.6-.7 3.3-2.2 3.6-3.4.7-2.9-1.4-6.8-4.2-7.8-1.9-.7-2.9-.3-5.4 2.1zm168.2-1.2c-2.6 2.3-3.3 6.3-1.6 8.6 1.9 2.4 7.6 2.9 9.9.8 2.2-2 2.2-4.3-.3-7.4-2.6-3.3-5.5-4-8-2zm-256.4 8.5c-2.6 1.9-1.8 6.8 1.3 8.4 5.4 2.6 10.7-4 6.5-8.1-1.9-1.9-5.4-2.1-7.8-.3zm344 .3c-4.2 4.1 1.1 10.7 6.5 8.1 4.7-2.4 3.2-9.7-2.1-9.7-1.6 0-3.6.7-4.4 1.6zm-403 12.6c-2.1 2.9-2 4.1.2 6.1 3.8 3.5 8.5 1.3 8.5-3.9 0-4.6-6-6.1-8.7-2.2zm462.8-1.4c-3.5 2.4-1.4 9.2 2.9 9.2 3.1 0 4.7-1.3 5.2-4 .8-4.2-4.5-7.7-8.1-5.2zm-363 16c-.6.4-1.6 1.7-2.3 3-2.9 5.5 5.7 10.1 9.3 5 2.1-2.9 2-5.1-.2-7.1-1.9-1.8-4.9-2.2-6.8-.9zm263.3 1c-2.1 2.3-2.1 4.1-.1 7 1.7 2.5 6.5 3 8.3.8 4.8-5.7-3.3-13.3-8.2-7.8zm-130.5-.9c-4.9 3.7-2.5 12.1 3.1 10.7 5.1-1.2 5.9-7.9 1.3-10.9-2-1.3-2.5-1.3-4.4.2zM284 268c-5.8 1.4-6.6 10.3-1 11.5 5.9 1.3 9.5-1.8 8.4-7.3-.7-3.4-3.7-5.1-7.4-4.2zm54.8-.3c-1.8.5-3.9 4.9-3.5 7.6.4 2.4 1.8 3.6 5.4 4.6 2.6.8 3.5.5 5.2-1.3 1.2-1.2 2.1-3.2 2.1-4.3 0-4.1-5-7.7-9.2-6.6zm25.2 9.9c-.6 1.4-1 3.2-1 3.9 0 1.7 3.8 4.5 6.1 4.5 4.3 0 6.7-8 3-10-3.6-1.9-7.1-1.2-8.1 1.6zm-109.2-1.5c-3.5 2-1.6 9 2.5 9.7 2.8.5 6.7-2.5 6.7-5.1-.1-4.8-4.8-7.2-9.2-4.6zm-141.2 4.5c-4.5 4.5.7 10.4 6.5 7.4 2.2-1.2 2.6-5.9.7-7.8-1.7-1.7-5.4-1.5-7.2.4zm393-.3c-2.2 1.6-1.8 6.5.5 8 4.7 2.9 10.1-3.2 6.4-7.3-2.1-2.3-4.4-2.5-6.9-.7zm-275.8 7c-3.1 1.2-4 3.6-2.4 6.9 2.1 4.3 9.1 3 10-1.9.4-1.9-1.2-4.2-3.9-5.5-.5-.2-2.2 0-3.7.5zm158.7 2.1c-1.3 1.9-1.4 2.9-.5 4.5 1.3 2.5 5.7 3.8 7.9 2.4 2-1.3 2.6-6 1-7.9-1.9-2.3-6.6-1.7-8.4 1zm-319.6 3.2c-3.7 4.4-.7 9.4 4.5 7.4 4.5-1.7 3.1-8.8-1.7-8.7-.9 0-2.2.6-2.8 1.3zm481.5-.8c-2.1 1.4-2.2 5-.2 7.1 2.2 2.4 1.9 2.4 5.2 1.1 3-1.1 3.3-3.5 1-6.8-1.5-2.2-4-2.8-6-1.4zm-342.1 11c-3.2 2-2.1 8 1.8 9.4 4.2 1.6 7.9-5.8 4.7-9-1.3-1.3-4.7-1.6-6.5-.4zm201.3 1.3c-1.7 2.5-.9 5.6 2.1 7.6 1.7 1.2 2.4 1 4.7-.8 2.2-1.7 2.6-2.7 2.1-4.8-1.1-4.5-6.3-5.7-8.9-2zm-264 5.5c-1.9 1.8-1.9 1.6-.6 4.8 1.2 3.2 4.9 3.5 7.5.6 4-4.4-2.7-9.7-6.9-5.4zm327-.3c-2.2 1.6-1.3 6.4 1.5 7.2 4.2 1.4 6.6-.8 5.9-5.5-.4-3-4.4-3.9-7.4-1.7zm-368.4 10.4c-2.2.9-3.5 4.3-2.1 5.9 1.6 2 4.3 1.7 6.5-.7 2.8-3.1-.3-6.9-4.4-5.2zm411.9.7c-1.2 1.4-.5 4.6 1.3 5.8 2.1 1.5 4.7.8 5.5-1.5 1.6-4.1-4-7.7-6.8-4.3zm-322.9 1.4c-3.4.5-4.7 3.8-2.7 6.8 1.6 2.5 4.2 2.6 7.3.2 3.3-2.7.1-7.7-4.6-7zm235.8.2c-1.7.4-2.6 1.4-2.8 3.1-.5 4.5 5.3 7.2 8.3 3.9 3.1-3.5-.6-8.2-5.5-7zm13.8 19.1c-2.9 1.6-2.3 5.6.9 6.4 4.5 1.1 7.3-4.4 3.4-6.5-2.3-1.2-2.2-1.2-4.3.1zm-265.3.6c-1.9 1.9-1.6 4.2.8 5.7 2.3 1.5 5.2-.4 5.2-3.4s-3.8-4.5-6-2.3zm-45.3 9.5c-2.7 2.7-.6 7 2.9 6.1 2.4-.7 4.1-3.6 3.3-5.7-.7-1.9-4.5-2.1-6.2-.4zm354.5.1c-.8 2.1 1.6 6.2 3.7 6.2 2.7 0 4.4-3 3-5.3-1.4-2.2-6-2.8-6.7-.9zm-316.5 8.8c-2.5.9-3 4.4-.7 5.2.7.3 2.3-.2 3.4-1.1 2.8-2.3.8-5.4-2.7-4.1zm281.4.5c-2.1 2-2.1 2.1 1 4 2.2 1.5 2.7 1.5 3.5.3 1.4-2.2 1.1-3.7-1-4.9-1.5-.7-2.3-.6-3.5.6zm-287.8 16.5c-2.8 1.6-2.3 4.9.6 4.9 3 0 4-1.3 3.1-4-.7-2.2-1.2-2.4-3.7-.9zm294.1-.1c-.5 3.8-.2 4.5 1.9 4.8 3 .5 4.2-2.6 1.7-4.4-2.2-1.7-3.5-1.8-3.6-.4zm-299.2 17.4c-.9 2.3 1.9 4.1 3.6 2.4.7-.7 1.2-1.9.9-2.6-.5-1.7-3.9-1.5-4.5.2zm302.8-.5c-.8 1.4 2.3 4.1 4 3.5 1.8-.7 1.9-1.6.3-3.2-1.4-1.4-3.5-1.6-4.3-.3zM328.1 48.8c-1.2 2.2.3 4.2 3 4.2 2.4 0 2.8-1 1.8-3.8-1-2.7-3.5-2.9-4.8-.4zm-60.3.9c-2.4.6-3 3-1.2 4.8 2.1 2 3.1 1.9 4.5-.6 1.3-2.5-.5-4.8-3.3-4.2zm87.5 1.9c-.8 2.1 1.9 4.6 4 3.8.9-.3 1.7-1.7 1.7-3 0-1.9-.5-2.4-2.5-2.4-1.4 0-2.8.7-3.2 1.6zm-116 5.2c-1.8 1.1-.4 5.2 1.8 5.2 2.4 0 4.2-3.3 2.7-4.8-1.4-1.4-2.8-1.5-4.5-.4zm143.9.4c-1.3 1.3.2 4.8 2.1 4.8 2.1 0 3.5-2 3-4.1-.6-2.1-3.3-2.5-5.1-.7zm25.7 8.4c-1.5 1.8-.1 4.9 2.2 4.9 3.1.1 3.9-3.9 1-5.4-1.4-.8-2.2-.7-3.2.5zm-195.2.1c-1.3 1.2-.7 4.1 1 4.7 2.1.8 4.8-1.7 4-3.8-.6-1.6-3.8-2.2-5-.9zm-23.5 10.5c-1.4 1.4.2 4.8 2.2 4.8s3.7-2.5 3-4.4c-.7-1.9-3.5-2.1-5.2-.4zm241.1.4c-.8 2 2.1 4.9 4.1 4.1.9-.4 1.6-1.8 1.6-3.2 0-2-.5-2.5-2.5-2.5-1.4 0-2.8.7-3.2 1.6zM169.2 88c-1.2 2.1-.4 3.5 2.5 4.2 1.3.4 2.4.1 2.7-.8 1.4-3.6-3.2-6.6-5.2-3.4zm284-.6c-1.5 2-.7 4.1 1.7 4.4 4.1.6 5.1-4 1.1-5.1-1.1-.3-2.3 0-2.8.7zM97.5 91.2c-5.5 3.1-6.1 9.2-1.4 13.2 1.7 1.4 3.7 2.6 4.5 2.6 3 0 7.2-3 8.2-5.8 2.4-6.9-5.1-13.6-11.3-10zm7.1 5c1.5 4.3-.1 6.8-4.2 6.8-2 0-3.5-1.7-3.9-4.5-.2-1.8 2.8-4.5 5.1-4.5 1.5 0 2.5.8 3 2.2zM522.3 91c-3.4 1.4-5.5 6.2-4.2 9.8 2.1 6 8.7 7.6 13.4 3.2 4.5-4.2 2.9-10.7-3.2-13.1-2.8-1.1-3.1-1.1-6 .1zm6.3 3.8c1.9 1.2 2.3 5.1.7 6.7-3.1 3.1-7.7 1.1-7.6-3.3.1-2.6.4-3.1 2.1-3.5 2.7-.7 3.6-.7 4.8.1zm-54.5 9.5c-.9 1.2-.8 1.8.4 3.1 2.6 2.6 5.6 1.4 5.1-1.9-.3-2.4-3.8-3.1-5.5-1.2zm-345.5 15.2c-.9 2.5.5 4.6 2.8 4.3 3-.4 2.9-5-.1-5.4-1.2-.2-2.3.3-2.7 1.1zm364.6-.3c-.5.5-.7 1.8-.5 2.9.7 2.4 4.8 2.6 5.7.2 1.1-2.8-3-5.3-5.2-3.1zm-379.1 17.6c-1.1 2.1-.4 3.6 2.1 4.5 2 .7 4.1-2.2 3-3.9-1.4-2.1-4.2-2.4-5.1-.6zm393.6 1.3c-.7 2.7 3.2 4.5 5 2.2 1.6-2.1.5-4.3-2.2-4.3-1.4 0-2.5.7-2.8 2.1zM98.2 155.7c-1.3 2.6-.4 4.3 2.3 4.3 1.3 0 2.5-.6 2.8-1.3.7-2.2-.5-4.7-2.4-4.7-1 0-2.2.8-2.7 1.7zm426 0c-1.3 2.6-.4 4.3 2.3 4.3 1.3 0 2.5-.6 2.8-1.3.6-1.7-1.1-4.7-2.8-4.7-.8 0-1.8.8-2.3 1.7zM86.1 174.4c-1.5 1.8-.4 4.6 1.8 4.6 2.7 0 4.2-2 3-4.2-1.2-2.1-3.2-2.3-4.8-.4zm450 .4c-1.2 2.2.3 4.2 3 4.2 2 0 2.8-1.7 2.1-4.3-.6-2.3-3.9-2.2-5.1.1zM30.7 192.7c-2 .5-4.7 5.2-4.7 8.2 0 3.1 4.1 7.1 7.8 7.6 10.2 1.2 11.9-14.4 1.7-15.9-1.7-.2-3.8-.2-4.8.1zm7.4 5.4c1.6 3-.3 6.9-3.4 6.9-2.9 0-4.7-1.7-4.7-4.5 0-4.5 6-6.3 8.1-2.4zm550.9-4.8c-4 2-5.4 5.9-3.6 10.1 2.5 6 9.1 7.1 13.3 2.2 2.7-3.2 2.9-6.2.6-9.6-3-4.4-5.6-5.1-10.3-2.7zm6.8 3.9c1.7 1.7 1.5 5.3-.3 6.8-2 1.7-6.2.5-7-2-1.4-4.4 4.1-8 7.3-4.8zm-521.6-3c-1.6 1.6-1.5 3.3.4 4.8 2.2 1.9 5.4-1.2 3.8-3.7-1.4-2.2-2.7-2.6-4.2-1.1zm475.5 0c-2.1 1.1-2.2 3.2-.2 4.8 1.2 1 1.8 1 3 0 3.3-2.7.8-6.9-2.8-4.8zM65.1 214.8c-1.2 2.2.3 4.2 3.1 4.2 1.8 0 1.9-.3 2.2-3.8.2-2.5-4-2.8-5.3-.4zm491.6-.4c-1 2.6.3 4.6 3 4.6 2.1 0 2.4-.4 2.1-2.8-.3-3.1-4.1-4.4-5.1-1.8zM59.4 231.5c-.9 2.4.3 4.4 2.5 4.2 3.7-.2 3.7-5.7 0-5.7-1.1 0-2.2.7-2.5 1.5zm504 0c-1.9 1.5-1.9 1.5.1 3 2.6 2 3.9 1.4 4.3-1.8.4-3.1-1.3-3.5-4.4-1.2zM54.7 245.7c-1.4 1.3-.6 4.1 1.3 4.6 2.3.6 4.5-1.6 3.6-3.8-.5-1.5-3.7-2.1-4.9-.8zm513 0c-1.2 1.2-.7 4.1.8 4.7 2.5.9 4.5-.4 4.5-3 0-1.8-.5-2.4-2.3-2.4-1.3 0-2.7.3-3 .7zM52.1 264.4c-1.2 1.4-.5 2.6 1.6 2.6 1.5 0 1.8-2.6.4-3.4-.5-.3-1.4 0-2 .8zm520.3-.3c-.8 1.4 1.1 3.3 2.5 2.5.6-.4 1.1-1.1 1.1-1.6 0-1.3-2.9-2-3.6-.9zM50.2 279.7c.5 2.5 2.8 2.8 2.8.4 0-1.2-.6-2.1-1.6-2.1-.9 0-1.4.7-1.2 1.7zm523.5-1.1c-.3.3-.3 1.2 0 1.9.6 1.7 3.3.8 3.3-1.1 0-1.4-2.1-1.9-3.3-.8zm-524 13.1c-.4.3-.7 1.2-.7 2 0 1.7 2.6 1.7 3.3-.1.8-2.1-1.1-3.5-2.6-1.9zm525 .8c-.7 1.6.8 2.9 2.3 2 1.5-.9 1.2-3.5-.4-3.5-.8 0-1.6.7-1.9 1.5zM9.3 306c-4.6 1.9-5.9 9.5-2.1 13 3 2.8 6.1 3.4 9 1.9 3.3-1.8 4.7-4 4.7-7.4 0-3.4-1.4-5.6-4.6-7.3-2.5-1.4-4-1.4-7-.2zm7.2 4.7c1.8 4.1 0 7.3-4.2 7.3-2 0-3.6-2.3-3.8-5.5-.2-3.4 6.7-4.9 8-1.8zm594-4.5c-3.5 2.1-4.5 3.6-4.5 7 .1 4.2 2.7 7.6 6.3 8.2 5.1.9 8.7-1.9 10-8 1.1-5-7.2-10-11.8-7.2zm7.1 4.3c1.6 1.6 1.1 5.4-1 6.7-3.3 2.2-8.1-.9-7-4.6 1.2-3.8 5.3-4.9 8-2.1zm-570.2-2.8c.2 1 .6 1.7 1 1.6 2.4-.6 2.9-1.1 2.2-2.1-1.1-1.8-3.5-1.4-3.2.5zm528.6-.4c0 1.9 1 2.7 2.5 2 1.7-.6.8-3.3-1.1-3.3-.8 0-1.4.6-1.4 1.3zM48.6 318.7c-1.2 1.2-.6 3.3.9 3.3.8 0 1.5-.6 1.5-1.4 0-1.7-1.4-2.8-2.4-1.9zm527.1.9c-.9 1 .2 2.4 1.9 2.4.8 0 1.4-.7 1.4-1.5 0-1.5-2.1-2.1-3.3-.9zM110 386.8c-2.1 1.7-2.2 2.1-.9 4.8 2.6 5.3 9.9 3.7 9.9-2.1 0-4.3-5.2-5.8-9-2.7zm399.8-.7c-1 .5-1.8 2.1-1.8 3.4 0 5.7 7.2 7.3 10 2.2 1.4-2.7 1.4-2.9-.9-4.8-2.6-2.1-4.7-2.4-7.3-.8zM66.1 398.9c-3.4 2.2-1 6.9 2.9 5.6 2.2-.7 2.5-1.7 1-4.6-1.2-2.1-1.8-2.3-3.9-1zm47.6.2c-2.3 1.3-2.2 4.6.3 5.4 2.5.8 4-.1 4-2.4 0-2.7-2.1-4.2-4.3-3zm443.7.6c-1.1 2.6-1.1 3.7.1 4.5 1.8 1.3 3.4.9 4.6-1.4 1-1.8.8-2.4-.7-3.5-2.4-1.7-3-1.6-4 .4zm-48 .8c-1 2.5.4 4.7 2.8 4.3 1.7-.2 2.4-1.1 2.6-3.1.3-2.3 0-2.7-2.3-2.7-1.4 0-2.8.7-3.1 1.5zm-382.6 5.7c-5.7 2-1.9 10.5 3.9 8.9 3.4-.9 4.4-5.3 1.7-8.2-1.9-2.1-1.9-2.1-5.6-.7zm368 .5c-3.4 4.1-2.6 7.5 2 8.6 2.6.6 6.2-2.5 6.2-5.4 0-1.8-3.5-4.9-5.6-4.9-.6 0-1.8.8-2.6 1.7zm-379.4 4.5c-1.5 2-1.1 4.2.9 4.6 2.3.5 3.4-2.6 1.5-4.4-1.2-1.2-1.7-1.3-2.4-.2zm393.6.3c-1.6 1.9-.5 4.7 1.7 4.3 2-.4 2.6-3.3.8-4.8-.9-.7-1.6-.6-2.5.5zm-380.9 8.4c-1.2.8-1.3 1.4-.3 3.5 1.3 2.8 3.1 3.3 5 1.4 3.3-3.3-.7-7.4-4.7-4.9zm365.3 1.7c-1 3.9 3 6 5.6 2.9 1.8-2.2.3-5.5-2.5-5.5-1.8 0-2.6.7-3.1 2.6zm-458.9 3.8c-5.9 2.5-7.1 7.6-3 12.5 5.6 6.6 16.1 1.2 14-7.2-1.3-5-6.2-7.4-11-5.3zm6.6 4.7c1.6 3-.3 6.9-3.4 6.9-2.9 0-4.7-1.7-4.7-4.5 0-4.5 6-6.3 8.1-2.4zm544.6-4.5c-5.2 2.8-6.1 7.6-2.1 12.3 5.4 6.5 15.3 1.7 13.8-6.6-1-5.6-6.6-8.3-11.7-5.7zm7.1 3.6c.7.7 1.2 2.1 1.2 3.3 0 4.1-4.6 6-7.6 3.1-2.9-3-1-7.6 3.1-7.6 1.2 0 2.6.5 3.3 1.2zm-451.6.4c-2.7 1.9-2.8 4.5-.2 6.9 1.7 1.5 2.4 1.6 4.5.7 3.2-1.5 3.5-6.6.6-8.2-2.5-1.3-2.2-1.3-4.9.6zm340.2-.6c-4.2 1.7-3.5 7 1.2 8.4 2.5.8 5.4-2.1 5-4.9-.4-2.7-3.6-4.5-6.2-3.5zm-400 2.5c-1 3.9.2 5.7 3.3 5.3 2.2-.2 2.9-.9 3.1-3.2.6-4.8-5.2-6.7-6.4-2.1zm49.7-1.1c-1.6 1.9-1 5.1.8 5.1.8 0 1.9-.8 2.5-1.7.8-1.4.7-2.1-.5-3.3-1.4-1.4-1.7-1.4-2.8-.1zm408.2.9c-1.4 3-.1 5.1 3.2 5.4 3 .2 4-1.5 3.1-5.2-.8-3.3-4.9-3.4-6.3-.2zm-47 .3c-.4 1.1.1 2.2 1.2 3 2.2 1.6 3.9.5 3.3-2.2-.4-2.5-3.6-3-4.5-.8zM87.4 444.4c-.7 3 .1 4.6 2.5 4.6 2.7 0 4-2.1 3-4.8-1.2-3-4.7-2.9-5.5.2zm446.5-.3c-.9 1.8-.8 2.5.8 4 1.6 1.7 2.1 1.7 3.7.6 1.4-1 1.7-2.1 1.2-4-.8-3.3-4-3.6-5.7-.6zm-388.2 0c-2 1.2-2.3 4.5-.3 5.2 1.7.7 3.6-1.1 3.6-3.4s-1.2-3-3.3-1.8zm333-.5c-.5.5.1 5.5.7 6.2.9.8 3.6-1.3 3.6-2.9 0-1.8-3.2-4.3-4.3-3.3zm-372.6 9.3c-2.3 2.3-1.9 4.6.9 6.1 3.9 2.1 6-4.1 2.5-7-1-.9-1.9-.6-3.4.9zm410.7-.2c-1.7 2-1.6 5.2.3 6.4 1.7 1 4.9-.7 4.9-2.6 0-.8.1-1.8.3-2.1.1-.4-.7-1.3-1.9-2-1.8-1.2-2.3-1.2-3.6.3zm-423.1 1c-1.5 1.4-.6 5.2 1.3 5.8 2.5.8 4-.1 4-2.4 0-3-3.5-5.3-5.3-3.4zm435.5.5c-1.9 1.9-1.4 4.6.9 5.3 2.5.8 4-.9 3.7-4-.3-2.3-2.8-3.1-4.6-1.3zm-427.9 9.5c-1.6.6-1.7 3.9-.2 4.9.6.3 1.7 0 2.5-.8 1.2-1.1 1.2-1.7.2-3-.7-.9-1.9-1.4-2.5-1.1zm8.8.7c-1.7 2-.3 4.6 2.4 4.6 3 0 3.9-1.4 2.5-4-1.2-2.3-3.3-2.6-4.9-.6zm401.9.1c-1.9 2.3-.4 4.7 2.7 4.3 2.9-.3 3.7-2.3 2-4.6-1.3-1.6-3.2-1.5-4.7.3zm11.5.1c-1.4 1.5-1.5 1.9-.2 3.2 1.8 1.7 3.7.8 3.7-1.8 0-2.7-1.6-3.3-3.5-1.4zm-362.8 4.2c-3.4 3.7-1.2 11.2 3.2 11.2 1.4 0 3.1-.4 3.8-.8 1.9-1.2 2.2-5.5.7-9-1.5-3.7-5.1-4.3-7.7-1.4zm298.9-.2c-1.6 1.6-2 3-1.8 7.3.4 7 10.2 4.4 10.2-2.7 0-5.6-4.8-8.2-8.4-4.6zm-353 6c-.8 2 .1 3.4 2 3.4.8 0 1.4-1 1.4-2.5 0-2.8-2.4-3.4-3.4-.9zm410.2-.4c-.7 1.9.2 3.8 1.7 3.8s2.4-1.9 1.8-3.8c-.3-.6-1.1-1.2-1.8-1.2s-1.5.6-1.7 1.2zm-400.8 1c0 .7.4 1.9.9 2.7 1.2 1.9 4.3.6 3.9-1.6-.4-2.1-4.8-3.1-4.8-1.1zm390.3.4c-.3.8-.1 2 .5 2.6 1.6 1.6 4.2.2 4.2-2.2 0-2.4-3.8-2.8-4.7-.4zm-373.2 6.8c-1.2 1.4-.1 5.9 1.7 7 2.9 1.8 5.5-2.9 3.4-6-1.2-1.8-4-2.3-5.1-1zm357.2-.6c-.7.4-1.6 2.2-1.9 4-.5 2.5-.3 3.2 1 3.2.9 0 1.9.1 2.4.1 1.5.3 3.1-4.4 2.1-6.3-1.1-2-1.8-2.2-3.6-1zm-322.2 6.8c-4 2.8-1.7 9.4 3.2 9.4 4.7 0 5.7-7.8 1.2-9.8-1.7-.8-2.8-.7-4.4.4zm286.2-.4c-2.4 1.2-3.6 5.4-2.2 8 1.1 2.1 5.5 2.4 7.3.5 3.6-3.6-.5-10.6-5.1-8.5zM118 493.4c0 .7.6 1.9 1.4 2.5 1 .9 1.6.7 2.7-.5 1.1-1.3 1-1.7-.2-2.5-2.1-1.3-3.9-1.1-3.9.5zm23.5.3c-2.1 2.1-1.4 3.7 1.8 4.1 2.3.3 2.7 0 2.7-2.1 0-3.1-2.4-4.1-4.5-2zm339.9.8c-.3 1.3-.3 2.8 0 3.3.9 1.4 4.6.2 4.6-1.4 0-.8 0-1.7.1-2.1 0-.4-.9-1-2-1.5-1.7-.6-2.2-.3-2.7 1.7zm23.8-1.7c-1.2.8-.7 4.2.7 4.2 1.2 0 3.1-2.3 3.1-3.7 0-1.5-1.8-1.7-3.8-.5zm-355.6 8.9c-1.2 1.2-.6 4.4 1 5 1.8.7 3.5-1.3 2.7-3.3-.5-1.5-2.9-2.5-3.7-1.7zm325.1.8c-1.9 1.9-1.1 4.7 1.2 4.3 1.8-.4 2.7-3.6 1.3-5-.6-.6-1.5-.4-2.5.7zm-295.5 3.8c-1.8 2.4-2 4.5-.6 6.6.8 1.1 1.9 2.1 2.4 2.1 1.8 0 3.7-3 3.3-5.3-.6-3-3.7-5.1-5.1-3.4zm264.3 1.4c-1.4 2.5-.7 6 1.3 6.8 2.5.9 5.3-3 4.3-5.8s-4.3-3.3-5.6-1zm-306.3 4.6c-.9 1-.9 1.8.1 3.1 1.2 1.6 1.4 1.7 2.7.1 1.1-1.4 1.1-1.8-.2-3.1-1.2-1.3-1.6-1.3-2.6-.1zm349.8.3c-1 1.1-1 1.7 0 2.9 1.5 1.7 2.6 1.3 3.3-1.4.6-2.4-1.7-3.5-3.3-1.5zm-390.8 6.6c-1.9 1-3.4 3.7-3.7 7.3-.2 1.9 2.8 6.3 5 7.3 3.1 1.4 7.3.3 9.5-2.6 5.7-7.2-2.2-16.1-10.8-12zm8.8 6.9c0 2.2-.6 3.2-2.6 4.1-2.3 1.1-2.9 1-4.6-1.1-2.4-3-2-5.2 1.1-6.8 3.5-1.7 6.1 0 6.1 3.8zm417-6.8c-1.6.8-2.8 2.6-3.4 5-.8 3.1-.6 4.2 1.1 6.5 3.9 5.2 12.1 4.2 14.2-1.8 2.5-7.4-4.7-13.3-11.9-9.7zm7 3.7c1.1 1.1 2 2.4 2 3 0 1.3-3.7 5-5 5-.5 0-1.9-.9-3-2-2.1-2.1-1.8-4.6.8-6.8 2.1-1.6 2.9-1.5 5.2.8zm-338.7-1.3c-1.5.6-1.7 5.9-.3 6.8 1.8 1.1 4.8-.5 4.5-2.3-.2-.9-.4-2.2-.4-2.8-.1-1.4-2.1-2.3-3.8-1.7zm244.6 0c-3.7.9-3.2 7.6.5 7.1 1.5-.2 2.2-1.1 2.4-3.2.4-3.2-.5-4.4-2.9-3.9zm-280.2 7c-.3.5-.2 1.5.3 2.2 1 1.7 4.3.6 3.8-1.2-.6-1.5-3.4-2.2-4.1-1zm313.8.3c-.8 1.3.3 3 2 3 1.4 0 2.7-2.4 1.8-3.4-1-.9-3.1-.7-3.8.4zM202 536c-.8.5-1.5 1.5-1.6 2.2-.1 3.7 5 5.3 5.9 1.9.6-2.6-2.3-5.3-4.3-4.1zm219.6 1.2c-1.9 2.6-1 4.8 1.9 4.8 2.5 0 3.4-1.5 2.7-4.2-.6-2.6-3-2.9-4.6-.6zm-250.2 5.3c.3.9.6 1.9.6 2.1 0 .2.7.4 1.6.4 2.2 0 1.3-3.4-1-3.8-1.4-.3-1.7 0-1.2 1.3zm281.3-.8c-.4.3-.7 1.2-.7 2 0 1.7 2.6 1.7 3.3-.1.8-2.1-1.1-3.5-2.6-1.9zm-41.6 5.6c-.6.6-1.1 1.9-1.1 3 0 2.7 4.4 1.9 4.8-.9.3-2.5-2-3.8-3.7-2.1zM212 548.8c0 2.9 1.9 4.3 4.1 2.9 1.3-.8 1.5-1.5.8-2.9-1.3-2.4-4.9-2.4-4.9 0zm-21.4 4.1c-.4.5-.3 1.6 0 2.5.5 1.2 1 1.4 2 .6.7-.7 1-1.8.7-2.6-.6-1.6-1.9-1.8-2.7-.5zm243.5.4c-.9 1.1-.8 1.7.4 2.7 1.2 1 1.6.9 2.1-.5.9-2.3-1-4-2.5-2.2zM223 557.5c0 1.8.5 2.5 1.8 2.5 2.5 0 3.1-.7 2.5-3.1-.8-2.9-4.3-2.5-4.3.6zm176.7-.6c-.6 2.4 0 3.1 2.5 3.1 1.3 0 1.8-.7 1.8-2.5 0-3.1-3.5-3.5-4.3-.6zM215 565.4c0 1.7 1.4 2.9 2.3 2 .8-.8-.3-3.4-1.4-3.4-.5 0-.9.6-.9 1.4zm195.3-.7c-1.6.6-1.7 3.3-.3 3.3 1.1 0 2.6-2.8 1.9-3.4-.2-.2-1-.1-1.6.1zm-156.7 7.6c-2.1 1.6-1.1 4.7 1.5 4.7 1.3 0 1.9-.7 1.9-2.4 0-3.1-1.2-3.9-3.4-2.3zm117.1-.6c-.4.3-.7 1.7-.7 3 0 2.6 2.1 3.1 4 .8 1.8-2.2-1.3-5.8-3.3-3.8zM195.9 589c-4.3 4.2-3 10.1 2.8 12.5 5.9 2.5 12.1-2.5 10.9-8.8-1.5-7.2-8.4-9.1-13.7-3.7zm9.3 2.2c1.2 2 1 3.4-1 5.8-1.4 1.8-2.2 2-4.3 1.1-3.4-1.2-4.2-4.4-1.8-7 2-2.1 5.7-2.1 7.1.1zm214.9-3.5c-1.2 1-2.4 3.4-2.7 5.3-1.5 9.2 12.4 12.8 15.5 4 1.2-3.5.1-7.5-2.7-9.6-2.4-1.9-7.6-1.7-10.1.3zm8 2.3c2.8 1.6 2.6 6.8-.3 7.9-5 2-8.9-4.3-4.6-7.3 2.7-1.9 2.4-1.9 4.9-.6zm-119 20.1c-7 4.2-3.7 14.8 4.6 14.9 4.9 0 9-5.1 7.8-9.8-1.4-5.7-7.4-8.2-12.4-5.1zm7.9 3.9c1.1 1.1 2 2.3 2 2.8 0 1.9-3.1 5-4.7 4.7-1-.2-2.4-.4-3.1-.4-.7-.1-1.7-1.3-2.3-2.8-.9-2.4-.7-3 1.1-4.5 2.9-2.3 4.5-2.3 7 .2z"/></svg>