<?xml version="1.0" encoding="UTF-8"?>
<svg width="110px" height="110px" viewBox="0 0 110 110" version="1.1" xmlns="http://www.w3.org/2000/svg" xmlns:xlink="http://www.w3.org/1999/xlink">
    <!-- Generator: Sketch 50.2 (55047) - http://www.bohemiancoding.com/sketch -->
    <title>Icon_soc_</title>
    <desc>Created with Sketch.</desc>
    <defs></defs>
    <g id="Icon_soc_" stroke="none" stroke-width="1" fill="none" fill-rule="evenodd">
        <g id="left-arrow" transform="translate(55.500000, 54.500000) rotate(-90.000000) translate(-55.500000, -54.500000) translate(8.000000, 21.000000)" fill="#f89e2f" fill-rule="nonzero">
            <path d="M30.9894903,1.00767806 C32.3287611,-0.335892688 34.4372078,-0.335892688 35.7764786,1.00767806 C37.0705038,2.30585791 37.0705038,4.46646493 35.7764786,5.76161872 L11.503703,30.1123255 L91.6005445,30.1123255 C93.4676811,30.1123255 95,31.6011472 95,33.4742785 C95,35.3474098 93.4676811,36.8846484 91.6005445,36.8846484 L11.503703,36.8846484 L35.7764786,61.1899643 C37.0705038,62.5335351 37.0705038,64.6971681 35.7764786,65.9923219 C34.4372078,67.3358927 32.3287611,67.3358927 30.9894903,65.9923219 L0.970518896,35.8769703 C-0.323506299,34.5787905 -0.323506299,32.4181835 0.970518896,31.1230297 L30.9894903,1.00767806 Z" id="Shape"></path>
        </g>
    </g>
</svg>
