<?xml version="1.0" encoding="UTF-8"?>
<svg width="110px" height="110px" viewBox="0 0 110 110" version="1.1" xmlns="http://www.w3.org/2000/svg" xmlns:xlink="http://www.w3.org/1999/xlink">
    <!-- Generator: Sketch 50.2 (55047) - http://www.bohemiancoding.com/sketch -->
    <title>Icon_soc_</title>
    <desc>Created with Sketch.</desc>
    <defs></defs>
    <g id="Icon_soc_" stroke="none" stroke-width="1" fill="none" fill-rule="evenodd">
        <path d="M82.8282327,67.2007377 C77.6177384,67.2007377 73.0217626,69.6831191 70.0190534,73.4845505 L42.1682224,59.2416212 C42.5328317,57.8817425 42.7948946,56.4766675 42.7948946,54.9979111 C42.7948946,53.3881232 42.4836474,51.872526 42.0493446,50.3977575 L69.7773098,36.2205337 C72.7634977,40.1940152 77.4783513,42.7910966 82.8322207,42.7910966 C91.9014964,42.7910966 99.2379286,35.4546644 99.2379286,26.3935543 C99.2381185,17.34061 91.9014964,10 82.8324106,10 C73.7836441,10 66.4390461,17.34061 66.4390461,26.3933644 C66.4390461,27.8762987 66.7012989,29.2853616 67.0698961,30.6494181 L39.2230531,44.8923474 C36.2163559,41.0869281 31.6120245,38.5963809 26.3933644,38.5963809 C17.3322544,38.5963809 10,45.9409789 10,54.9979111 C10,64.0548433 17.3324443,71.3954534 26.3933644,71.3954534 C31.7553995,71.3954534 36.4662652,68.7902062 39.4646067,64.8127368 L67.1802284,78.9899606 C66.7459256,80.4605513 66.4306905,81.988492 66.4306905,83.6024577 C66.4306905,92.65939 73.7752884,100 82.8240549,100 C91.8933307,100 99.2297629,92.65939 99.2297629,83.6024577 C99.2339407,74.5373598 91.8975085,67.2007377 82.8282327,67.2007377 Z" id="Shape" fill="#000000" fill-rule="nonzero"></path>
    </g>
</svg>