<?xml version="1.0" encoding="UTF-8"?>
<svg width="110px" height="110px" viewBox="0 0 110 110" version="1.1" xmlns="http://www.w3.org/2000/svg" xmlns:xlink="http://www.w3.org/1999/xlink">
    <!-- Generator: Sketch 50.2 (55047) - http://www.bohemiancoding.com/sketch -->
    <title>Icon_soc_</title>
    <desc>Created with Sketch.</desc>
    <defs></defs>
    <g id="Icon_soc_" stroke="none" stroke-width="1" fill="none" fill-rule="evenodd">
        <g id="instagram-logo" transform="translate(15.000000, 15.000000)" fill="#8a8a8a" fill-rule="nonzero">
            <path d="M57.6028235,0 L21.9548235,0 C9.84894118,0 0,9.84941176 0,21.9552941 L0,57.6032941 C0,69.7096471 9.84894118,79.5585882 21.9548235,79.5585882 L57.6028235,79.5585882 C69.7096471,79.5585882 79.5585882,69.7091765 79.5585882,57.6032941 L79.5585882,21.9552941 C79.5590588,9.84941176 69.7096471,0 57.6028235,0 Z M72.5002353,57.6032941 C72.5002353,65.8174118 65.8174118,72.4997647 57.6032941,72.4997647 L21.9548235,72.4997647 C13.7411765,72.5002353 7.05882353,65.8174118 7.05882353,57.6032941 L7.05882353,21.9552941 C7.05882353,13.7416471 13.7411765,7.05882353 21.9548235,7.05882353 L57.6028235,7.05882353 C65.8169412,7.05882353 72.4997647,13.7416471 72.4997647,21.9552941 L72.4997647,57.6032941 L72.5002353,57.6032941 Z" id="Shape"></path>
            <path d="M39.7792941,19.28 C28.4752941,19.28 19.2790588,28.4762353 19.2790588,39.7802353 C19.2790588,51.0837647 28.4752941,60.2795294 39.7792941,60.2795294 C51.0832941,60.2795294 60.2795294,51.0837647 60.2795294,39.7802353 C60.2795294,28.4762353 51.0832941,19.28 39.7792941,19.28 Z M39.7792941,53.2202353 C32.368,53.2202353 26.3378824,47.1910588 26.3378824,39.7797647 C26.3378824,32.368 32.3675294,26.3383529 39.7792941,26.3383529 C47.1910588,26.3383529 53.2207059,32.368 53.2207059,39.7797647 C53.2207059,47.1910588 47.1905882,53.2202353 39.7792941,53.2202353 Z" id="Shape"></path>
            <path d="M61.1392941,13.2945882 C59.7792941,13.2945882 58.4432941,13.8451765 57.4828235,14.8098824 C56.5176471,15.7698824 55.9628235,17.1063529 55.9628235,18.4710588 C55.9628235,19.8315294 56.5181176,21.1675294 57.4828235,22.1322353 C58.4428235,23.0922353 59.7792941,23.6475294 61.1392941,23.6475294 C62.504,23.6475294 63.8357647,23.0922353 64.8004706,22.1322353 C65.7651765,21.1675294 66.3157647,19.8310588 66.3157647,18.4710588 C66.3157647,17.1063529 65.7651765,15.7698824 64.8004706,14.8098824 C63.8404706,13.8451765 62.504,13.2945882 61.1392941,13.2945882 Z" id="Shape"></path>
        </g>
    </g>
</svg>
