<?xml version="1.0" encoding="UTF-8"?>
<svg width="110px" height="110px" viewBox="0 0 110 110" version="1.1" xmlns="http://www.w3.org/2000/svg" xmlns:xlink="http://www.w3.org/1999/xlink">
    <!-- Generator: Sketch 50.2 (55047) - http://www.bohemiancoding.com/sketch -->
    <title>Icon_soc_</title>
    <desc>Created with Sketch.</desc>
    <defs></defs>
    <g id="Icon_soc_" stroke="none" stroke-width="1" fill="none" fill-rule="evenodd">
        <g id="facebook" transform="translate(15.000000, 15.000000)" fill="#4a90e2" fill-rule="nonzero">
            <path d="M70.625,0 L9.375,0 C4.205625,0 0,4.205625 0,9.375 L0,70.625 C0,75.794375 4.205625,80 9.375,80 L70.625,80 C75.794375,80 80,75.794375 80,70.625 L80,9.375 C80,4.205625 75.794375,0 70.625,0 Z M73.75,70.625 C73.75,72.348125 72.348125,73.75 70.625,73.75 L52.8125,73.75 L52.8125,48.28125 L62.4671875,48.28125 L64.0625,38.59375 L52.8125,38.59375 L52.8125,31.875 C52.8125,29.2226562 54.8476562,27.1875 57.5,27.1875 L63.90625,27.1875 L63.90625,17.5 L57.5,17.5 C49.5432812,17.5 43.1284375,23.9453125 43.1284375,31.9021875 L43.1284375,38.59375 L33.75,38.59375 L33.75,48.28125 L43.1284375,48.28125 L43.1284375,73.75 L9.375,73.75 C7.651875,73.75 6.25,72.348125 6.25,70.625 L6.25,9.375 C6.25,7.651875 7.651875,6.25 9.375,6.25 L70.625,6.25 C72.348125,6.25 73.75,7.651875 73.75,9.375 L73.75,70.625 Z" id="Shape"></path>
        </g>
    </g>
</svg>
