<?xml version="1.0" encoding="UTF-8"?>
<svg width="110px" height="110px" viewBox="0 0 110 110" version="1.1" xmlns="http://www.w3.org/2000/svg" xmlns:xlink="http://www.w3.org/1999/xlink">
    <defs></defs>
    <g id="Icon_soc_" stroke="none" stroke-width="1" fill="none" fill-rule="evenodd">
        <g id="youtube" transform="translate(5.000000, 17.000000)" fill="#8a8a8a" fill-rule="nonzero">
            <path d="M65.2648331,33.3318105 L43.2154604,21.267361 C41.9476425,20.5736782 40.4491045,20.5995674 39.2064144,21.3358918 C37.962963,22.0729776 37.2213084,23.3750608 37.2213084,24.8202973 L37.2213084,48.7420809 C37.2213084,50.1804641 37.9583942,51.4802632 39.1934698,52.2181103 C39.8384199,52.6034053 40.5534234,52.796814 41.2699501,52.796814 C41.9263218,52.796814 42.5842166,52.6346248 43.1895712,52.3087232 L65.2397053,40.4521503 C66.5486415,39.747807 67.3656799,38.3870918 67.3717715,36.8999756 C67.3771016,35.4128595 66.5699622,34.0460526 65.2648331,33.3318105 Z M43.0700232,45.7328216 L43.0700232,27.853923 L59.5493725,36.8710405 L43.0700232,45.7328216 Z" id="Shape"></path>
            <path d="M99.0710283,17.8415875 L99.0664596,17.7959004 C98.9819384,16.9925682 98.1405337,9.84710039 94.6667885,6.21268889 C90.6516509,1.93789591 86.0996893,1.41858558 83.9105142,1.16959064 C83.7292885,1.14903138 83.563292,1.12999513 83.4148088,1.11019727 L83.2404363,1.09192242 C70.0459918,0.132492788 50.119548,0.00152290448 49.9200476,0.000761452242 L49.9025341,0 L49.8850207,0.000761452242 C49.6855203,0.00152290448 29.7590764,0.132492788 16.4458456,1.09192242 L16.2699501,1.11019727 C16.1283199,1.12923372 15.9722222,1.14674698 15.8024183,1.16654483 C13.6383712,1.41630117 9.1351425,1.9363731 5.10858304,6.36574074 C1.8000731,9.96131813 0.843689084,16.9537341 0.745461793,17.7395528 L0.734039961,17.8415875 C0.704343275,18.1758651 -5.68434189e-14,26.1338023 -5.68434189e-14,34.1229593 L-5.68434189e-14,41.5912828 C-5.68434189e-14,49.5804398 0.704343275,57.5383772 0.734039961,57.8734162 L0.739370175,57.9236721 C0.823891228,58.7140595 1.6645345,65.7285575 5.12228928,69.364492 C8.8975694,73.4961318 13.6711135,74.0428546 16.2387306,74.336775 C16.6445846,74.3832238 16.9940912,74.4228191 17.2324257,74.464699 L17.4631458,74.4966801 C25.0814754,75.2215827 48.9674708,75.5787037 49.9802023,75.5931713 L50.0106604,75.5939327 L50.0411185,75.5931713 C50.2406189,75.5924097 70.1663012,75.4614402 83.3607456,74.5020101 L83.5351181,74.4837353 C83.7018762,74.4616532 83.8891934,74.4418556 84.0947856,74.4205349 C86.2466495,74.1920992 90.7255117,73.7177144 94.6964852,69.3485014 C98.0049951,65.7521626 98.9621405,58.7597466 99.0596064,57.9746893 L99.0710283,57.8726548 C99.100725,57.5376158 99.8058296,49.5804398 99.8058296,41.5912828 L99.8058296,34.1229593 C99.8050682,26.1338023 99.100725,18.1766265 99.0710283,17.8415875 Z M93.9563536,41.5912828 C93.9563536,48.9857456 93.3106421,56.6010294 93.2497259,57.3000427 C93.0014924,59.2257554 91.9925682,63.649793 90.3805739,65.4018945 C87.8951938,68.1362694 85.3420444,68.4073466 83.4780094,68.6045626 C83.2526195,68.6281676 83.0439815,68.6510113 82.8551413,68.6746162 C70.0932018,69.5974963 50.9190729,69.7391265 50.0357883,69.7444565 C49.0451388,69.7299891 25.5086501,69.3698222 18.1225634,68.6837536 C17.7441216,68.622076 17.3352218,68.5748659 16.9042398,68.5261329 C14.7181103,68.2756152 11.7256031,67.9329618 9.42449435,65.4018945 L9.37043119,65.3440242 C7.78661053,63.6939571 6.80662164,59.5569871 6.55762671,57.3228862 C6.51117817,56.7944384 5.84871462,49.0893031 5.84871462,41.5912828 L5.84871462,34.1229593 C5.84871462,26.7368725 6.49290331,19.1299647 6.5553423,18.4164838 C6.85154737,16.1481177 7.8795078,11.9921113 9.42449435,10.3123478 C11.9860197,7.49497446 14.6868908,7.18277895 16.4732577,6.97642534 C16.643823,6.95662768 16.8029667,6.93835283 16.9499269,6.91931657 C29.8976608,5.99186764 49.2096125,5.85404483 49.9025341,5.84871462 C50.5954558,5.85328343 69.9005544,5.99186764 82.733309,6.91931657 C82.8909296,6.93911423 83.0630177,6.95891209 83.2480507,6.98023275 C85.0854349,7.18963197 87.8624513,7.5063961 90.411032,10.2247807 L90.434637,10.2499086 C92.0184577,11.8999756 92.9984466,16.1092836 93.2474415,18.3883101 C93.2916058,18.8870614 93.9563536,26.6089485 93.9563536,34.1229593 L93.9563536,41.5912828 Z" id="Shape"></path>
        </g>
    </g>
</svg>
