<?xml version="1.0" encoding="UTF-8"?>
<svg width="110px" height="110px" viewBox="0 0 110 110" version="1.1" xmlns="http://www.w3.org/2000/svg" xmlns:xlink="http://www.w3.org/1999/xlink">
    <!-- Generator: Sketch 50.2 (55047) - http://www.bohemiancoding.com/sketch -->
    <title>Icon_soc_</title>
    <desc>Created with Sketch.</desc>
    <defs></defs>
    <g id="Icon_soc_" stroke="none" stroke-width="1" fill="none" fill-rule="evenodd">
        <g id="telephone-handle-silhouette" transform="translate(5.000000, 5.000000)" fill="#141414" fill-rule="nonzero">
            <path d="M99.7833333,77.4813433 C99.5004975,76.6291045 97.700995,75.3736318 94.3860697,73.7179104 C93.4880597,73.1960199 92.2084577,72.4868159 90.5527363,71.5870647 C88.8955224,70.6873134 87.3912935,69.858209 86.0427861,69.1004975 C84.6915423,68.3430348 83.4256219,67.609204 82.2427861,66.9 C82.0537313,66.7579602 81.4619403,66.3442786 80.4676617,65.6562189 C79.4723881,64.9701493 78.6330846,64.4609453 77.9452736,64.1288557 C77.2589552,63.7987562 76.5838308,63.6325871 75.9208955,63.6325871 C74.9741294,63.6325871 73.7915423,64.3077114 72.3716418,65.6562189 C70.9517413,67.0064677 69.6492537,68.4731343 68.4661692,70.0606965 C67.2828358,71.6475124 66.0278607,73.1141791 64.7034826,74.4636816 C63.3771144,75.8136816 62.2873134,76.4880597 61.4360697,76.4880597 C61.0087065,76.4880597 60.4758706,76.3689055 59.8373134,76.1338308 C59.199005,75.8972637 58.7134328,75.6945274 58.3800995,75.5310945 C58.0497512,75.3641791 57.4828358,75.0338308 56.6773632,74.5350746 C55.870398,74.0378109 55.4216418,73.7654229 55.3271144,73.7179104 C48.840796,70.1186567 43.2778607,65.9992537 38.6373134,61.3606965 C33.9982587,56.719403 29.8783582,51.1569652 26.2800995,44.6699005 C26.2328358,44.5751244 25.9599502,44.1251244 25.4631841,43.3206468 C24.9656716,42.5154229 24.6340796,41.94801 24.468408,41.6156716 C24.3027363,41.2845771 24.1014925,40.799005 23.8651741,40.1599502 C23.6288557,39.5208955 23.510199,38.9885572 23.510199,38.5619403 C23.510199,37.710199 24.1850746,36.6206468 25.5345771,35.2947761 C26.8838308,33.9696517 28.35199,32.7144279 29.9375622,31.531592 C31.5243781,30.3487562 32.9910448,29.0462687 34.340796,27.6263682 C35.6900498,26.2057214 36.3646766,25.0226368 36.3646766,24.0758706 C36.3646766,23.4134328 36.199005,22.7380597 35.8679104,22.0517413 C35.5365672,21.3639303 35.0276119,20.5246269 34.340796,19.5298507 C33.6537313,18.5355721 33.2395522,17.9442786 33.0972637,17.7539801 C32.3878109,16.5711443 31.6547264,15.3047264 30.8962687,13.9552239 C30.1378109,12.6059701 29.3099502,11.10199 28.4099502,9.44502488 C27.5106965,7.78880597 26.800995,6.50995025 26.279602,5.61044776 C24.6233831,2.29676617 23.3689055,0.496766169 22.5164179,0.213681592 C22.1848259,0.071641791 21.6873134,0 21.0251244,0 C19.7460199,0 18.0773632,0.236318408 16.0179104,0.710447761 C13.9577114,1.18383085 12.3365672,1.68034826 11.1527363,2.20199005 C8.78532338,3.19577114 6.2761194,6.08383085 3.62437811,10.8651741 C1.20970149,15.3149254 0.00248756219,19.7191542 0.00248756219,24.0746269 C0.00248756219,25.35199 0.0853233831,26.5947761 0.250995025,27.8032338 C0.416666667,29.0104478 0.712686567,30.3718905 1.13930348,31.8873134 C1.56517413,33.4022388 1.90870647,34.5276119 2.16840796,35.2604478 C2.42835821,35.9937811 2.91368159,37.3074627 3.62412935,39.20199 C4.33358209,41.0960199 4.760199,42.2554726 4.90223881,42.681592 C6.55920398,47.3218905 8.52412935,51.4644279 10.7965174,55.1104478 C14.5353234,61.1706468 19.6375622,67.4335821 26.1002488,73.8967662 C32.5631841,80.3594527 38.8248756,85.4614428 44.8855721,89.2017413 C48.5310945,91.4738806 52.6751244,93.4385572 57.3146766,95.0967662 C57.7410448,95.2380597 58.9004975,95.6636816 60.7937811,96.3756219 C62.6878109,97.0855721 64.00199,97.5708955 64.7353234,97.8313433 C65.4689055,98.0920398 66.5945274,98.4358209 68.108209,98.8624378 C69.6251244,99.2890547 70.9853234,99.5850746 72.1925373,99.75199 C73.4004975,99.9154229 74.6435323,99.9997512 75.9211443,99.9997512 C80.2763682,99.9997512 84.6808458,98.791791 89.1313433,96.3773632 C93.9121891,93.7266169 96.7995025,91.2169154 97.7937811,88.8477612 C98.3166667,87.6651741 98.8119403,86.0435323 99.2853234,83.9833333 C99.760199,81.9241294 99.9960199,80.2557214 99.9960199,78.9768657 C99.9975124,78.3119403 99.9261194,77.8156716 99.7833333,77.4813433 Z" id="Shape"></path>
        </g>
    </g>
</svg>