<?xml version="1.0" encoding="UTF-8"?>
<svg width="100px" height="100px" viewBox="0 0 100 100" version="1.1" xmlns="http://www.w3.org/2000/svg" xmlns:xlink="http://www.w3.org/1999/xlink">
    <!-- Generator: Sketch 50.2 (55047) - http://www.bohemiancoding.com/sketch -->
    <title>Shape</title>
    <desc>Created with Sketch.</desc>
    <defs></defs>
    <g id="Page-2" stroke="none" stroke-width="1" fill="none" fill-rule="evenodd">
        <g id="Icon_soc_" transform="translate(-5.000000, -5.000000)" fill="#141414" fill-rule="nonzero">
            <path d="M104.783333,82.4813433 C104.500498,81.6291045 102.700995,80.3736318 99.3860697,78.7179104 C98.4880597,78.1960199 97.2084577,77.4868159 95.5527363,76.5870647 C93.8955224,75.6873134 92.3912935,74.858209 91.0427861,74.1004975 C89.6915423,73.3430348 88.4256219,72.609204 87.2427861,71.9 C87.0537313,71.7579602 86.4619403,71.3442786 85.4676617,70.6562189 C84.4723881,69.9701493 83.6330846,69.4609453 82.9452736,69.1288557 C82.2589552,68.7987562 81.5838308,68.6325871 80.9208955,68.6325871 C79.9741294,68.6325871 78.7915423,69.3077114 77.3716418,70.6562189 C75.9517413,72.0064677 74.6492537,73.4731343 73.4661692,75.0606965 C72.2828358,76.6475124 71.0278607,78.1141791 69.7034826,79.4636816 C68.3771144,80.8136816 67.2873134,81.4880597 66.4360697,81.4880597 C66.0087065,81.4880597 65.4758706,81.3689055 64.8373134,81.1338308 C64.199005,80.8972637 63.7134328,80.6945274 63.3800995,80.5310945 C63.0497512,80.3641791 62.4828358,80.0338308 61.6773632,79.5350746 C60.870398,79.0378109 60.4216418,78.7654229 60.3271144,78.7179104 C53.840796,75.1186567 48.2778607,70.9992537 43.6373134,66.3606965 C38.9982587,61.719403 34.8783582,56.1569652 31.2800995,49.6699005 C31.2328358,49.5751244 30.9599502,49.1251244 30.4631841,48.3206468 C29.9656716,47.5154229 29.6340796,46.94801 29.468408,46.6156716 C29.3027363,46.2845771 29.1014925,45.799005 28.8651741,45.1599502 C28.6288557,44.5208955 28.510199,43.9885572 28.510199,43.5619403 C28.510199,42.710199 29.1850746,41.6206468 30.5345771,40.2947761 C31.8838308,38.9696517 33.35199,37.7144279 34.9375622,36.531592 C36.5243781,35.3487562 37.9910448,34.0462687 39.340796,32.6263682 C40.6900498,31.2057214 41.3646766,30.0226368 41.3646766,29.0758706 C41.3646766,28.4134328 41.199005,27.7380597 40.8679104,27.0517413 C40.5365672,26.3639303 40.0276119,25.5246269 39.340796,24.5298507 C38.6537313,23.5355721 38.2395522,22.9442786 38.0972637,22.7539801 C37.3878109,21.5711443 36.6547264,20.3047264 35.8962687,18.9552239 C35.1378109,17.6059701 34.3099502,16.10199 33.4099502,14.4450249 C32.5106965,12.788806 31.800995,11.5099502 31.279602,10.6104478 C29.6233831,7.29676617 28.3689055,5.49676617 27.5164179,5.21368159 C27.1848259,5.07164179 26.6873134,5 26.0251244,5 C24.7460199,5 23.0773632,5.23631841 21.0179104,5.71044776 C18.9577114,6.18383085 17.3365672,6.68034826 16.1527363,7.20199005 C13.7853234,8.19577114 11.2761194,11.0838308 8.62437811,15.8651741 C6.20970149,20.3149254 5.00248756,24.7191542 5.00248756,29.0746269 C5.00248756,30.35199 5.08532338,31.5947761 5.25099502,32.8032338 C5.41666667,34.0104478 5.71268657,35.3718905 6.13930348,36.8873134 C6.56517413,38.4022388 6.90870647,39.5276119 7.16840796,40.2604478 C7.42835821,40.9937811 7.91368159,42.3074627 8.62412935,44.20199 C9.33358209,46.0960199 9.760199,47.2554726 9.90223881,47.681592 C11.559204,52.3218905 13.5241294,56.4644279 15.7965174,60.1104478 C19.5353234,66.1706468 24.6375622,72.4335821 31.1002488,78.8967662 C37.5631841,85.3594527 43.8248756,90.4614428 49.8855721,94.2017413 C53.5310945,96.4738806 57.6751244,98.4385572 62.3146766,100.096766 C62.7410448,100.23806 63.9004975,100.663682 65.7937811,101.375622 C67.6878109,102.085572 69.00199,102.570896 69.7353234,102.831343 C70.4689055,103.09204 71.5945274,103.435821 73.108209,103.862438 C74.6251244,104.289055 75.9853234,104.585075 77.1925373,104.75199 C78.4004975,104.915423 79.6435323,104.999751 80.9211443,104.999751 C85.2763682,104.999751 89.6808458,103.791791 94.1313433,101.377363 C98.9121891,98.7266169 101.799502,96.2169154 102.793781,93.8477612 C103.316667,92.6651741 103.81194,91.0435323 104.285323,88.9833333 C104.760199,86.9241294 104.99602,85.2557214 104.99602,83.9768657 C104.997512,83.3119403 104.926119,82.8156716 104.783333,82.4813433 Z" id="Shape"></path>
        </g>
    </g>
</svg>